SplineFontDB: 3.2
FontName: QuinqueFive
FullName: QuinqueFive
FamilyName: QuinqueFive
Weight: Book
Copyright: (c) 2019-2023 GGBotNet. All Rights Reserved.
Version: 1.1
ItalicAngle: 0
UnderlinePosition: -292
UnderlineWidth: 150
Ascent: 1638
Descent: 410
InvalidEm: 0
sfntRevision: 0x0001199a
LayerCount: 2
Layer: 0 1 "Back" 1
Layer: 1 1 "Fore" 0
XUID: [1021 550 -2030064440 2878326]
StyleMap: 0x0040
FSType: 0
OS2Version: 3
OS2_WeightWidthSlopeOnly: 0
OS2_UseTypoMetrics: 0
CreationTime: 1589624481
ModificationTime: 1736769115
PfmFamily: 17
TTFWeight: 400
TTFWidth: 5
LineGap: 24
VLineGap: 0
Panose: 2 11 6 9 0 0 0 0 0 0
OS2TypoAscent: 1579
OS2TypoAOffset: 0
OS2TypoDescent: -419
OS2TypoDOffset: 0
OS2TypoLinegap: 205
OS2WinAscent: 1913
OS2WinAOffset: 0
OS2WinDescent: 419
OS2WinDOffset: 0
HheadAscent: 1913
HheadAOffset: 0
HheadDescent: -419
HheadDOffset: 0
OS2SubXSize: 1434
OS2SubYSize: 1331
OS2SubXOff: 0
OS2SubYOff: 307
OS2SupXSize: 1434
OS2SupYSize: 1331
OS2SupXOff: 0
OS2SupYOff: 922
OS2StrikeYSize: 102
OS2StrikeYPos: 530
OS2CapHeight: 1434
OS2XHeight: 958
OS2FamilyClass: 2048
OS2Vendor: 'AAL '
OS2CodePages: 0000008d.00000000
OS2UnicodeRanges: 8000028f.02000000.00000000.00000000
Lookup: 258 8 0 "'kern' Horizontal Kerning lookup 0" { "'kern' Horizontal Kerning lookup 0 subtable"  } ['kern' ('DFLT' <'dflt' > 'cyrl' <'dflt' > 'latn' <'dflt' > ) ]
DEI: 91125
ShortTable: maxp 16
  1
  0
  817
  52
  12
  0
  0
  1
  0
  0
  0
  0
  0
  0
  0
  0
EndShort
LangName: 1033 "+AKkA 2019-2023 GGBotNet. All Rights Reserved." "" "Regular" "1.1;GGBotNet;QuinqueFive" "" "1.1" "" "" "GGBotNet" "GGBotNet" "" "https://ggbot.net" "https://ggbot.net" "This Font Software is licensed under the SIL Open Font License, Version 1.1. This license is available with a FAQ at: https://scripts.sil.org/OFL" "https://scripts.sil.org/OFL"
Encoding: UnicodeFull
UnicodeInterp: none
NameList: AGL For New Fonts
DisplaySize: -48
AntiAlias: 1
FitToEm: 0
WinInfo: 0 38 16
BeginChars: 1114112 817

StartChar: .notdef
Encoding: 0 0 0
AltUni2: 00001d.ffffffff.0 00001d.ffffffff.0
Width: 2056
VWidth: 1646
GlyphClass: 2
Flags: W
LayerCount: 2
Fore
SplineSet
290.719726562 -123.280273438 m 1,0,-1
 290.719726562 1351.28027344 l 1,1,-1
 1765.28027344 1351.28027344 l 1,2,-1
 1765.28027344 -123.280273438 l 1,3,-1
 290.719726562 -123.280273438 l 1,0,-1
EndSplineSet
PairPos2: "'kern' Horizontal Kerning lookup 0 subtable" .notdef dx=0 dy=0 dh=0 dv=0 dx=0 dy=0 dh=0 dv=0
EndChar

StartChar: exclam
Encoding: 33 33 2
Width: 2056
VWidth: 1646
GlyphClass: 2
Flags: W
LayerCount: 2
Fore
SplineSet
1175.59960938 467.120117188 m 1,0,-1
 880.400390625 467.120117188 l 1,1,-1
 880.400390625 1351.28027344 l 1,2,-1
 1175.59960938 1351.28027344 l 1,3,-1
 1175.59960938 467.120117188 l 1,0,-1
1175.59960938 171.200195312 m 1,4,-1
 1175.59960938 -123.280273438 l 1,5,-1
 880.400390625 -123.280273438 l 1,6,-1
 880.400390625 171.200195312 l 1,7,-1
 1175.59960938 171.200195312 l 1,4,-1
EndSplineSet
EndChar

StartChar: quotedbl
Encoding: 34 34 3
Width: 2056
VWidth: 1818
GlyphClass: 2
Flags: W
LayerCount: 2
Fore
SplineSet
1470.08007812 933.66015625 m 1,0,-1
 1175.59960938 933.66015625 l 1,1,-1
 1175.59960938 1523.33984375 l 1,2,-1
 1470.08007812 1523.33984375 l 1,3,-1
 1470.08007812 933.66015625 l 1,0,-1
880.400390625 933.66015625 m 1,4,-1
 585.919921875 933.66015625 l 1,5,-1
 585.919921875 1523.33984375 l 1,6,-1
 880.400390625 1523.33984375 l 1,7,-1
 880.400390625 933.66015625 l 1,4,-1
EndSplineSet
EndChar

StartChar: numbersign
Encoding: 35 35 4
Width: 2056
VWidth: 1646
GlyphClass: 2
Flags: W
LayerCount: 2
Fore
SplineSet
1765.28027344 761.599609375 m 1,0,-1
 1470.08007812 761.599609375 l 1,1,-1
 1470.08007812 467.120117188 l 1,2,-1
 1765.28027344 467.120117188 l 1,3,-1
 1765.28027344 171.919921875 l 1,4,-1
 1470.08007812 171.919921875 l 1,5,-1
 1470.08007812 -123.280273438 l 1,6,-1
 1175.59960938 -123.280273438 l 1,7,-1
 1175.59960938 171.919921875 l 1,8,-1
 880.400390625 171.919921875 l 1,9,-1
 880.400390625 -123.280273438 l 1,10,-1
 585.919921875 -123.280273438 l 1,11,-1
 585.919921875 171.919921875 l 1,12,-1
 290.719726562 171.919921875 l 1,13,-1
 290.719726562 467.120117188 l 1,14,-1
 585.919921875 467.120117188 l 1,15,-1
 585.919921875 761.599609375 l 1,16,-1
 290.719726562 761.599609375 l 1,17,-1
 290.719726562 1056.79980469 l 1,18,-1
 585.919921875 1056.79980469 l 1,19,-1
 585.919921875 1351.28027344 l 1,20,-1
 880.400390625 1351.28027344 l 1,21,-1
 880.400390625 1056.79980469 l 1,22,-1
 1175.59960938 1056.79980469 l 1,23,-1
 1175.59960938 1351.28027344 l 1,24,-1
 1470.08007812 1351.28027344 l 1,25,-1
 1470.08007812 1056.79980469 l 1,26,-1
 1765.28027344 1056.79980469 l 1,27,-1
 1765.28027344 761.599609375 l 1,0,-1
1175.59960938 467.120117188 m 1,28,-1
 1175.59960938 761.599609375 l 1,29,-1
 880.400390625 761.599609375 l 1,30,-1
 880.400390625 467.120117188 l 1,31,-1
 1175.59960938 467.120117188 l 1,28,-1
EndSplineSet
EndChar

StartChar: dollar
Encoding: 36 36 5
Width: 2056
VWidth: 1646
GlyphClass: 2
Flags: W
LayerCount: 2
Fore
SplineSet
1470.08007812 -123.280273438 m 1,0,-1
 290.719726562 -123.280273438 l 1,1,-1
 290.719726562 171.919921875 l 1,2,-1
 880.400390625 171.919921875 l 1,3,-1
 880.400390625 467.120117188 l 1,4,-1
 585.919921875 467.120117188 l 1,5,-1
 585.919921875 761.599609375 l 1,6,-1
 880.400390625 761.599609375 l 1,7,-1
 880.400390625 1056.79980469 l 1,8,-1
 585.919921875 1056.79980469 l 1,9,-1
 585.919921875 1351.28027344 l 1,10,-1
 1765.28027344 1351.28027344 l 1,11,-1
 1765.28027344 1056.79980469 l 1,12,-1
 1175.59960938 1056.79980469 l 1,13,-1
 1175.59960938 761.599609375 l 1,14,-1
 1470.08007812 761.599609375 l 1,15,-1
 1470.08007812 467.120117188 l 1,16,-1
 1175.59960938 467.120117188 l 1,17,-1
 1175.59960938 171.919921875 l 1,18,-1
 1470.08007812 171.919921875 l 1,19,-1
 1470.08007812 -123.280273438 l 1,0,-1
1765.28027344 171.919921875 m 1,20,-1
 1470.08007812 171.919921875 l 1,21,-1
 1470.08007812 467.120117188 l 1,22,-1
 1765.28027344 467.120117188 l 1,23,-1
 1765.28027344 171.919921875 l 1,20,-1
585.919921875 761.599609375 m 1,24,-1
 290.719726562 761.599609375 l 1,25,-1
 290.719726562 1056.79980469 l 1,26,-1
 585.919921875 1056.79980469 l 1,27,-1
 585.919921875 761.599609375 l 1,24,-1
EndSplineSet
EndChar

StartChar: percent
Encoding: 37 37 6
Width: 2056
VWidth: 1646
GlyphClass: 2
Flags: W
LayerCount: 2
Fore
SplineSet
290.719726562 -123.280273438 m 1,0,-1
 290.719726562 171.919921875 l 1,1,-1
 585.919921875 171.919921875 l 1,2,-1
 585.919921875 -123.280273438 l 1,3,-1
 290.719726562 -123.280273438 l 1,0,-1
1470.08007812 -123.280273438 m 1,4,-1
 1470.08007812 171.919921875 l 1,5,-1
 1765.28027344 171.919921875 l 1,6,-1
 1765.28027344 -123.280273438 l 1,7,-1
 1470.08007812 -123.280273438 l 1,4,-1
585.919921875 1351.28027344 m 1,8,-1
 585.919921875 1056.79980469 l 1,9,-1
 290.719726562 1056.79980469 l 1,10,-1
 290.719726562 1351.28027344 l 1,11,-1
 585.919921875 1351.28027344 l 1,8,-1
880.400390625 467.120117188 m 1,12,-1
 880.400390625 761.599609375 l 1,13,-1
 1175.59960938 761.599609375 l 1,14,-1
 1175.59960938 467.120117188 l 1,15,-1
 880.400390625 467.120117188 l 1,12,-1
585.919921875 171.919921875 m 1,16,-1
 585.919921875 467.120117188 l 1,17,-1
 880.400390625 467.120117188 l 1,18,-1
 880.400390625 171.919921875 l 1,19,-1
 585.919921875 171.919921875 l 1,16,-1
1470.08007812 1351.28027344 m 1,20,-1
 1765.28027344 1351.28027344 l 1,21,-1
 1765.28027344 1056.79980469 l 1,22,-1
 1470.08007812 1056.79980469 l 1,23,-1
 1470.08007812 1351.28027344 l 1,20,-1
1175.59960938 761.599609375 m 1,24,-1
 1175.59960938 1056.79980469 l 1,25,-1
 1470.08007812 1056.79980469 l 1,26,-1
 1470.08007812 761.599609375 l 1,27,-1
 1175.59960938 761.599609375 l 1,24,-1
EndSplineSet
EndChar

StartChar: ampersand
Encoding: 38 38 7
Width: 2056
VWidth: 1646
GlyphClass: 2
Flags: W
LayerCount: 2
Fore
SplineSet
585.919921875 171.919921875 m 1,0,-1
 290.719726562 171.919921875 l 1,1,-1
 290.719726562 466.400390625 l 1,2,-1
 585.919921875 466.400390625 l 1,3,-1
 585.919921875 171.919921875 l 1,0,-1
585.919921875 466.400390625 m 1,4,-1
 585.919921875 761.599609375 l 1,5,-1
 1175.59960938 761.599609375 l 1,6,-1
 1175.59960938 466.400390625 l 1,7,-1
 585.919921875 466.400390625 l 1,4,-1
1765.28027344 -123.280273438 m 1,8,-1
 1470.08007812 -123.280273438 l 1,9,-1
 1470.08007812 171.919921875 l 1,10,-1
 1765.28027344 171.919921875 l 1,11,-1
 1765.28027344 -123.280273438 l 1,8,-1
1470.08007812 171.919921875 m 1,12,-1
 1175.59960938 171.919921875 l 1,13,-1
 1175.59960938 466.400390625 l 1,14,-1
 1470.08007812 466.400390625 l 1,15,-1
 1470.08007812 171.919921875 l 1,12,-1
585.919921875 1056.79980469 m 1,16,-1
 585.919921875 1351.28027344 l 1,17,-1
 1175.59960938 1351.28027344 l 1,18,-1
 1175.59960938 1056.79980469 l 1,19,-1
 585.919921875 1056.79980469 l 1,16,-1
585.919921875 -123.280273438 m 1,20,-1
 585.919921875 171.919921875 l 1,21,-1
 1175.59960938 171.919921875 l 1,22,-1
 1175.59960938 -123.280273438 l 1,23,-1
 585.919921875 -123.280273438 l 1,20,-1
1765.28027344 466.400390625 m 1,24,-1
 1470.08007812 466.400390625 l 1,25,-1
 1470.08007812 761.599609375 l 1,26,-1
 1765.28027344 761.599609375 l 1,27,-1
 1765.28027344 466.400390625 l 1,24,-1
585.919921875 761.599609375 m 1,28,-1
 290.719726562 761.599609375 l 1,29,-1
 290.719726562 1056.79980469 l 1,30,-1
 585.919921875 1056.79980469 l 1,31,-1
 585.919921875 761.599609375 l 1,28,-1
EndSplineSet
EndChar

StartChar: quotesingle
Encoding: 39 39 8
Width: 2056
VWidth: 1818
GlyphClass: 2
Flags: W
LayerCount: 2
Fore
SplineSet
1175.59960938 933.66015625 m 1,0,-1
 880.400390625 933.66015625 l 1,1,-1
 880.400390625 1523.33984375 l 1,2,-1
 1175.59960938 1523.33984375 l 1,3,-1
 1175.59960938 933.66015625 l 1,0,-1
EndSplineSet
EndChar

StartChar: parenleft
Encoding: 40 40 9
Width: 2056
VWidth: 1646
GlyphClass: 2
Flags: W
LayerCount: 2
Fore
SplineSet
880.400390625 171.919921875 m 1,0,-1
 585.919921875 171.919921875 l 1,1,-1
 585.919921875 1056.79980469 l 1,2,-1
 880.400390625 1056.79980469 l 1,3,-1
 880.400390625 171.919921875 l 1,0,-1
1175.59960938 171.200195312 m 1,4,-1
 1175.59960938 171.919921875 l 1,5,-1
 1470.08007812 171.919921875 l 1,6,-1
 1470.08007812 -123.280273438 l 1,7,-1
 880.400390625 -123.280273438 l 1,8,-1
 880.400390625 171.200195312 l 1,9,-1
 1175.59960938 171.200195312 l 1,4,-1
1470.08007812 1351.28027344 m 1,10,-1
 1470.08007812 1056.79980469 l 1,11,-1
 880.400390625 1056.79980469 l 1,12,-1
 880.400390625 1351.28027344 l 1,13,-1
 1470.08007812 1351.28027344 l 1,10,-1
EndSplineSet
EndChar

StartChar: parenright
Encoding: 41 41 10
Width: 2056
VWidth: 1646
GlyphClass: 2
Flags: W
LayerCount: 2
Fore
SplineSet
1175.59960938 171.919921875 m 1,0,-1
 1175.59960938 1056.79980469 l 1,1,-1
 1470.08007812 1056.79980469 l 1,2,-1
 1470.08007812 171.919921875 l 1,3,-1
 1175.59960938 171.919921875 l 1,0,-1
880.400390625 171.200195312 m 1,4,-1
 1175.59960938 171.200195312 l 1,5,-1
 1175.59960938 -123.280273438 l 1,6,-1
 585.919921875 -123.280273438 l 1,7,-1
 585.919921875 171.919921875 l 1,8,-1
 880.400390625 171.919921875 l 1,9,-1
 880.400390625 171.200195312 l 1,4,-1
585.919921875 1351.28027344 m 1,10,-1
 1175.59960938 1351.28027344 l 1,11,-1
 1175.59960938 1056.79980469 l 1,12,-1
 585.919921875 1056.79980469 l 1,13,-1
 585.919921875 1351.28027344 l 1,10,-1
EndSplineSet
EndChar

StartChar: asterisk
Encoding: 42 42 11
Width: 2056
VWidth: 1761
GlyphClass: 2
Flags: W
LayerCount: 2
Fore
SplineSet
585.919921875 581.919921875 m 1,0,-1
 585.919921875 876.400390625 l 1,1,-1
 880.400390625 876.400390625 l 1,2,-1
 880.400390625 581.919921875 l 1,3,-1
 585.919921875 581.919921875 l 1,0,-1
585.919921875 1466.08007812 m 1,4,-1
 880.400390625 1466.08007812 l 1,5,-1
 880.400390625 1171.59960938 l 1,6,-1
 585.919921875 1171.59960938 l 1,7,-1
 585.919921875 1466.08007812 l 1,4,-1
1470.08007812 581.919921875 m 1,8,-1
 1175.59960938 581.919921875 l 1,9,-1
 1175.59960938 876.400390625 l 1,10,-1
 1470.08007812 876.400390625 l 1,11,-1
 1470.08007812 581.919921875 l 1,8,-1
1470.08007812 1466.08007812 m 1,12,-1
 1470.08007812 1171.59960938 l 1,13,-1
 1175.59960938 1171.59960938 l 1,14,-1
 1175.59960938 1466.08007812 l 1,15,-1
 1470.08007812 1466.08007812 l 1,12,-1
1175.59960938 876.400390625 m 1,16,-1
 880.400390625 876.400390625 l 1,17,-1
 880.400390625 1171.59960938 l 1,18,-1
 1175.59960938 1171.59960938 l 1,19,-1
 1175.59960938 876.400390625 l 1,16,-1
EndSplineSet
EndChar

StartChar: plus
Encoding: 43 43 12
Width: 2056
VWidth: 1646
GlyphClass: 2
Flags: W
LayerCount: 2
Fore
SplineSet
1175.59960938 761.599609375 m 1,0,-1
 1765.28027344 761.599609375 l 1,1,-1
 1765.28027344 467.120117188 l 1,2,-1
 1175.59960938 467.120117188 l 1,3,-1
 1175.59960938 -123.280273438 l 1,4,-1
 880.400390625 -123.280273438 l 1,5,-1
 880.400390625 467.120117188 l 1,6,-1
 290.719726562 467.120117188 l 1,7,-1
 290.719726562 761.599609375 l 1,8,-1
 880.400390625 761.599609375 l 1,9,-1
 880.400390625 1351.28027344 l 1,10,-1
 1175.59960938 1351.28027344 l 1,11,-1
 1175.59960938 761.599609375 l 1,0,-1
EndSplineSet
EndChar

StartChar: comma
Encoding: 44 44 13
Width: 2056
VWidth: 1417
GlyphClass: 2
Flags: W
LayerCount: 2
Fore
SplineSet
1175.59960938 -58.259765625 m 1,0,-1
 1175.59960938 -352.740234375 l 1,1,-1
 880.400390625 -352.740234375 l 1,2,-1
 880.400390625 -58.259765625 l 1,3,-1
 1175.59960938 -58.259765625 l 1,0,-1
EndSplineSet
EndChar

StartChar: hyphen
Encoding: 45 45 14
AltUni2: 0000ad.ffffffff.0 0000ad.ffffffff.0
Width: 2056
VWidth: 1646
GlyphClass: 2
Flags: W
LayerCount: 2
Fore
SplineSet
290.719726562 467.259765625 m 1,0,-1
 290.719726562 761.740234375 l 1,1,-1
 1765.28027344 761.740234375 l 1,2,-1
 1765.28027344 467.259765625 l 1,3,-1
 290.719726562 467.259765625 l 1,0,-1
EndSplineSet
EndChar

StartChar: period
Encoding: 46 46 15
Width: 2056
VWidth: 1417
GlyphClass: 2
Flags: W
LayerCount: 2
Fore
SplineSet
1175.59960938 -58.259765625 m 1,0,-1
 1175.59960938 -352.740234375 l 1,1,-1
 880.400390625 -352.740234375 l 1,2,-1
 880.400390625 -58.259765625 l 1,3,-1
 1175.59960938 -58.259765625 l 1,0,-1
EndSplineSet
EndChar

StartChar: slash
Encoding: 47 47 16
Width: 2056
VWidth: 1646
GlyphClass: 2
Flags: W
LayerCount: 2
Fore
SplineSet
290.719726562 -123.280273438 m 1,0,-1
 290.719726562 171.919921875 l 1,1,-1
 585.919921875 171.919921875 l 1,2,-1
 585.919921875 -123.280273438 l 1,3,-1
 290.719726562 -123.280273438 l 1,0,-1
880.400390625 467.120117188 m 1,4,-1
 880.400390625 761.599609375 l 1,5,-1
 1175.59960938 761.599609375 l 1,6,-1
 1175.59960938 467.120117188 l 1,7,-1
 880.400390625 467.120117188 l 1,4,-1
585.919921875 171.919921875 m 1,8,-1
 585.919921875 467.120117188 l 1,9,-1
 880.400390625 467.120117188 l 1,10,-1
 880.400390625 171.919921875 l 1,11,-1
 585.919921875 171.919921875 l 1,8,-1
1470.08007812 1351.28027344 m 1,12,-1
 1765.28027344 1351.28027344 l 1,13,-1
 1765.28027344 1056.79980469 l 1,14,-1
 1470.08007812 1056.79980469 l 1,15,-1
 1470.08007812 1351.28027344 l 1,12,-1
1175.59960938 761.599609375 m 1,16,-1
 1175.59960938 1056.79980469 l 1,17,-1
 1470.08007812 1056.79980469 l 1,18,-1
 1470.08007812 761.599609375 l 1,19,-1
 1175.59960938 761.599609375 l 1,16,-1
EndSplineSet
EndChar

StartChar: zero
Encoding: 48 48 17
Width: 2056
VWidth: 1646
GlyphClass: 2
Flags: W
LayerCount: 2
Fore
SplineSet
290.719726562 1351.28027344 m 1,0,-1
 1765.28027344 1351.28027344 l 1,1,-1
 1765.28027344 -123.280273438 l 1,2,-1
 290.719726562 -123.280273438 l 1,3,-1
 290.719726562 1351.28027344 l 1,0,-1
1470.08007812 171.919921875 m 1,4,-1
 1470.08007812 1056.79980469 l 1,5,-1
 585.919921875 1056.79980469 l 1,6,-1
 585.919921875 171.919921875 l 1,7,-1
 1470.08007812 171.919921875 l 1,4,-1
EndSplineSet
EndChar

StartChar: one
Encoding: 49 49 18
Width: 2056
VWidth: 1646
GlyphClass: 2
Flags: W
LayerCount: 2
Fore
SplineSet
290.719726562 761.599609375 m 1,0,-1
 290.719726562 1056.79980469 l 1,1,-1
 585.919921875 1056.79980469 l 1,2,-1
 585.919921875 761.599609375 l 1,3,-1
 290.719726562 761.599609375 l 1,0,-1
1175.59960938 171.919921875 m 1,4,-1
 1765.28027344 171.919921875 l 1,5,-1
 1765.28027344 -123.280273438 l 1,6,-1
 290.719726562 -123.280273438 l 1,7,-1
 290.719726562 171.919921875 l 1,8,-1
 880.400390625 171.919921875 l 1,9,-1
 880.400390625 1056.79980469 l 1,10,-1
 585.919921875 1056.79980469 l 1,11,-1
 585.919921875 1351.28027344 l 1,12,-1
 1175.59960938 1351.28027344 l 1,13,-1
 1175.59960938 171.919921875 l 1,4,-1
EndSplineSet
EndChar

StartChar: two
Encoding: 50 50 19
Width: 2056
VWidth: 1646
GlyphClass: 2
Flags: W
LayerCount: 2
Fore
SplineSet
290.719726562 1351.28027344 m 1,0,-1
 1470.08007812 1351.28027344 l 1,1,-1
 1470.08007812 1056.79980469 l 1,2,-1
 290.719726562 1056.79980469 l 1,3,-1
 290.719726562 1351.28027344 l 1,0,-1
585.919921875 467.120117188 m 1,4,-1
 880.400390625 467.120117188 l 1,5,-1
 880.400390625 171.919921875 l 1,6,-1
 1765.28027344 171.919921875 l 1,7,-1
 1765.28027344 -123.280273438 l 1,8,-1
 290.719726562 -123.280273438 l 1,9,-1
 290.719726562 171.919921875 l 1,10,-1
 585.919921875 171.919921875 l 1,11,-1
 585.919921875 467.120117188 l 1,4,-1
1470.08007812 761.599609375 m 1,12,-1
 1470.08007812 467.120117188 l 1,13,-1
 880.400390625 467.120117188 l 1,14,-1
 880.400390625 761.599609375 l 1,15,-1
 1470.08007812 761.599609375 l 1,12,-1
1765.28027344 1056.79980469 m 1,16,-1
 1765.28027344 761.599609375 l 1,17,-1
 1470.08007812 761.599609375 l 1,18,-1
 1470.08007812 1056.79980469 l 1,19,-1
 1765.28027344 1056.79980469 l 1,16,-1
EndSplineSet
EndChar

StartChar: three
Encoding: 51 51 20
Width: 2056
VWidth: 1646
GlyphClass: 2
Flags: W
LayerCount: 2
Fore
SplineSet
290.719726562 1351.28027344 m 1,0,-1
 1765.28027344 1351.28027344 l 1,1,-1
 1765.28027344 -123.280273438 l 1,2,-1
 290.719726562 -123.280273438 l 1,3,-1
 290.719726562 171.919921875 l 1,4,-1
 1470.08007812 171.919921875 l 1,5,-1
 1470.08007812 467.120117188 l 1,6,-1
 585.919921875 467.120117188 l 1,7,-1
 585.919921875 761.599609375 l 1,8,-1
 1470.08007812 761.599609375 l 1,9,-1
 1470.08007812 1056.79980469 l 1,10,-1
 290.719726562 1056.79980469 l 1,11,-1
 290.719726562 1351.28027344 l 1,0,-1
EndSplineSet
EndChar

StartChar: four
Encoding: 52 52 21
Width: 2056
VWidth: 1646
GlyphClass: 2
Flags: W
LayerCount: 2
Fore
SplineSet
1765.28027344 -123.280273438 m 1,0,-1
 1470.08007812 -123.280273438 l 1,1,-1
 1470.08007812 467.120117188 l 1,2,-1
 290.719726562 467.120117188 l 1,3,-1
 290.719726562 1351.28027344 l 1,4,-1
 585.919921875 1351.28027344 l 1,5,-1
 585.919921875 761.599609375 l 1,6,-1
 1470.08007812 761.599609375 l 1,7,-1
 1470.08007812 1351.28027344 l 1,8,-1
 1765.28027344 1351.28027344 l 1,9,-1
 1765.28027344 -123.280273438 l 1,0,-1
EndSplineSet
EndChar

StartChar: five
Encoding: 53 53 22
Width: 2056
VWidth: 1646
GlyphClass: 2
Flags: W
LayerCount: 2
Fore
SplineSet
1765.28027344 1056.79980469 m 1,0,-1
 585.919921875 1056.79980469 l 1,1,-1
 585.919921875 761.599609375 l 1,2,-1
 1765.28027344 761.599609375 l 1,3,-1
 1765.28027344 -123.280273438 l 1,4,-1
 290.719726562 -123.280273438 l 1,5,-1
 290.719726562 171.919921875 l 1,6,-1
 1470.08007812 171.919921875 l 1,7,-1
 1470.08007812 467.120117188 l 1,8,-1
 290.719726562 467.120117188 l 1,9,-1
 290.719726562 1351.28027344 l 1,10,-1
 1765.28027344 1351.28027344 l 1,11,-1
 1765.28027344 1056.79980469 l 1,0,-1
EndSplineSet
EndChar

StartChar: six
Encoding: 54 54 23
Width: 2056
VWidth: 1646
GlyphClass: 2
Flags: W
LayerCount: 2
Fore
SplineSet
1765.28027344 1056.79980469 m 1,0,-1
 585.919921875 1056.79980469 l 1,1,-1
 585.919921875 761.599609375 l 1,2,-1
 1765.28027344 761.599609375 l 1,3,-1
 1765.28027344 -123.280273438 l 1,4,-1
 290.719726562 -123.280273438 l 1,5,-1
 290.719726562 1351.28027344 l 1,6,-1
 1765.28027344 1351.28027344 l 1,7,-1
 1765.28027344 1056.79980469 l 1,0,-1
1470.08007812 467.120117188 m 1,8,-1
 585.919921875 467.120117188 l 1,9,-1
 585.919921875 171.919921875 l 1,10,-1
 1470.08007812 171.919921875 l 1,11,-1
 1470.08007812 467.120117188 l 1,8,-1
EndSplineSet
EndChar

StartChar: seven
Encoding: 55 55 24
Width: 2056
VWidth: 1646
GlyphClass: 2
Flags: W
LayerCount: 2
Fore
SplineSet
585.919921875 -123.280273438 m 1,0,-1
 585.919921875 171.919921875 l 1,1,-1
 880.400390625 171.919921875 l 1,2,-1
 880.400390625 -123.280273438 l 1,3,-1
 585.919921875 -123.280273438 l 1,0,-1
880.400390625 171.919921875 m 1,4,-1
 880.400390625 467.120117188 l 1,5,-1
 1175.59960938 467.120117188 l 1,6,-1
 1175.59960938 171.919921875 l 1,7,-1
 880.400390625 171.919921875 l 1,4,-1
290.719726562 1351.28027344 m 1,8,-1
 1765.28027344 1351.28027344 l 1,9,-1
 1765.28027344 761.599609375 l 1,10,-1
 1470.08007812 761.599609375 l 1,11,-1
 1470.08007812 1056.79980469 l 1,12,-1
 290.719726562 1056.79980469 l 1,13,-1
 290.719726562 1351.28027344 l 1,8,-1
1175.59960938 467.120117188 m 1,14,-1
 1175.59960938 761.599609375 l 1,15,-1
 1470.08007812 761.599609375 l 1,16,-1
 1470.08007812 467.120117188 l 1,17,-1
 1175.59960938 467.120117188 l 1,14,-1
EndSplineSet
EndChar

StartChar: eight
Encoding: 56 56 25
Width: 2056
VWidth: 1646
GlyphClass: 2
Flags: W
LayerCount: 2
Fore
SplineSet
290.719726562 1351.28027344 m 1,0,-1
 1765.28027344 1351.28027344 l 1,1,-1
 1765.28027344 -123.280273438 l 1,2,-1
 290.719726562 -123.280273438 l 1,3,-1
 290.719726562 1351.28027344 l 1,0,-1
1470.08007812 171.919921875 m 1,4,-1
 1470.08007812 467.120117188 l 1,5,-1
 585.919921875 467.120117188 l 1,6,-1
 585.919921875 171.919921875 l 1,7,-1
 1470.08007812 171.919921875 l 1,4,-1
1470.08007812 761.599609375 m 1,8,-1
 1470.08007812 1056.79980469 l 1,9,-1
 585.919921875 1056.79980469 l 1,10,-1
 585.919921875 761.599609375 l 1,11,-1
 1470.08007812 761.599609375 l 1,8,-1
EndSplineSet
EndChar

StartChar: nine
Encoding: 57 57 26
Width: 2056
VWidth: 1646
GlyphClass: 2
Flags: W
LayerCount: 2
Fore
SplineSet
290.719726562 1351.28027344 m 1,0,-1
 1765.28027344 1351.28027344 l 1,1,-1
 1765.28027344 -123.280273438 l 1,2,-1
 290.719726562 -123.280273438 l 1,3,-1
 290.719726562 171.919921875 l 1,4,-1
 1470.08007812 171.919921875 l 1,5,-1
 1470.08007812 467.120117188 l 1,6,-1
 290.719726562 467.120117188 l 1,7,-1
 290.719726562 1351.28027344 l 1,0,-1
1470.08007812 761.599609375 m 1,8,-1
 1470.08007812 1056.79980469 l 1,9,-1
 585.919921875 1056.79980469 l 1,10,-1
 585.919921875 761.599609375 l 1,11,-1
 1470.08007812 761.599609375 l 1,8,-1
EndSplineSet
EndChar

StartChar: colon
Encoding: 58 58 27
Width: 2056
VWidth: 1646
GlyphClass: 2
Flags: W
LayerCount: 2
Fore
SplineSet
1175.59960938 172.059570312 m 1,0,-1
 880.400390625 172.059570312 l 1,1,-1
 880.400390625 466.540039062 l 1,2,-1
 1175.59960938 466.540039062 l 1,3,-1
 1175.59960938 172.059570312 l 1,0,-1
1175.59960938 761.740234375 m 1,4,-1
 880.400390625 761.740234375 l 1,5,-1
 880.400390625 1056.94042969 l 1,6,-1
 1175.59960938 1056.94042969 l 1,7,-1
 1175.59960938 761.740234375 l 1,4,-1
EndSplineSet
EndChar

StartChar: semicolon
Encoding: 59 59 28
Width: 2056
VWidth: 1589
GlyphClass: 2
Flags: W
LayerCount: 2
Fore
SplineSet
1175.59960938 704.33984375 m 1,0,-1
 880.400390625 704.33984375 l 1,1,-1
 880.400390625 999.540039062 l 1,2,-1
 1175.59960938 999.540039062 l 1,3,-1
 1175.59960938 704.33984375 l 1,0,-1
880.400390625 409.139648438 m 1,4,-1
 1175.59960938 409.139648438 l 1,5,-1
 1175.59960938 -180.540039062 l 1,6,-1
 880.400390625 -180.540039062 l 1,7,-1
 880.400390625 409.139648438 l 1,4,-1
EndSplineSet
EndChar

StartChar: less
Encoding: 60 60 29
Width: 2056
VWidth: 1646
GlyphClass: 2
Flags: W
LayerCount: 2
Fore
SplineSet
1175.59960938 171.919921875 m 1,0,-1
 585.919921875 171.919921875 l 1,1,-1
 585.919921875 467.120117188 l 1,2,-1
 1175.59960938 467.120117188 l 1,3,-1
 1175.59960938 171.919921875 l 1,0,-1
1765.28027344 -123.280273438 m 1,4,-1
 1175.59960938 -123.280273438 l 1,5,-1
 1175.59960938 171.919921875 l 1,6,-1
 1765.28027344 171.919921875 l 1,7,-1
 1765.28027344 -123.280273438 l 1,4,-1
1765.28027344 1351.28027344 m 1,8,-1
 1765.28027344 1056.79980469 l 1,9,-1
 1175.59960938 1056.79980469 l 1,10,-1
 1175.59960938 1351.28027344 l 1,11,-1
 1765.28027344 1351.28027344 l 1,8,-1
1175.59960938 1056.79980469 m 1,12,-1
 1175.59960938 761.599609375 l 1,13,-1
 585.919921875 761.599609375 l 1,14,-1
 585.919921875 1056.79980469 l 1,15,-1
 1175.59960938 1056.79980469 l 1,12,-1
290.719726562 761.599609375 m 1,16,-1
 585.919921875 761.599609375 l 1,17,-1
 585.919921875 467.120117188 l 1,18,-1
 290.719726562 467.120117188 l 1,19,-1
 290.719726562 761.599609375 l 1,16,-1
EndSplineSet
EndChar

StartChar: equal
Encoding: 61 61 30
Width: 2056
VWidth: 1646
GlyphClass: 2
Flags: W
LayerCount: 2
Fore
SplineSet
290.719726562 172.059570312 m 1,0,-1
 290.719726562 467.259765625 l 1,1,-1
 1765.28027344 467.259765625 l 1,2,-1
 1765.28027344 172.059570312 l 1,3,-1
 290.719726562 172.059570312 l 1,0,-1
290.719726562 761.740234375 m 1,4,-1
 290.719726562 1056.94042969 l 1,5,-1
 1765.28027344 1056.94042969 l 1,6,-1
 1765.28027344 761.740234375 l 1,7,-1
 290.719726562 761.740234375 l 1,4,-1
EndSplineSet
EndChar

StartChar: greater
Encoding: 62 62 31
Width: 2056
VWidth: 1646
GlyphClass: 2
Flags: W
LayerCount: 2
Fore
SplineSet
880.400390625 171.919921875 m 1,0,-1
 880.400390625 467.120117188 l 1,1,-1
 1470.08007812 467.120117188 l 1,2,-1
 1470.08007812 171.919921875 l 1,3,-1
 880.400390625 171.919921875 l 1,0,-1
880.400390625 -123.280273438 m 1,4,-1
 290.719726562 -123.280273438 l 1,5,-1
 290.719726562 171.919921875 l 1,6,-1
 880.400390625 171.919921875 l 1,7,-1
 880.400390625 -123.280273438 l 1,4,-1
290.719726562 1056.79980469 m 1,8,-1
 290.719726562 1351.28027344 l 1,9,-1
 880.400390625 1351.28027344 l 1,10,-1
 880.400390625 1056.79980469 l 1,11,-1
 290.719726562 1056.79980469 l 1,8,-1
880.400390625 761.599609375 m 1,12,-1
 880.400390625 1056.79980469 l 1,13,-1
 1470.08007812 1056.79980469 l 1,14,-1
 1470.08007812 761.599609375 l 1,15,-1
 880.400390625 761.599609375 l 1,12,-1
1470.08007812 761.599609375 m 1,16,-1
 1765.28027344 761.599609375 l 1,17,-1
 1765.28027344 467.120117188 l 1,18,-1
 1470.08007812 467.120117188 l 1,19,-1
 1470.08007812 761.599609375 l 1,16,-1
EndSplineSet
EndChar

StartChar: question
Encoding: 63 63 32
Width: 2056
VWidth: 1646
GlyphClass: 2
Flags: W
LayerCount: 2
Fore
SplineSet
880.400390625 761.599609375 m 1,0,-1
 1175.59960938 761.599609375 l 1,1,-1
 1175.59960938 467.120117188 l 1,2,-1
 880.400390625 467.120117188 l 1,3,-1
 880.400390625 761.599609375 l 1,0,-1
1175.59960938 171.200195312 m 1,4,-1
 1175.59960938 -123.280273438 l 1,5,-1
 880.400390625 -123.280273438 l 1,6,-1
 880.400390625 171.200195312 l 1,7,-1
 1175.59960938 171.200195312 l 1,4,-1
1470.08007812 761.599609375 m 1,8,-1
 1175.59960938 761.599609375 l 1,9,-1
 1175.59960938 1056.79980469 l 1,10,-1
 585.919921875 1056.79980469 l 1,11,-1
 585.919921875 1351.28027344 l 1,12,-1
 1470.08007812 1351.28027344 l 1,13,-1
 1470.08007812 761.599609375 l 1,8,-1
EndSplineSet
EndChar

StartChar: at
Encoding: 64 64 33
Width: 2056
VWidth: 1646
GlyphClass: 2
Flags: W
LayerCount: 2
Fore
SplineSet
880.400390625 -123.280273438 m 1,0,-1
 585.919921875 -123.280273438 l 1,1,-1
 585.919921875 171.919921875 l 1,2,-1
 880.400390625 171.919921875 l 1,3,-1
 880.400390625 -123.280273438 l 1,0,-1
880.400390625 761.599609375 m 1,4,-1
 1175.59960938 761.599609375 l 1,5,-1
 1175.59960938 467.120117188 l 1,6,-1
 880.400390625 467.120117188 l 1,7,-1
 880.400390625 761.599609375 l 1,4,-1
290.719726562 171.919921875 m 1,8,-1
 290.719726562 1056.79980469 l 1,9,-1
 585.919921875 1056.79980469 l 1,10,-1
 585.919921875 171.919921875 l 1,11,-1
 290.719726562 171.919921875 l 1,8,-1
1470.08007812 1056.79980469 m 1,12,-1
 1765.28027344 1056.79980469 l 1,13,-1
 1765.28027344 171.919921875 l 1,14,-1
 1175.59960938 171.919921875 l 1,15,-1
 1175.59960938 467.120117188 l 1,16,-1
 1470.08007812 467.120117188 l 1,17,-1
 1470.08007812 1056.79980469 l 1,12,-1
585.919921875 1351.28027344 m 1,18,-1
 1470.08007812 1351.28027344 l 1,19,-1
 1470.08007812 1056.79980469 l 1,20,-1
 585.919921875 1056.79980469 l 1,21,-1
 585.919921875 1351.28027344 l 1,18,-1
EndSplineSet
EndChar

StartChar: A
Encoding: 65 65 34
Width: 2056
VWidth: 1646
GlyphClass: 2
Flags: W
LayerCount: 2
Fore
SplineSet
1470.08007812 1351.28027344 m 1,0,-1
 1470.08007812 1056.79980469 l 1,1,-1
 585.919921875 1056.79980469 l 1,2,-1
 585.919921875 1351.28027344 l 1,3,-1
 1470.08007812 1351.28027344 l 1,0,-1
1470.08007812 1056.79980469 m 1,4,-1
 1765.28027344 1056.79980469 l 1,5,-1
 1765.28027344 -123.280273438 l 1,6,-1
 1470.08007812 -123.280273438 l 1,7,-1
 1470.08007812 171.919921875 l 1,8,-1
 585.919921875 171.919921875 l 1,9,-1
 585.919921875 -123.280273438 l 1,10,-1
 290.719726562 -123.280273438 l 1,11,-1
 290.719726562 1056.79980469 l 1,12,-1
 585.919921875 1056.79980469 l 1,13,-1
 585.919921875 467.120117188 l 1,14,-1
 1470.08007812 467.120117188 l 1,15,-1
 1470.08007812 1056.79980469 l 1,4,-1
EndSplineSet
EndChar

StartChar: B
Encoding: 66 66 35
Width: 2056
VWidth: 1646
GlyphClass: 2
Flags: W
LayerCount: 2
Fore
SplineSet
1765.28027344 171.919921875 m 1,0,-1
 1470.08007812 171.919921875 l 1,1,-1
 1470.08007812 467.120117188 l 1,2,-1
 1765.28027344 467.120117188 l 1,3,-1
 1765.28027344 171.919921875 l 1,0,-1
585.919921875 761.599609375 m 1,4,-1
 1470.08007812 761.599609375 l 1,5,-1
 1470.08007812 467.120117188 l 1,6,-1
 585.919921875 467.120117188 l 1,7,-1
 585.919921875 171.919921875 l 1,8,-1
 1470.08007812 171.919921875 l 1,9,-1
 1470.08007812 -123.280273438 l 1,10,-1
 290.719726562 -123.280273438 l 1,11,-1
 290.719726562 1351.28027344 l 1,12,-1
 1470.08007812 1351.28027344 l 1,13,-1
 1470.08007812 1056.79980469 l 1,14,-1
 585.919921875 1056.79980469 l 1,15,-1
 585.919921875 761.599609375 l 1,4,-1
1765.28027344 761.599609375 m 1,16,-1
 1470.08007812 761.599609375 l 1,17,-1
 1470.08007812 1056.79980469 l 1,18,-1
 1765.28027344 1056.79980469 l 1,19,-1
 1765.28027344 761.599609375 l 1,16,-1
EndSplineSet
EndChar

StartChar: C
Encoding: 67 67 36
Width: 2056
VWidth: 1646
GlyphClass: 2
Flags: W
LayerCount: 2
Fore
SplineSet
1765.28027344 -123.280273438 m 1,0,-1
 585.919921875 -123.280273438 l 1,1,-1
 585.919921875 171.919921875 l 1,2,-1
 1765.28027344 171.919921875 l 1,3,-1
 1765.28027344 -123.280273438 l 1,0,-1
290.719726562 1056.79980469 m 1,4,-1
 585.919921875 1056.79980469 l 1,5,-1
 585.919921875 171.919921875 l 1,6,-1
 290.719726562 171.919921875 l 1,7,-1
 290.719726562 1056.79980469 l 1,4,-1
1765.28027344 1351.28027344 m 1,8,-1
 1765.28027344 1056.79980469 l 1,9,-1
 585.919921875 1056.79980469 l 1,10,-1
 585.919921875 1351.28027344 l 1,11,-1
 1765.28027344 1351.28027344 l 1,8,-1
EndSplineSet
EndChar

StartChar: D
Encoding: 68 68 37
Width: 2056
VWidth: 1646
GlyphClass: 2
Flags: W
LayerCount: 2
Fore
SplineSet
585.919921875 1056.79980469 m 1,0,-1
 585.919921875 171.919921875 l 1,1,-1
 1470.08007812 171.919921875 l 1,2,-1
 1470.08007812 -123.280273438 l 1,3,-1
 290.719726562 -123.280273438 l 1,4,-1
 290.719726562 1351.28027344 l 1,5,-1
 1470.08007812 1351.28027344 l 1,6,-1
 1470.08007812 1056.79980469 l 1,7,-1
 585.919921875 1056.79980469 l 1,0,-1
1470.08007812 1056.79980469 m 1,8,-1
 1765.28027344 1056.79980469 l 1,9,-1
 1765.28027344 171.919921875 l 1,10,-1
 1470.08007812 171.919921875 l 1,11,-1
 1470.08007812 1056.79980469 l 1,8,-1
EndSplineSet
EndChar

StartChar: E
Encoding: 69 69 38
Width: 2056
VWidth: 1646
GlyphClass: 2
Flags: W
LayerCount: 2
Fore
SplineSet
1765.28027344 1056.79980469 m 1,0,-1
 585.919921875 1056.79980469 l 1,1,-1
 585.919921875 761.599609375 l 1,2,-1
 1470.08007812 761.599609375 l 1,3,-1
 1470.08007812 467.120117188 l 1,4,-1
 585.919921875 467.120117188 l 1,5,-1
 585.919921875 171.919921875 l 1,6,-1
 1765.28027344 171.919921875 l 1,7,-1
 1765.28027344 -123.280273438 l 1,8,-1
 290.719726562 -123.280273438 l 1,9,-1
 290.719726562 1351.28027344 l 1,10,-1
 1765.28027344 1351.28027344 l 1,11,-1
 1765.28027344 1056.79980469 l 1,0,-1
EndSplineSet
EndChar

StartChar: F
Encoding: 70 70 39
Width: 2056
VWidth: 1646
GlyphClass: 2
Flags: W
LayerCount: 2
Fore
SplineSet
290.719726562 1351.28027344 m 1,0,-1
 1765.28027344 1351.28027344 l 1,1,-1
 1765.28027344 1056.79980469 l 1,2,-1
 585.919921875 1056.79980469 l 1,3,-1
 585.919921875 761.599609375 l 1,4,-1
 1470.08007812 761.599609375 l 1,5,-1
 1470.08007812 467.120117188 l 1,6,-1
 585.919921875 467.120117188 l 1,7,-1
 585.919921875 -123.280273438 l 1,8,-1
 290.719726562 -123.280273438 l 1,9,-1
 290.719726562 1351.28027344 l 1,0,-1
EndSplineSet
EndChar

StartChar: G
Encoding: 71 71 40
Width: 2056
VWidth: 1646
GlyphClass: 2
Flags: W
LayerCount: 2
Fore
SplineSet
290.719726562 1056.79980469 m 1,0,-1
 585.919921875 1056.79980469 l 1,1,-1
 585.919921875 171.919921875 l 1,2,-1
 290.719726562 171.919921875 l 1,3,-1
 290.719726562 1056.79980469 l 1,0,-1
1765.28027344 -123.280273438 m 1,4,-1
 585.919921875 -123.280273438 l 1,5,-1
 585.919921875 171.919921875 l 1,6,-1
 1470.08007812 171.919921875 l 1,7,-1
 1470.08007812 467.120117188 l 1,8,-1
 880.400390625 467.120117188 l 1,9,-1
 880.400390625 761.599609375 l 1,10,-1
 1765.28027344 761.599609375 l 1,11,-1
 1765.28027344 -123.280273438 l 1,4,-1
1765.28027344 1351.28027344 m 1,12,-1
 1765.28027344 1056.79980469 l 1,13,-1
 585.919921875 1056.79980469 l 1,14,-1
 585.919921875 1351.28027344 l 1,15,-1
 1765.28027344 1351.28027344 l 1,12,-1
EndSplineSet
EndChar

StartChar: H
Encoding: 72 72 41
Width: 2056
VWidth: 1646
GlyphClass: 2
Flags: W
LayerCount: 2
Fore
SplineSet
1470.08007812 1351.28027344 m 1,0,-1
 1765.28027344 1351.28027344 l 1,1,-1
 1765.28027344 -123.280273438 l 1,2,-1
 1470.08007812 -123.280273438 l 1,3,-1
 1470.08007812 467.120117188 l 1,4,-1
 585.919921875 467.120117188 l 1,5,-1
 585.919921875 -123.280273438 l 1,6,-1
 290.719726562 -123.280273438 l 1,7,-1
 290.719726562 1351.28027344 l 1,8,-1
 585.919921875 1351.28027344 l 1,9,-1
 585.919921875 761.599609375 l 1,10,-1
 1470.08007812 761.599609375 l 1,11,-1
 1470.08007812 1351.28027344 l 1,0,-1
EndSplineSet
EndChar

StartChar: I
Encoding: 73 73 42
Width: 2056
VWidth: 1646
GlyphClass: 2
Flags: W
LayerCount: 2
Fore
SplineSet
1175.59960938 1056.79980469 m 1,0,-1
 1175.59960938 171.919921875 l 1,1,-1
 1765.28027344 171.919921875 l 1,2,-1
 1765.28027344 -123.280273438 l 1,3,-1
 290.719726562 -123.280273438 l 1,4,-1
 290.719726562 171.919921875 l 1,5,-1
 880.400390625 171.919921875 l 1,6,-1
 880.400390625 1056.79980469 l 1,7,-1
 290.719726562 1056.79980469 l 1,8,-1
 290.719726562 1351.28027344 l 1,9,-1
 1765.28027344 1351.28027344 l 1,10,-1
 1765.28027344 1056.79980469 l 1,11,-1
 1175.59960938 1056.79980469 l 1,0,-1
EndSplineSet
EndChar

StartChar: J
Encoding: 74 74 43
Width: 2056
VWidth: 1646
GlyphClass: 2
Flags: W
LayerCount: 2
Fore
SplineSet
290.719726562 761.599609375 m 1,0,-1
 585.919921875 761.599609375 l 1,1,-1
 585.919921875 171.919921875 l 1,2,-1
 290.719726562 171.919921875 l 1,3,-1
 290.719726562 761.599609375 l 1,0,-1
1470.08007812 1351.28027344 m 1,4,-1
 1765.28027344 1351.28027344 l 1,5,-1
 1765.28027344 171.919921875 l 1,6,-1
 1470.08007812 171.919921875 l 1,7,-1
 1470.08007812 1351.28027344 l 1,4,-1
585.919921875 -123.280273438 m 1,8,-1
 585.919921875 171.919921875 l 1,9,-1
 1470.08007812 171.919921875 l 1,10,-1
 1470.08007812 -123.280273438 l 1,11,-1
 585.919921875 -123.280273438 l 1,8,-1
EndSplineSet
EndChar

StartChar: K
Encoding: 75 75 44
Width: 2056
VWidth: 1646
GlyphClass: 2
Flags: W
LayerCount: 2
Fore
SplineSet
585.919921875 761.599609375 m 1,0,-1
 1175.59960938 761.599609375 l 1,1,-1
 1175.59960938 467.120117188 l 1,2,-1
 585.919921875 467.120117188 l 1,3,-1
 585.919921875 -123.280273438 l 1,4,-1
 290.719726562 -123.280273438 l 1,5,-1
 290.719726562 1351.28027344 l 1,6,-1
 585.919921875 1351.28027344 l 1,7,-1
 585.919921875 761.599609375 l 1,0,-1
1470.08007812 171.919921875 m 1,8,-1
 1175.59960938 171.919921875 l 1,9,-1
 1175.59960938 467.120117188 l 1,10,-1
 1470.08007812 467.120117188 l 1,11,-1
 1470.08007812 171.919921875 l 1,8,-1
1765.28027344 -123.280273438 m 1,12,-1
 1470.08007812 -123.280273438 l 1,13,-1
 1470.08007812 171.919921875 l 1,14,-1
 1765.28027344 171.919921875 l 1,15,-1
 1765.28027344 -123.280273438 l 1,12,-1
1765.28027344 1351.28027344 m 1,16,-1
 1765.28027344 1056.79980469 l 1,17,-1
 1470.08007812 1056.79980469 l 1,18,-1
 1470.08007812 1351.28027344 l 1,19,-1
 1765.28027344 1351.28027344 l 1,16,-1
1470.08007812 1056.79980469 m 1,20,-1
 1470.08007812 761.599609375 l 1,21,-1
 1175.59960938 761.599609375 l 1,22,-1
 1175.59960938 1056.79980469 l 1,23,-1
 1470.08007812 1056.79980469 l 1,20,-1
EndSplineSet
EndChar

StartChar: L
Encoding: 76 76 45
Width: 2056
VWidth: 1646
GlyphClass: 2
Flags: W
LayerCount: 2
Fore
SplineSet
585.919921875 171.919921875 m 1,0,-1
 1765.28027344 171.919921875 l 1,1,-1
 1765.28027344 -123.280273438 l 1,2,-1
 290.719726562 -123.280273438 l 1,3,-1
 290.719726562 1351.28027344 l 1,4,-1
 585.919921875 1351.28027344 l 1,5,-1
 585.919921875 171.919921875 l 1,0,-1
EndSplineSet
EndChar

StartChar: M
Encoding: 77 77 46
Width: 2056
VWidth: 1646
GlyphClass: 2
Flags: W
LayerCount: 2
Fore
SplineSet
878.959960938 174.799804688 m 1,0,-1
 878.959960938 763.040039062 l 1,1,-1
 1172.71972656 763.040039062 l 1,2,-1
 1172.71972656 174.799804688 l 1,3,-1
 878.959960938 174.799804688 l 1,0,-1
1471.51953125 1351.28027344 m 1,4,-1
 1765.28027344 1351.28027344 l 1,5,-1
 1765.28027344 -123.280273438 l 1,6,-1
 1471.51953125 -123.280273438 l 1,7,-1
 1471.51953125 763.040039062 l 1,8,-1
 1172.71972656 763.040039062 l 1,9,-1
 1172.71972656 1058.24023438 l 1,10,-1
 1471.51953125 1058.24023438 l 1,11,-1
 1471.51953125 1351.28027344 l 1,4,-1
584.48046875 1058.24023438 m 1,12,-1
 878.959960938 1058.24023438 l 1,13,-1
 878.959960938 763.040039062 l 1,14,-1
 584.48046875 763.040039062 l 1,15,-1
 584.48046875 -123.280273438 l 1,16,-1
 290.719726562 -123.280273438 l 1,17,-1
 290.719726562 1351.28027344 l 1,18,-1
 584.48046875 1351.28027344 l 1,19,-1
 584.48046875 1058.24023438 l 1,12,-1
EndSplineSet
EndChar

StartChar: N
Encoding: 78 78 47
Width: 2056
VWidth: 1646
GlyphClass: 2
Flags: W
LayerCount: 2
Fore
SplineSet
1470.08007812 1351.28027344 m 1,0,-1
 1765.28027344 1351.28027344 l 1,1,-1
 1765.28027344 -123.280273438 l 1,2,-1
 1470.08007812 -123.280273438 l 1,3,-1
 1470.08007812 171.919921875 l 1,4,-1
 1175.59960938 171.919921875 l 1,5,-1
 1175.59960938 467.120117188 l 1,6,-1
 1470.08007812 467.120117188 l 1,7,-1
 1470.08007812 1351.28027344 l 1,0,-1
585.919921875 1056.79980469 m 1,8,-1
 880.400390625 1056.79980469 l 1,9,-1
 880.400390625 761.599609375 l 1,10,-1
 585.919921875 761.599609375 l 1,11,-1
 585.919921875 -123.280273438 l 1,12,-1
 290.719726562 -123.280273438 l 1,13,-1
 290.719726562 1351.28027344 l 1,14,-1
 585.919921875 1351.28027344 l 1,15,-1
 585.919921875 1056.79980469 l 1,8,-1
880.400390625 761.599609375 m 1,16,-1
 1175.59960938 761.599609375 l 1,17,-1
 1175.59960938 467.120117188 l 1,18,-1
 880.400390625 467.120117188 l 1,19,-1
 880.400390625 761.599609375 l 1,16,-1
EndSplineSet
EndChar

StartChar: O
Encoding: 79 79 48
Width: 2056
VWidth: 1646
GlyphClass: 2
Flags: W
LayerCount: 2
Fore
SplineSet
290.719726562 1056.79980469 m 1,0,-1
 585.919921875 1056.79980469 l 1,1,-1
 585.919921875 171.919921875 l 1,2,-1
 290.719726562 171.919921875 l 1,3,-1
 290.719726562 1056.79980469 l 1,0,-1
1470.08007812 1351.28027344 m 1,4,-1
 1470.08007812 1056.79980469 l 1,5,-1
 585.919921875 1056.79980469 l 1,6,-1
 585.919921875 1351.28027344 l 1,7,-1
 1470.08007812 1351.28027344 l 1,4,-1
585.919921875 -123.280273438 m 1,8,-1
 585.919921875 171.919921875 l 1,9,-1
 1470.08007812 171.919921875 l 1,10,-1
 1470.08007812 -123.280273438 l 1,11,-1
 585.919921875 -123.280273438 l 1,8,-1
1470.08007812 1056.79980469 m 1,12,-1
 1765.28027344 1056.79980469 l 1,13,-1
 1765.28027344 171.919921875 l 1,14,-1
 1470.08007812 171.919921875 l 1,15,-1
 1470.08007812 1056.79980469 l 1,12,-1
EndSplineSet
EndChar

StartChar: P
Encoding: 80 80 49
Width: 2056
VWidth: 1646
GlyphClass: 2
Flags: W
LayerCount: 2
Fore
SplineSet
585.919921875 1056.79980469 m 1,0,-1
 585.919921875 761.599609375 l 1,1,-1
 1470.08007812 761.599609375 l 1,2,-1
 1470.08007812 467.120117188 l 1,3,-1
 585.919921875 467.120117188 l 1,4,-1
 585.919921875 -123.280273438 l 1,5,-1
 290.719726562 -123.280273438 l 1,6,-1
 290.719726562 1351.28027344 l 1,7,-1
 1470.08007812 1351.28027344 l 1,8,-1
 1470.08007812 1056.79980469 l 1,9,-1
 585.919921875 1056.79980469 l 1,0,-1
1470.08007812 1056.79980469 m 1,10,-1
 1765.28027344 1056.79980469 l 1,11,-1
 1765.28027344 761.599609375 l 1,12,-1
 1470.08007812 761.599609375 l 1,13,-1
 1470.08007812 1056.79980469 l 1,10,-1
EndSplineSet
EndChar

StartChar: Q
Encoding: 81 81 50
Width: 2056
VWidth: 1646
GlyphClass: 2
Flags: W
LayerCount: 2
Fore
SplineSet
290.719726562 1056.79980469 m 1,0,-1
 585.919921875 1056.79980469 l 1,1,-1
 585.919921875 171.919921875 l 1,2,-1
 290.719726562 171.919921875 l 1,3,-1
 290.719726562 1056.79980469 l 1,0,-1
1470.08007812 1351.28027344 m 1,4,-1
 1470.08007812 1056.79980469 l 1,5,-1
 585.919921875 1056.79980469 l 1,6,-1
 585.919921875 1351.28027344 l 1,7,-1
 1470.08007812 1351.28027344 l 1,4,-1
1765.28027344 -123.280273438 m 1,8,-1
 1470.08007812 -123.280273438 l 1,9,-1
 1470.08007812 171.919921875 l 1,10,-1
 1765.28027344 171.919921875 l 1,11,-1
 1765.28027344 -123.280273438 l 1,8,-1
1175.59960938 467.120117188 m 1,12,-1
 1470.08007812 467.120117188 l 1,13,-1
 1470.08007812 171.919921875 l 1,14,-1
 1175.59960938 171.919921875 l 1,15,-1
 1175.59960938 467.120117188 l 1,12,-1
585.919921875 -123.280273438 m 1,16,-1
 585.919921875 171.919921875 l 1,17,-1
 1175.59960938 171.919921875 l 1,18,-1
 1175.59960938 -123.280273438 l 1,19,-1
 585.919921875 -123.280273438 l 1,16,-1
1765.28027344 467.120117188 m 1,20,-1
 1470.08007812 467.120117188 l 1,21,-1
 1470.08007812 1056.79980469 l 1,22,-1
 1765.28027344 1056.79980469 l 1,23,-1
 1765.28027344 467.120117188 l 1,20,-1
EndSplineSet
EndChar

StartChar: R
Encoding: 82 82 51
Width: 2056
VWidth: 1646
GlyphClass: 2
Flags: W
LayerCount: 2
Fore
SplineSet
1470.08007812 1056.79980469 m 1,0,-1
 1765.28027344 1056.79980469 l 1,1,-1
 1765.28027344 761.599609375 l 1,2,-1
 1470.08007812 761.599609375 l 1,3,-1
 1470.08007812 1056.79980469 l 1,0,-1
1765.28027344 -123.280273438 m 1,4,-1
 1470.08007812 -123.280273438 l 1,5,-1
 1470.08007812 171.919921875 l 1,6,-1
 1765.28027344 171.919921875 l 1,7,-1
 1765.28027344 -123.280273438 l 1,4,-1
1175.59960938 467.120117188 m 1,8,-1
 585.919921875 467.120117188 l 1,9,-1
 585.919921875 -123.280273438 l 1,10,-1
 290.719726562 -123.280273438 l 1,11,-1
 290.719726562 1351.28027344 l 1,12,-1
 1470.08007812 1351.28027344 l 1,13,-1
 1470.08007812 1056.79980469 l 1,14,-1
 585.919921875 1056.79980469 l 1,15,-1
 585.919921875 761.599609375 l 1,16,-1
 1470.08007812 761.599609375 l 1,17,-1
 1470.08007812 171.919921875 l 1,18,-1
 1175.59960938 171.919921875 l 1,19,-1
 1175.59960938 467.120117188 l 1,8,-1
EndSplineSet
EndChar

StartChar: S
Encoding: 83 83 52
Width: 2056
VWidth: 1646
GlyphClass: 2
Flags: W
LayerCount: 2
Fore
SplineSet
1765.28027344 171.919921875 m 1,0,-1
 1470.08007812 171.919921875 l 1,1,-1
 1470.08007812 467.120117188 l 1,2,-1
 1765.28027344 467.120117188 l 1,3,-1
 1765.28027344 171.919921875 l 1,0,-1
290.719726562 -123.280273438 m 1,4,-1
 290.719726562 171.919921875 l 1,5,-1
 1470.08007812 171.919921875 l 1,6,-1
 1470.08007812 -123.280273438 l 1,7,-1
 290.719726562 -123.280273438 l 1,4,-1
1470.08007812 467.120117188 m 1,8,-1
 585.919921875 467.120117188 l 1,9,-1
 585.919921875 761.599609375 l 1,10,-1
 1470.08007812 761.599609375 l 1,11,-1
 1470.08007812 467.120117188 l 1,8,-1
1765.28027344 1351.28027344 m 1,12,-1
 1765.28027344 1056.79980469 l 1,13,-1
 585.919921875 1056.79980469 l 1,14,-1
 585.919921875 1351.28027344 l 1,15,-1
 1765.28027344 1351.28027344 l 1,12,-1
290.719726562 1056.79980469 m 1,16,-1
 585.919921875 1056.79980469 l 1,17,-1
 585.919921875 761.599609375 l 1,18,-1
 290.719726562 761.599609375 l 1,19,-1
 290.719726562 1056.79980469 l 1,16,-1
EndSplineSet
EndChar

StartChar: T
Encoding: 84 84 53
Width: 2056
VWidth: 1646
GlyphClass: 2
Flags: W
LayerCount: 2
Fore
SplineSet
290.719726562 1351.28027344 m 1,0,-1
 1765.28027344 1351.28027344 l 1,1,-1
 1765.28027344 1056.79980469 l 1,2,-1
 1175.59960938 1056.79980469 l 1,3,-1
 1175.59960938 -123.280273438 l 1,4,-1
 880.400390625 -123.280273438 l 1,5,-1
 880.400390625 1056.79980469 l 1,6,-1
 290.719726562 1056.79980469 l 1,7,-1
 290.719726562 1351.28027344 l 1,0,-1
EndSplineSet
EndChar

StartChar: U
Encoding: 85 85 54
Width: 2056
VWidth: 1646
GlyphClass: 2
Flags: W
LayerCount: 2
Fore
SplineSet
290.719726562 1351.28027344 m 1,0,-1
 585.919921875 1351.28027344 l 1,1,-1
 585.919921875 171.919921875 l 1,2,-1
 290.719726562 171.919921875 l 1,3,-1
 290.719726562 1351.28027344 l 1,0,-1
585.919921875 -123.280273438 m 1,4,-1
 585.919921875 171.919921875 l 1,5,-1
 1470.08007812 171.919921875 l 1,6,-1
 1470.08007812 -123.280273438 l 1,7,-1
 585.919921875 -123.280273438 l 1,4,-1
1470.08007812 1351.28027344 m 1,8,-1
 1765.28027344 1351.28027344 l 1,9,-1
 1765.28027344 171.919921875 l 1,10,-1
 1470.08007812 171.919921875 l 1,11,-1
 1470.08007812 1351.28027344 l 1,8,-1
EndSplineSet
EndChar

StartChar: V
Encoding: 86 86 55
Width: 2056
VWidth: 1646
GlyphClass: 2
Flags: W
LayerCount: 2
Fore
SplineSet
880.400390625 -123.280273438 m 1,0,-1
 880.400390625 171.919921875 l 1,1,-1
 1175.59960938 171.919921875 l 1,2,-1
 1175.59960938 -123.280273438 l 1,3,-1
 880.400390625 -123.280273438 l 1,0,-1
290.719726562 1351.28027344 m 1,4,-1
 585.919921875 1351.28027344 l 1,5,-1
 585.919921875 467.120117188 l 1,6,-1
 290.719726562 467.120117188 l 1,7,-1
 290.719726562 1351.28027344 l 1,4,-1
1470.08007812 1351.28027344 m 1,8,-1
 1765.28027344 1351.28027344 l 1,9,-1
 1765.28027344 467.120117188 l 1,10,-1
 1470.08007812 467.120117188 l 1,11,-1
 1470.08007812 1351.28027344 l 1,8,-1
1175.59960938 171.919921875 m 1,12,-1
 1175.59960938 467.120117188 l 1,13,-1
 1470.08007812 467.120117188 l 1,14,-1
 1470.08007812 171.919921875 l 1,15,-1
 1175.59960938 171.919921875 l 1,12,-1
585.919921875 467.120117188 m 1,16,-1
 880.400390625 467.120117188 l 1,17,-1
 880.400390625 171.919921875 l 1,18,-1
 585.919921875 171.919921875 l 1,19,-1
 585.919921875 467.120117188 l 1,16,-1
EndSplineSet
EndChar

StartChar: W
Encoding: 87 87 56
Width: 2056
VWidth: 1646
GlyphClass: 2
Flags: W
LayerCount: 2
Fore
SplineSet
1175.59960938 1056.79980469 m 1,0,-1
 1175.59960938 171.919921875 l 1,1,-1
 1470.08007812 171.919921875 l 1,2,-1
 1470.08007812 -123.280273438 l 1,3,-1
 585.919921875 -123.280273438 l 1,4,-1
 585.919921875 171.919921875 l 1,5,-1
 880.400390625 171.919921875 l 1,6,-1
 880.400390625 1056.79980469 l 1,7,-1
 1175.59960938 1056.79980469 l 1,0,-1
290.719726562 1351.28027344 m 1,8,-1
 585.919921875 1351.28027344 l 1,9,-1
 585.919921875 171.919921875 l 1,10,-1
 290.719726562 171.919921875 l 1,11,-1
 290.719726562 1351.28027344 l 1,8,-1
1470.08007812 1351.28027344 m 1,12,-1
 1765.28027344 1351.28027344 l 1,13,-1
 1765.28027344 171.919921875 l 1,14,-1
 1470.08007812 171.919921875 l 1,15,-1
 1470.08007812 1351.28027344 l 1,12,-1
EndSplineSet
EndChar

StartChar: X
Encoding: 88 88 57
Width: 2056
VWidth: 1646
GlyphClass: 2
Flags: W
LayerCount: 2
Fore
SplineSet
290.719726562 -123.280273438 m 1,0,-1
 290.719726562 171.919921875 l 1,1,-1
 585.919921875 171.919921875 l 1,2,-1
 585.919921875 -123.280273438 l 1,3,-1
 290.719726562 -123.280273438 l 1,0,-1
290.719726562 1351.28027344 m 1,4,-1
 585.919921875 1351.28027344 l 1,5,-1
 585.919921875 1056.79980469 l 1,6,-1
 290.719726562 1056.79980469 l 1,7,-1
 290.719726562 1351.28027344 l 1,4,-1
1470.08007812 171.919921875 m 1,8,-1
 1175.59960938 171.919921875 l 1,9,-1
 1175.59960938 467.120117188 l 1,10,-1
 1470.08007812 467.120117188 l 1,11,-1
 1470.08007812 171.919921875 l 1,8,-1
1765.28027344 -123.280273438 m 1,12,-1
 1470.08007812 -123.280273438 l 1,13,-1
 1470.08007812 171.919921875 l 1,14,-1
 1765.28027344 171.919921875 l 1,15,-1
 1765.28027344 -123.280273438 l 1,12,-1
585.919921875 171.919921875 m 1,16,-1
 585.919921875 467.120117188 l 1,17,-1
 880.400390625 467.120117188 l 1,18,-1
 880.400390625 171.919921875 l 1,19,-1
 585.919921875 171.919921875 l 1,16,-1
1470.08007812 1056.79980469 m 1,20,-1
 1470.08007812 761.599609375 l 1,21,-1
 1175.59960938 761.599609375 l 1,22,-1
 1175.59960938 1056.79980469 l 1,23,-1
 1470.08007812 1056.79980469 l 1,20,-1
585.919921875 1056.79980469 m 1,24,-1
 880.400390625 1056.79980469 l 1,25,-1
 880.400390625 761.599609375 l 1,26,-1
 585.919921875 761.599609375 l 1,27,-1
 585.919921875 1056.79980469 l 1,24,-1
1765.28027344 1351.28027344 m 1,28,-1
 1765.28027344 1056.79980469 l 1,29,-1
 1470.08007812 1056.79980469 l 1,30,-1
 1470.08007812 1351.28027344 l 1,31,-1
 1765.28027344 1351.28027344 l 1,28,-1
880.400390625 761.599609375 m 1,32,-1
 1175.59960938 761.599609375 l 1,33,-1
 1175.59960938 467.120117188 l 1,34,-1
 880.400390625 467.120117188 l 1,35,-1
 880.400390625 761.599609375 l 1,32,-1
EndSplineSet
EndChar

StartChar: Y
Encoding: 89 89 58
Width: 2056
VWidth: 1646
GlyphClass: 2
Flags: W
LayerCount: 2
Fore
SplineSet
290.719726562 1351.28027344 m 1,0,-1
 585.919921875 1351.28027344 l 1,1,-1
 585.919921875 761.599609375 l 1,2,-1
 290.719726562 761.599609375 l 1,3,-1
 290.719726562 1351.28027344 l 1,0,-1
1470.08007812 1351.28027344 m 1,4,-1
 1765.28027344 1351.28027344 l 1,5,-1
 1765.28027344 761.599609375 l 1,6,-1
 1470.08007812 761.599609375 l 1,7,-1
 1470.08007812 1351.28027344 l 1,4,-1
585.919921875 467.120117188 m 1,8,-1
 585.919921875 761.599609375 l 1,9,-1
 1470.08007812 761.599609375 l 1,10,-1
 1470.08007812 467.120117188 l 1,11,-1
 1175.59960938 467.120117188 l 1,12,-1
 1175.59960938 -123.280273438 l 1,13,-1
 880.400390625 -123.280273438 l 1,14,-1
 880.400390625 467.120117188 l 1,15,-1
 585.919921875 467.120117188 l 1,8,-1
EndSplineSet
EndChar

StartChar: Z
Encoding: 90 90 59
Width: 2056
VWidth: 1646
GlyphClass: 2
Flags: W
LayerCount: 2
Fore
SplineSet
1470.08007812 1056.79980469 m 1,0,-1
 1470.08007812 761.599609375 l 1,1,-1
 1175.59960938 761.599609375 l 1,2,-1
 1175.59960938 1056.79980469 l 1,3,-1
 290.719726562 1056.79980469 l 1,4,-1
 290.719726562 1351.28027344 l 1,5,-1
 1765.28027344 1351.28027344 l 1,6,-1
 1765.28027344 1056.79980469 l 1,7,-1
 1470.08007812 1056.79980469 l 1,0,-1
585.919921875 467.120117188 m 1,8,-1
 880.400390625 467.120117188 l 1,9,-1
 880.400390625 171.919921875 l 1,10,-1
 1765.28027344 171.919921875 l 1,11,-1
 1765.28027344 -123.280273438 l 1,12,-1
 290.719726562 -123.280273438 l 1,13,-1
 290.719726562 171.919921875 l 1,14,-1
 585.919921875 171.919921875 l 1,15,-1
 585.919921875 467.120117188 l 1,8,-1
1175.59960938 761.599609375 m 1,16,-1
 1175.59960938 467.120117188 l 1,17,-1
 880.400390625 467.120117188 l 1,18,-1
 880.400390625 761.599609375 l 1,19,-1
 1175.59960938 761.599609375 l 1,16,-1
EndSplineSet
EndChar

StartChar: bracketleft
Encoding: 91 91 60
Width: 2056
VWidth: 1646
GlyphClass: 2
Flags: W
LayerCount: 2
Fore
SplineSet
1470.08007812 1351.28027344 m 1,0,-1
 1470.08007812 1056.79980469 l 1,1,-1
 880.400390625 1056.79980469 l 1,2,-1
 880.400390625 171.200195312 l 1,3,-1
 1175.59960938 171.200195312 l 1,4,-1
 1175.59960938 171.919921875 l 1,5,-1
 1470.08007812 171.919921875 l 1,6,-1
 1470.08007812 -123.280273438 l 1,7,-1
 585.919921875 -123.280273438 l 1,8,-1
 585.919921875 1351.28027344 l 1,9,-1
 1470.08007812 1351.28027344 l 1,0,-1
EndSplineSet
EndChar

StartChar: backslash
Encoding: 92 92 61
Width: 2056
VWidth: 1646
GlyphClass: 2
Flags: W
LayerCount: 2
Fore
SplineSet
1765.28027344 171.919921875 m 1,0,-1
 1765.28027344 -123.280273438 l 1,1,-1
 1470.08007812 -123.280273438 l 1,2,-1
 1470.08007812 171.919921875 l 1,3,-1
 1765.28027344 171.919921875 l 1,0,-1
1175.59960938 761.599609375 m 1,4,-1
 1175.59960938 467.120117188 l 1,5,-1
 880.400390625 467.120117188 l 1,6,-1
 880.400390625 761.599609375 l 1,7,-1
 1175.59960938 761.599609375 l 1,4,-1
1470.08007812 467.120117188 m 1,8,-1
 1470.08007812 171.919921875 l 1,9,-1
 1175.59960938 171.919921875 l 1,10,-1
 1175.59960938 467.120117188 l 1,11,-1
 1470.08007812 467.120117188 l 1,8,-1
290.719726562 1351.28027344 m 1,12,-1
 585.919921875 1351.28027344 l 1,13,-1
 585.919921875 1056.79980469 l 1,14,-1
 290.719726562 1056.79980469 l 1,15,-1
 290.719726562 1351.28027344 l 1,12,-1
880.400390625 1056.79980469 m 1,16,-1
 880.400390625 761.599609375 l 1,17,-1
 585.919921875 761.599609375 l 1,18,-1
 585.919921875 1056.79980469 l 1,19,-1
 880.400390625 1056.79980469 l 1,16,-1
EndSplineSet
EndChar

StartChar: bracketright
Encoding: 93 93 62
Width: 2056
VWidth: 1646
GlyphClass: 2
Flags: W
LayerCount: 2
Fore
SplineSet
1175.59960938 1056.79980469 m 1,0,-1
 585.919921875 1056.79980469 l 1,1,-1
 585.919921875 1351.28027344 l 1,2,-1
 1470.08007812 1351.28027344 l 1,3,-1
 1470.08007812 -123.280273438 l 1,4,-1
 585.919921875 -123.280273438 l 1,5,-1
 585.919921875 171.919921875 l 1,6,-1
 1175.59960938 171.919921875 l 1,7,-1
 1175.59960938 1056.79980469 l 1,0,-1
EndSplineSet
EndChar

StartChar: asciicircum
Encoding: 94 94 63
Width: 2056
VWidth: 1818
GlyphClass: 2
Flags: W
LayerCount: 2
Fore
SplineSet
1470.08007812 1228.86035156 m 1,0,-1
 1470.08007812 933.66015625 l 1,1,-1
 1175.59960938 933.66015625 l 1,2,-1
 1175.59960938 1228.86035156 l 1,3,-1
 1470.08007812 1228.86035156 l 1,0,-1
1175.59960938 1228.86035156 m 1,4,-1
 880.400390625 1228.86035156 l 1,5,-1
 880.400390625 1523.33984375 l 1,6,-1
 1175.59960938 1523.33984375 l 1,7,-1
 1175.59960938 1228.86035156 l 1,4,-1
585.919921875 1228.86035156 m 1,8,-1
 880.400390625 1228.86035156 l 1,9,-1
 880.400390625 933.66015625 l 1,10,-1
 585.919921875 933.66015625 l 1,11,-1
 585.919921875 1228.86035156 l 1,8,-1
EndSplineSet
EndChar

StartChar: underscore
Encoding: 95 95 64
Width: 2056
VWidth: 1417
GlyphClass: 2
Flags: W
LayerCount: 2
Fore
SplineSet
290.719726562 -57.400390625 m 1,0,-1
 1765.28027344 -57.400390625 l 1,1,-1
 1765.28027344 -352.599609375 l 1,2,-1
 290.719726562 -352.599609375 l 1,3,-1
 290.719726562 -57.400390625 l 1,0,-1
EndSplineSet
EndChar

StartChar: grave
Encoding: 96 96 65
Width: 2056
VWidth: 1818
GlyphClass: 2
Flags: W
LayerCount: 2
Fore
SplineSet
1027.63964844 1228.86035156 m 1,0,-1
 1322.83984375 1228.86035156 l 1,1,-1
 1322.83984375 933.66015625 l 1,2,-1
 1027.63964844 933.66015625 l 1,3,-1
 1027.63964844 1228.86035156 l 1,0,-1
733.16015625 1523.33984375 m 1,4,-1
 1027.63964844 1523.33984375 l 1,5,-1
 1027.63964844 1228.86035156 l 1,6,-1
 733.16015625 1228.86035156 l 1,7,-1
 733.16015625 1523.33984375 l 1,4,-1
EndSplineSet
EndChar

StartChar: a
Encoding: 97 97 66
Width: 2056
VWidth: 1646
GlyphClass: 2
Flags: W
LayerCount: 2
Fore
SplineSet
1470.08007812 1351.28027344 m 1,0,-1
 1470.08007812 1056.79980469 l 1,1,-1
 585.919921875 1056.79980469 l 1,2,-1
 585.919921875 1351.28027344 l 1,3,-1
 1470.08007812 1351.28027344 l 1,0,-1
1470.08007812 1056.79980469 m 1,4,-1
 1765.28027344 1056.79980469 l 1,5,-1
 1765.28027344 -123.280273438 l 1,6,-1
 1470.08007812 -123.280273438 l 1,7,-1
 1470.08007812 171.919921875 l 1,8,-1
 585.919921875 171.919921875 l 1,9,-1
 585.919921875 -123.280273438 l 1,10,-1
 290.719726562 -123.280273438 l 1,11,-1
 290.719726562 1056.79980469 l 1,12,-1
 585.919921875 1056.79980469 l 1,13,-1
 585.919921875 467.120117188 l 1,14,-1
 1470.08007812 467.120117188 l 1,15,-1
 1470.08007812 1056.79980469 l 1,4,-1
EndSplineSet
EndChar

StartChar: b
Encoding: 98 98 67
Width: 2056
VWidth: 1646
GlyphClass: 2
Flags: W
LayerCount: 2
Fore
SplineSet
1765.28027344 171.919921875 m 1,0,-1
 1470.08007812 171.919921875 l 1,1,-1
 1470.08007812 467.120117188 l 1,2,-1
 1765.28027344 467.120117188 l 1,3,-1
 1765.28027344 171.919921875 l 1,0,-1
585.919921875 761.599609375 m 1,4,-1
 1470.08007812 761.599609375 l 1,5,-1
 1470.08007812 467.120117188 l 1,6,-1
 585.919921875 467.120117188 l 1,7,-1
 585.919921875 171.919921875 l 1,8,-1
 1470.08007812 171.919921875 l 1,9,-1
 1470.08007812 -123.280273438 l 1,10,-1
 290.719726562 -123.280273438 l 1,11,-1
 290.719726562 1351.28027344 l 1,12,-1
 1470.08007812 1351.28027344 l 1,13,-1
 1470.08007812 1056.79980469 l 1,14,-1
 585.919921875 1056.79980469 l 1,15,-1
 585.919921875 761.599609375 l 1,4,-1
1765.28027344 761.599609375 m 1,16,-1
 1470.08007812 761.599609375 l 1,17,-1
 1470.08007812 1056.79980469 l 1,18,-1
 1765.28027344 1056.79980469 l 1,19,-1
 1765.28027344 761.599609375 l 1,16,-1
EndSplineSet
EndChar

StartChar: c
Encoding: 99 99 68
Width: 2056
VWidth: 1646
GlyphClass: 2
Flags: W
LayerCount: 2
Fore
SplineSet
1765.28027344 -123.280273438 m 1,0,-1
 585.919921875 -123.280273438 l 1,1,-1
 585.919921875 171.919921875 l 1,2,-1
 1765.28027344 171.919921875 l 1,3,-1
 1765.28027344 -123.280273438 l 1,0,-1
290.719726562 1056.79980469 m 1,4,-1
 585.919921875 1056.79980469 l 1,5,-1
 585.919921875 171.919921875 l 1,6,-1
 290.719726562 171.919921875 l 1,7,-1
 290.719726562 1056.79980469 l 1,4,-1
1765.28027344 1351.28027344 m 1,8,-1
 1765.28027344 1056.79980469 l 1,9,-1
 585.919921875 1056.79980469 l 1,10,-1
 585.919921875 1351.28027344 l 1,11,-1
 1765.28027344 1351.28027344 l 1,8,-1
EndSplineSet
EndChar

StartChar: d
Encoding: 100 100 69
Width: 2056
VWidth: 1646
GlyphClass: 2
Flags: W
LayerCount: 2
Fore
SplineSet
585.919921875 1056.79980469 m 1,0,-1
 585.919921875 171.919921875 l 1,1,-1
 1470.08007812 171.919921875 l 1,2,-1
 1470.08007812 -123.280273438 l 1,3,-1
 290.719726562 -123.280273438 l 1,4,-1
 290.719726562 1351.28027344 l 1,5,-1
 1470.08007812 1351.28027344 l 1,6,-1
 1470.08007812 1056.79980469 l 1,7,-1
 585.919921875 1056.79980469 l 1,0,-1
1470.08007812 1056.79980469 m 1,8,-1
 1765.28027344 1056.79980469 l 1,9,-1
 1765.28027344 171.919921875 l 1,10,-1
 1470.08007812 171.919921875 l 1,11,-1
 1470.08007812 1056.79980469 l 1,8,-1
EndSplineSet
EndChar

StartChar: e
Encoding: 101 101 70
Width: 2056
VWidth: 1646
GlyphClass: 2
Flags: W
LayerCount: 2
Fore
SplineSet
1765.28027344 1056.79980469 m 1,0,-1
 585.919921875 1056.79980469 l 1,1,-1
 585.919921875 761.599609375 l 1,2,-1
 1470.08007812 761.599609375 l 1,3,-1
 1470.08007812 467.120117188 l 1,4,-1
 585.919921875 467.120117188 l 1,5,-1
 585.919921875 171.919921875 l 1,6,-1
 1765.28027344 171.919921875 l 1,7,-1
 1765.28027344 -123.280273438 l 1,8,-1
 290.719726562 -123.280273438 l 1,9,-1
 290.719726562 1351.28027344 l 1,10,-1
 1765.28027344 1351.28027344 l 1,11,-1
 1765.28027344 1056.79980469 l 1,0,-1
EndSplineSet
EndChar

StartChar: f
Encoding: 102 102 71
Width: 2056
VWidth: 1646
GlyphClass: 2
Flags: W
LayerCount: 2
Fore
SplineSet
290.719726562 1351.28027344 m 1,0,-1
 1765.28027344 1351.28027344 l 1,1,-1
 1765.28027344 1056.79980469 l 1,2,-1
 585.919921875 1056.79980469 l 1,3,-1
 585.919921875 761.599609375 l 1,4,-1
 1470.08007812 761.599609375 l 1,5,-1
 1470.08007812 467.120117188 l 1,6,-1
 585.919921875 467.120117188 l 1,7,-1
 585.919921875 -123.280273438 l 1,8,-1
 290.719726562 -123.280273438 l 1,9,-1
 290.719726562 1351.28027344 l 1,0,-1
EndSplineSet
EndChar

StartChar: g
Encoding: 103 103 72
Width: 2056
VWidth: 1646
GlyphClass: 2
Flags: W
LayerCount: 2
Fore
SplineSet
290.719726562 1056.79980469 m 1,0,-1
 585.919921875 1056.79980469 l 1,1,-1
 585.919921875 171.919921875 l 1,2,-1
 290.719726562 171.919921875 l 1,3,-1
 290.719726562 1056.79980469 l 1,0,-1
1765.28027344 -123.280273438 m 1,4,-1
 585.919921875 -123.280273438 l 1,5,-1
 585.919921875 171.919921875 l 1,6,-1
 1470.08007812 171.919921875 l 1,7,-1
 1470.08007812 467.120117188 l 1,8,-1
 880.400390625 467.120117188 l 1,9,-1
 880.400390625 761.599609375 l 1,10,-1
 1765.28027344 761.599609375 l 1,11,-1
 1765.28027344 -123.280273438 l 1,4,-1
1765.28027344 1351.28027344 m 1,12,-1
 1765.28027344 1056.79980469 l 1,13,-1
 585.919921875 1056.79980469 l 1,14,-1
 585.919921875 1351.28027344 l 1,15,-1
 1765.28027344 1351.28027344 l 1,12,-1
EndSplineSet
EndChar

StartChar: h
Encoding: 104 104 73
Width: 2056
VWidth: 1646
GlyphClass: 2
Flags: W
LayerCount: 2
Fore
SplineSet
1470.08007812 1351.28027344 m 1,0,-1
 1765.28027344 1351.28027344 l 1,1,-1
 1765.28027344 -123.280273438 l 1,2,-1
 1470.08007812 -123.280273438 l 1,3,-1
 1470.08007812 467.120117188 l 1,4,-1
 585.919921875 467.120117188 l 1,5,-1
 585.919921875 -123.280273438 l 1,6,-1
 290.719726562 -123.280273438 l 1,7,-1
 290.719726562 1351.28027344 l 1,8,-1
 585.919921875 1351.28027344 l 1,9,-1
 585.919921875 761.599609375 l 1,10,-1
 1470.08007812 761.599609375 l 1,11,-1
 1470.08007812 1351.28027344 l 1,0,-1
EndSplineSet
EndChar

StartChar: i
Encoding: 105 105 74
Width: 2056
VWidth: 1646
GlyphClass: 2
Flags: W
LayerCount: 2
Fore
SplineSet
1175.59960938 1056.79980469 m 1,0,-1
 1175.59960938 171.919921875 l 1,1,-1
 1765.28027344 171.919921875 l 1,2,-1
 1765.28027344 -123.280273438 l 1,3,-1
 290.719726562 -123.280273438 l 1,4,-1
 290.719726562 171.919921875 l 1,5,-1
 880.400390625 171.919921875 l 1,6,-1
 880.400390625 1056.79980469 l 1,7,-1
 290.719726562 1056.79980469 l 1,8,-1
 290.719726562 1351.28027344 l 1,9,-1
 1765.28027344 1351.28027344 l 1,10,-1
 1765.28027344 1056.79980469 l 1,11,-1
 1175.59960938 1056.79980469 l 1,0,-1
EndSplineSet
EndChar

StartChar: j
Encoding: 106 106 75
Width: 2056
VWidth: 1646
GlyphClass: 2
Flags: W
LayerCount: 2
Fore
SplineSet
290.719726562 761.599609375 m 1,0,-1
 585.919921875 761.599609375 l 1,1,-1
 585.919921875 171.919921875 l 1,2,-1
 290.719726562 171.919921875 l 1,3,-1
 290.719726562 761.599609375 l 1,0,-1
1470.08007812 1351.28027344 m 1,4,-1
 1765.28027344 1351.28027344 l 1,5,-1
 1765.28027344 171.919921875 l 1,6,-1
 1470.08007812 171.919921875 l 1,7,-1
 1470.08007812 1351.28027344 l 1,4,-1
585.919921875 -123.280273438 m 1,8,-1
 585.919921875 171.919921875 l 1,9,-1
 1470.08007812 171.919921875 l 1,10,-1
 1470.08007812 -123.280273438 l 1,11,-1
 585.919921875 -123.280273438 l 1,8,-1
EndSplineSet
EndChar

StartChar: k
Encoding: 107 107 76
Width: 2056
VWidth: 1646
GlyphClass: 2
Flags: W
LayerCount: 2
Fore
SplineSet
585.919921875 761.599609375 m 1,0,-1
 1175.59960938 761.599609375 l 1,1,-1
 1175.59960938 467.120117188 l 1,2,-1
 585.919921875 467.120117188 l 1,3,-1
 585.919921875 -123.280273438 l 1,4,-1
 290.719726562 -123.280273438 l 1,5,-1
 290.719726562 1351.28027344 l 1,6,-1
 585.919921875 1351.28027344 l 1,7,-1
 585.919921875 761.599609375 l 1,0,-1
1470.08007812 171.919921875 m 1,8,-1
 1175.59960938 171.919921875 l 1,9,-1
 1175.59960938 467.120117188 l 1,10,-1
 1470.08007812 467.120117188 l 1,11,-1
 1470.08007812 171.919921875 l 1,8,-1
1765.28027344 -123.280273438 m 1,12,-1
 1470.08007812 -123.280273438 l 1,13,-1
 1470.08007812 171.919921875 l 1,14,-1
 1765.28027344 171.919921875 l 1,15,-1
 1765.28027344 -123.280273438 l 1,12,-1
1765.28027344 1351.28027344 m 1,16,-1
 1765.28027344 1056.79980469 l 1,17,-1
 1470.08007812 1056.79980469 l 1,18,-1
 1470.08007812 1351.28027344 l 1,19,-1
 1765.28027344 1351.28027344 l 1,16,-1
1470.08007812 1056.79980469 m 1,20,-1
 1470.08007812 761.599609375 l 1,21,-1
 1175.59960938 761.599609375 l 1,22,-1
 1175.59960938 1056.79980469 l 1,23,-1
 1470.08007812 1056.79980469 l 1,20,-1
EndSplineSet
EndChar

StartChar: l
Encoding: 108 108 77
Width: 2056
VWidth: 1646
GlyphClass: 2
Flags: W
LayerCount: 2
Fore
SplineSet
585.919921875 171.919921875 m 1,0,-1
 1765.28027344 171.919921875 l 1,1,-1
 1765.28027344 -123.280273438 l 1,2,-1
 290.719726562 -123.280273438 l 1,3,-1
 290.719726562 1351.28027344 l 1,4,-1
 585.919921875 1351.28027344 l 1,5,-1
 585.919921875 171.919921875 l 1,0,-1
EndSplineSet
EndChar

StartChar: m
Encoding: 109 109 78
Width: 2056
VWidth: 1646
GlyphClass: 2
Flags: W
LayerCount: 2
Fore
SplineSet
878.959960938 174.799804688 m 1,0,-1
 878.959960938 763.040039062 l 1,1,-1
 1172.71972656 763.040039062 l 1,2,-1
 1172.71972656 174.799804688 l 1,3,-1
 878.959960938 174.799804688 l 1,0,-1
1471.51953125 1351.28027344 m 1,4,-1
 1765.28027344 1351.28027344 l 1,5,-1
 1765.28027344 -123.280273438 l 1,6,-1
 1471.51953125 -123.280273438 l 1,7,-1
 1471.51953125 763.040039062 l 1,8,-1
 1172.71972656 763.040039062 l 1,9,-1
 1172.71972656 1058.24023438 l 1,10,-1
 1471.51953125 1058.24023438 l 1,11,-1
 1471.51953125 1351.28027344 l 1,4,-1
584.48046875 1058.24023438 m 1,12,-1
 878.959960938 1058.24023438 l 1,13,-1
 878.959960938 763.040039062 l 1,14,-1
 584.48046875 763.040039062 l 1,15,-1
 584.48046875 -123.280273438 l 1,16,-1
 290.719726562 -123.280273438 l 1,17,-1
 290.719726562 1351.28027344 l 1,18,-1
 584.48046875 1351.28027344 l 1,19,-1
 584.48046875 1058.24023438 l 1,12,-1
EndSplineSet
EndChar

StartChar: n
Encoding: 110 110 79
Width: 2056
VWidth: 1646
GlyphClass: 2
Flags: W
LayerCount: 2
Fore
SplineSet
1470.08007812 1351.28027344 m 1,0,-1
 1765.28027344 1351.28027344 l 1,1,-1
 1765.28027344 -123.280273438 l 1,2,-1
 1470.08007812 -123.280273438 l 1,3,-1
 1470.08007812 171.919921875 l 1,4,-1
 1175.59960938 171.919921875 l 1,5,-1
 1175.59960938 467.120117188 l 1,6,-1
 1470.08007812 467.120117188 l 1,7,-1
 1470.08007812 1351.28027344 l 1,0,-1
585.919921875 1056.79980469 m 1,8,-1
 880.400390625 1056.79980469 l 1,9,-1
 880.400390625 761.599609375 l 1,10,-1
 585.919921875 761.599609375 l 1,11,-1
 585.919921875 -123.280273438 l 1,12,-1
 290.719726562 -123.280273438 l 1,13,-1
 290.719726562 1351.28027344 l 1,14,-1
 585.919921875 1351.28027344 l 1,15,-1
 585.919921875 1056.79980469 l 1,8,-1
880.400390625 761.599609375 m 1,16,-1
 1175.59960938 761.599609375 l 1,17,-1
 1175.59960938 467.120117188 l 1,18,-1
 880.400390625 467.120117188 l 1,19,-1
 880.400390625 761.599609375 l 1,16,-1
EndSplineSet
EndChar

StartChar: o
Encoding: 111 111 80
Width: 2056
VWidth: 1646
GlyphClass: 2
Flags: W
LayerCount: 2
Fore
SplineSet
290.719726562 1056.79980469 m 1,0,-1
 585.919921875 1056.79980469 l 1,1,-1
 585.919921875 171.919921875 l 1,2,-1
 290.719726562 171.919921875 l 1,3,-1
 290.719726562 1056.79980469 l 1,0,-1
1470.08007812 1351.28027344 m 1,4,-1
 1470.08007812 1056.79980469 l 1,5,-1
 585.919921875 1056.79980469 l 1,6,-1
 585.919921875 1351.28027344 l 1,7,-1
 1470.08007812 1351.28027344 l 1,4,-1
585.919921875 -123.280273438 m 1,8,-1
 585.919921875 171.919921875 l 1,9,-1
 1470.08007812 171.919921875 l 1,10,-1
 1470.08007812 -123.280273438 l 1,11,-1
 585.919921875 -123.280273438 l 1,8,-1
1470.08007812 1056.79980469 m 1,12,-1
 1765.28027344 1056.79980469 l 1,13,-1
 1765.28027344 171.919921875 l 1,14,-1
 1470.08007812 171.919921875 l 1,15,-1
 1470.08007812 1056.79980469 l 1,12,-1
EndSplineSet
EndChar

StartChar: p
Encoding: 112 112 81
Width: 2056
VWidth: 1646
GlyphClass: 2
Flags: W
LayerCount: 2
Fore
SplineSet
585.919921875 1056.79980469 m 1,0,-1
 585.919921875 761.599609375 l 1,1,-1
 1470.08007812 761.599609375 l 1,2,-1
 1470.08007812 467.120117188 l 1,3,-1
 585.919921875 467.120117188 l 1,4,-1
 585.919921875 -123.280273438 l 1,5,-1
 290.719726562 -123.280273438 l 1,6,-1
 290.719726562 1351.28027344 l 1,7,-1
 1470.08007812 1351.28027344 l 1,8,-1
 1470.08007812 1056.79980469 l 1,9,-1
 585.919921875 1056.79980469 l 1,0,-1
1470.08007812 1056.79980469 m 1,10,-1
 1765.28027344 1056.79980469 l 1,11,-1
 1765.28027344 761.599609375 l 1,12,-1
 1470.08007812 761.599609375 l 1,13,-1
 1470.08007812 1056.79980469 l 1,10,-1
EndSplineSet
EndChar

StartChar: q
Encoding: 113 113 82
Width: 2056
VWidth: 1646
GlyphClass: 2
Flags: W
LayerCount: 2
Fore
SplineSet
290.719726562 1056.79980469 m 1,0,-1
 585.919921875 1056.79980469 l 1,1,-1
 585.919921875 171.919921875 l 1,2,-1
 290.719726562 171.919921875 l 1,3,-1
 290.719726562 1056.79980469 l 1,0,-1
1470.08007812 1351.28027344 m 1,4,-1
 1470.08007812 1056.79980469 l 1,5,-1
 585.919921875 1056.79980469 l 1,6,-1
 585.919921875 1351.28027344 l 1,7,-1
 1470.08007812 1351.28027344 l 1,4,-1
1765.28027344 -123.280273438 m 1,8,-1
 1470.08007812 -123.280273438 l 1,9,-1
 1470.08007812 171.919921875 l 1,10,-1
 1765.28027344 171.919921875 l 1,11,-1
 1765.28027344 -123.280273438 l 1,8,-1
1175.59960938 467.120117188 m 1,12,-1
 1470.08007812 467.120117188 l 1,13,-1
 1470.08007812 171.919921875 l 1,14,-1
 1175.59960938 171.919921875 l 1,15,-1
 1175.59960938 467.120117188 l 1,12,-1
585.919921875 -123.280273438 m 1,16,-1
 585.919921875 171.919921875 l 1,17,-1
 1175.59960938 171.919921875 l 1,18,-1
 1175.59960938 -123.280273438 l 1,19,-1
 585.919921875 -123.280273438 l 1,16,-1
1765.28027344 467.120117188 m 1,20,-1
 1470.08007812 467.120117188 l 1,21,-1
 1470.08007812 1056.79980469 l 1,22,-1
 1765.28027344 1056.79980469 l 1,23,-1
 1765.28027344 467.120117188 l 1,20,-1
EndSplineSet
EndChar

StartChar: r
Encoding: 114 114 83
Width: 2056
VWidth: 1646
GlyphClass: 2
Flags: W
LayerCount: 2
Fore
SplineSet
1470.08007812 1056.79980469 m 1,0,-1
 1765.28027344 1056.79980469 l 1,1,-1
 1765.28027344 761.599609375 l 1,2,-1
 1470.08007812 761.599609375 l 1,3,-1
 1470.08007812 1056.79980469 l 1,0,-1
1765.28027344 -123.280273438 m 1,4,-1
 1470.08007812 -123.280273438 l 1,5,-1
 1470.08007812 171.919921875 l 1,6,-1
 1765.28027344 171.919921875 l 1,7,-1
 1765.28027344 -123.280273438 l 1,4,-1
1175.59960938 467.120117188 m 1,8,-1
 585.919921875 467.120117188 l 1,9,-1
 585.919921875 -123.280273438 l 1,10,-1
 290.719726562 -123.280273438 l 1,11,-1
 290.719726562 1351.28027344 l 1,12,-1
 1470.08007812 1351.28027344 l 1,13,-1
 1470.08007812 1056.79980469 l 1,14,-1
 585.919921875 1056.79980469 l 1,15,-1
 585.919921875 761.599609375 l 1,16,-1
 1470.08007812 761.599609375 l 1,17,-1
 1470.08007812 171.919921875 l 1,18,-1
 1175.59960938 171.919921875 l 1,19,-1
 1175.59960938 467.120117188 l 1,8,-1
EndSplineSet
EndChar

StartChar: s
Encoding: 115 115 84
Width: 2056
VWidth: 1646
GlyphClass: 2
Flags: W
LayerCount: 2
Fore
SplineSet
1765.28027344 171.919921875 m 1,0,-1
 1470.08007812 171.919921875 l 1,1,-1
 1470.08007812 467.120117188 l 1,2,-1
 1765.28027344 467.120117188 l 1,3,-1
 1765.28027344 171.919921875 l 1,0,-1
290.719726562 -123.280273438 m 1,4,-1
 290.719726562 171.919921875 l 1,5,-1
 1470.08007812 171.919921875 l 1,6,-1
 1470.08007812 -123.280273438 l 1,7,-1
 290.719726562 -123.280273438 l 1,4,-1
1470.08007812 467.120117188 m 1,8,-1
 585.919921875 467.120117188 l 1,9,-1
 585.919921875 761.599609375 l 1,10,-1
 1470.08007812 761.599609375 l 1,11,-1
 1470.08007812 467.120117188 l 1,8,-1
1765.28027344 1351.28027344 m 1,12,-1
 1765.28027344 1056.79980469 l 1,13,-1
 585.919921875 1056.79980469 l 1,14,-1
 585.919921875 1351.28027344 l 1,15,-1
 1765.28027344 1351.28027344 l 1,12,-1
290.719726562 1056.79980469 m 1,16,-1
 585.919921875 1056.79980469 l 1,17,-1
 585.919921875 761.599609375 l 1,18,-1
 290.719726562 761.599609375 l 1,19,-1
 290.719726562 1056.79980469 l 1,16,-1
EndSplineSet
EndChar

StartChar: t
Encoding: 116 116 85
Width: 2056
VWidth: 1646
GlyphClass: 2
Flags: W
LayerCount: 2
Fore
SplineSet
290.719726562 1351.28027344 m 1,0,-1
 1765.28027344 1351.28027344 l 1,1,-1
 1765.28027344 1056.79980469 l 1,2,-1
 1175.59960938 1056.79980469 l 1,3,-1
 1175.59960938 -123.280273438 l 1,4,-1
 880.400390625 -123.280273438 l 1,5,-1
 880.400390625 1056.79980469 l 1,6,-1
 290.719726562 1056.79980469 l 1,7,-1
 290.719726562 1351.28027344 l 1,0,-1
EndSplineSet
EndChar

StartChar: u
Encoding: 117 117 86
Width: 2056
VWidth: 1646
GlyphClass: 2
Flags: W
LayerCount: 2
Fore
SplineSet
290.719726562 1351.28027344 m 1,0,-1
 585.919921875 1351.28027344 l 1,1,-1
 585.919921875 171.919921875 l 1,2,-1
 290.719726562 171.919921875 l 1,3,-1
 290.719726562 1351.28027344 l 1,0,-1
585.919921875 -123.280273438 m 1,4,-1
 585.919921875 171.919921875 l 1,5,-1
 1470.08007812 171.919921875 l 1,6,-1
 1470.08007812 -123.280273438 l 1,7,-1
 585.919921875 -123.280273438 l 1,4,-1
1470.08007812 1351.28027344 m 1,8,-1
 1765.28027344 1351.28027344 l 1,9,-1
 1765.28027344 171.919921875 l 1,10,-1
 1470.08007812 171.919921875 l 1,11,-1
 1470.08007812 1351.28027344 l 1,8,-1
EndSplineSet
EndChar

StartChar: v
Encoding: 118 118 87
Width: 2056
VWidth: 1646
GlyphClass: 2
Flags: W
LayerCount: 2
Fore
SplineSet
880.400390625 -123.280273438 m 1,0,-1
 880.400390625 171.919921875 l 1,1,-1
 1175.59960938 171.919921875 l 1,2,-1
 1175.59960938 -123.280273438 l 1,3,-1
 880.400390625 -123.280273438 l 1,0,-1
290.719726562 1351.28027344 m 1,4,-1
 585.919921875 1351.28027344 l 1,5,-1
 585.919921875 467.120117188 l 1,6,-1
 290.719726562 467.120117188 l 1,7,-1
 290.719726562 1351.28027344 l 1,4,-1
1470.08007812 1351.28027344 m 1,8,-1
 1765.28027344 1351.28027344 l 1,9,-1
 1765.28027344 467.120117188 l 1,10,-1
 1470.08007812 467.120117188 l 1,11,-1
 1470.08007812 1351.28027344 l 1,8,-1
1175.59960938 171.919921875 m 1,12,-1
 1175.59960938 467.120117188 l 1,13,-1
 1470.08007812 467.120117188 l 1,14,-1
 1470.08007812 171.919921875 l 1,15,-1
 1175.59960938 171.919921875 l 1,12,-1
585.919921875 467.120117188 m 1,16,-1
 880.400390625 467.120117188 l 1,17,-1
 880.400390625 171.919921875 l 1,18,-1
 585.919921875 171.919921875 l 1,19,-1
 585.919921875 467.120117188 l 1,16,-1
EndSplineSet
EndChar

StartChar: w
Encoding: 119 119 88
Width: 2056
VWidth: 1646
GlyphClass: 2
Flags: W
LayerCount: 2
Fore
SplineSet
1175.59960938 1056.79980469 m 1,0,-1
 1175.59960938 171.919921875 l 1,1,-1
 1470.08007812 171.919921875 l 1,2,-1
 1470.08007812 -123.280273438 l 1,3,-1
 585.919921875 -123.280273438 l 1,4,-1
 585.919921875 171.919921875 l 1,5,-1
 880.400390625 171.919921875 l 1,6,-1
 880.400390625 1056.79980469 l 1,7,-1
 1175.59960938 1056.79980469 l 1,0,-1
290.719726562 1351.28027344 m 1,8,-1
 585.919921875 1351.28027344 l 1,9,-1
 585.919921875 171.919921875 l 1,10,-1
 290.719726562 171.919921875 l 1,11,-1
 290.719726562 1351.28027344 l 1,8,-1
1470.08007812 1351.28027344 m 1,12,-1
 1765.28027344 1351.28027344 l 1,13,-1
 1765.28027344 171.919921875 l 1,14,-1
 1470.08007812 171.919921875 l 1,15,-1
 1470.08007812 1351.28027344 l 1,12,-1
EndSplineSet
EndChar

StartChar: x
Encoding: 120 120 89
Width: 2056
VWidth: 1646
GlyphClass: 2
Flags: W
LayerCount: 2
Fore
SplineSet
290.719726562 -123.280273438 m 1,0,-1
 290.719726562 171.919921875 l 1,1,-1
 585.919921875 171.919921875 l 1,2,-1
 585.919921875 -123.280273438 l 1,3,-1
 290.719726562 -123.280273438 l 1,0,-1
290.719726562 1351.28027344 m 1,4,-1
 585.919921875 1351.28027344 l 1,5,-1
 585.919921875 1056.79980469 l 1,6,-1
 290.719726562 1056.79980469 l 1,7,-1
 290.719726562 1351.28027344 l 1,4,-1
1470.08007812 171.919921875 m 1,8,-1
 1175.59960938 171.919921875 l 1,9,-1
 1175.59960938 467.120117188 l 1,10,-1
 1470.08007812 467.120117188 l 1,11,-1
 1470.08007812 171.919921875 l 1,8,-1
1765.28027344 -123.280273438 m 1,12,-1
 1470.08007812 -123.280273438 l 1,13,-1
 1470.08007812 171.919921875 l 1,14,-1
 1765.28027344 171.919921875 l 1,15,-1
 1765.28027344 -123.280273438 l 1,12,-1
585.919921875 171.919921875 m 1,16,-1
 585.919921875 467.120117188 l 1,17,-1
 880.400390625 467.120117188 l 1,18,-1
 880.400390625 171.919921875 l 1,19,-1
 585.919921875 171.919921875 l 1,16,-1
1470.08007812 1056.79980469 m 1,20,-1
 1470.08007812 761.599609375 l 1,21,-1
 1175.59960938 761.599609375 l 1,22,-1
 1175.59960938 1056.79980469 l 1,23,-1
 1470.08007812 1056.79980469 l 1,20,-1
585.919921875 1056.79980469 m 1,24,-1
 880.400390625 1056.79980469 l 1,25,-1
 880.400390625 761.599609375 l 1,26,-1
 585.919921875 761.599609375 l 1,27,-1
 585.919921875 1056.79980469 l 1,24,-1
1765.28027344 1351.28027344 m 1,28,-1
 1765.28027344 1056.79980469 l 1,29,-1
 1470.08007812 1056.79980469 l 1,30,-1
 1470.08007812 1351.28027344 l 1,31,-1
 1765.28027344 1351.28027344 l 1,28,-1
880.400390625 761.599609375 m 1,32,-1
 1175.59960938 761.599609375 l 1,33,-1
 1175.59960938 467.120117188 l 1,34,-1
 880.400390625 467.120117188 l 1,35,-1
 880.400390625 761.599609375 l 1,32,-1
EndSplineSet
EndChar

StartChar: y
Encoding: 121 121 90
Width: 2056
VWidth: 1646
GlyphClass: 2
Flags: W
LayerCount: 2
Fore
SplineSet
290.719726562 1351.28027344 m 1,0,-1
 585.919921875 1351.28027344 l 1,1,-1
 585.919921875 761.599609375 l 1,2,-1
 290.719726562 761.599609375 l 1,3,-1
 290.719726562 1351.28027344 l 1,0,-1
1470.08007812 1351.28027344 m 1,4,-1
 1765.28027344 1351.28027344 l 1,5,-1
 1765.28027344 761.599609375 l 1,6,-1
 1470.08007812 761.599609375 l 1,7,-1
 1470.08007812 1351.28027344 l 1,4,-1
585.919921875 467.120117188 m 1,8,-1
 585.919921875 761.599609375 l 1,9,-1
 1470.08007812 761.599609375 l 1,10,-1
 1470.08007812 467.120117188 l 1,11,-1
 1175.59960938 467.120117188 l 1,12,-1
 1175.59960938 -123.280273438 l 1,13,-1
 880.400390625 -123.280273438 l 1,14,-1
 880.400390625 467.120117188 l 1,15,-1
 585.919921875 467.120117188 l 1,8,-1
EndSplineSet
EndChar

StartChar: z
Encoding: 122 122 91
Width: 2056
VWidth: 1646
GlyphClass: 2
Flags: W
LayerCount: 2
Fore
SplineSet
1470.08007812 1056.79980469 m 1,0,-1
 1470.08007812 761.599609375 l 1,1,-1
 1175.59960938 761.599609375 l 1,2,-1
 1175.59960938 1056.79980469 l 1,3,-1
 290.719726562 1056.79980469 l 1,4,-1
 290.719726562 1351.28027344 l 1,5,-1
 1765.28027344 1351.28027344 l 1,6,-1
 1765.28027344 1056.79980469 l 1,7,-1
 1470.08007812 1056.79980469 l 1,0,-1
585.919921875 467.120117188 m 1,8,-1
 880.400390625 467.120117188 l 1,9,-1
 880.400390625 171.919921875 l 1,10,-1
 1765.28027344 171.919921875 l 1,11,-1
 1765.28027344 -123.280273438 l 1,12,-1
 290.719726562 -123.280273438 l 1,13,-1
 290.719726562 171.919921875 l 1,14,-1
 585.919921875 171.919921875 l 1,15,-1
 585.919921875 467.120117188 l 1,8,-1
1175.59960938 761.599609375 m 1,16,-1
 1175.59960938 467.120117188 l 1,17,-1
 880.400390625 467.120117188 l 1,18,-1
 880.400390625 761.599609375 l 1,19,-1
 1175.59960938 761.599609375 l 1,16,-1
EndSplineSet
EndChar

StartChar: braceleft
Encoding: 123 123 92
Width: 2056
VWidth: 1646
GlyphClass: 2
Flags: W
LayerCount: 2
Fore
SplineSet
1028 1056.79980469 m 1,0,-1
 1028 171.919921875 l 1,1,-1
 1617.6796875 171.919921875 l 1,2,-1
 1617.6796875 -123.280273438 l 1,3,-1
 733.51953125 -123.280273438 l 1,4,-1
 733.51953125 467.120117188 l 1,5,-1
 438.3203125 467.120117188 l 1,6,-1
 438.3203125 761.599609375 l 1,7,-1
 733.51953125 761.599609375 l 1,8,-1
 733.51953125 1351.28027344 l 1,9,-1
 1617.6796875 1351.28027344 l 1,10,-1
 1617.6796875 1056.79980469 l 1,11,-1
 1028 1056.79980469 l 1,0,-1
EndSplineSet
EndChar

StartChar: bar
Encoding: 124 124 93
Width: 2056
VWidth: 1646
GlyphClass: 2
Flags: W
LayerCount: 2
Fore
SplineSet
1175.59960938 -123.280273438 m 1,0,-1
 880.400390625 -123.280273438 l 1,1,-1
 880.400390625 1351.28027344 l 1,2,-1
 1175.59960938 1351.28027344 l 1,3,-1
 1175.59960938 -123.280273438 l 1,0,-1
EndSplineSet
EndChar

StartChar: braceright
Encoding: 125 125 94
Width: 2056
VWidth: 1646
GlyphClass: 2
Flags: W
LayerCount: 2
Fore
SplineSet
438.3203125 -123.280273438 m 1,0,-1
 438.3203125 171.919921875 l 1,1,-1
 732.799804688 171.919921875 l 1,2,-1
 732.799804688 171.200195312 l 1,3,-1
 1028 171.200195312 l 1,4,-1
 1028 1056.79980469 l 1,5,-1
 438.3203125 1056.79980469 l 1,6,-1
 438.3203125 1351.28027344 l 1,7,-1
 1322.48046875 1351.28027344 l 1,8,-1
 1322.48046875 760.879882812 l 1,9,-1
 1617.6796875 760.879882812 l 1,10,-1
 1617.6796875 466.400390625 l 1,11,-1
 1322.48046875 466.400390625 l 1,12,-1
 1322.48046875 -123.280273438 l 1,13,-1
 438.3203125 -123.280273438 l 1,0,-1
EndSplineSet
EndChar

StartChar: asciitilde
Encoding: 126 126 95
Width: 2056
VWidth: 1646
GlyphClass: 2
Flags: W
LayerCount: 2
Fore
SplineSet
1175.59960938 172.059570312 m 1,0,-1
 1175.59960938 467.259765625 l 1,1,-1
 1470.08007812 467.259765625 l 1,2,-1
 1470.08007812 172.059570312 l 1,3,-1
 1175.59960938 172.059570312 l 1,0,-1
290.719726562 467.259765625 m 1,4,-1
 290.719726562 761.740234375 l 1,5,-1
 585.919921875 761.740234375 l 1,6,-1
 585.919921875 467.259765625 l 1,7,-1
 290.719726562 467.259765625 l 1,4,-1
880.400390625 761.740234375 m 1,8,-1
 1175.59960938 761.740234375 l 1,9,-1
 1175.59960938 467.259765625 l 1,10,-1
 880.400390625 467.259765625 l 1,11,-1
 880.400390625 761.740234375 l 1,8,-1
1470.08007812 761.740234375 m 1,12,-1
 1765.28027344 761.740234375 l 1,13,-1
 1765.28027344 467.259765625 l 1,14,-1
 1470.08007812 467.259765625 l 1,15,-1
 1470.08007812 761.740234375 l 1,12,-1
585.919921875 1056.94042969 m 1,16,-1
 880.400390625 1056.94042969 l 1,17,-1
 880.400390625 761.740234375 l 1,18,-1
 585.919921875 761.740234375 l 1,19,-1
 585.919921875 1056.94042969 l 1,16,-1
EndSplineSet
EndChar

StartChar: exclamdown
Encoding: 161 161 96
Width: 2056
VWidth: 1646
GlyphClass: 2
Flags: W
LayerCount: 2
Fore
SplineSet
880.400390625 761.599609375 m 1,0,-1
 1175.59960938 761.599609375 l 1,1,-1
 1175.59960938 -123.280273438 l 1,2,-1
 880.400390625 -123.280273438 l 1,3,-1
 880.400390625 761.599609375 l 1,0,-1
1175.59960938 1056.79980469 m 1,4,-1
 880.400390625 1056.79980469 l 1,5,-1
 880.400390625 1351.28027344 l 1,6,-1
 1175.59960938 1351.28027344 l 1,7,-1
 1175.59960938 1056.79980469 l 1,4,-1
EndSplineSet
EndChar

StartChar: brokenbar
Encoding: 166 166 97
Width: 2056
VWidth: 1646
GlyphClass: 2
Flags: W
LayerCount: 2
Fore
SplineSet
1175.59960938 -123.280273438 m 1,0,-1
 880.400390625 -123.280273438 l 1,1,-1
 880.400390625 466.400390625 l 1,2,-1
 1175.59960938 466.400390625 l 1,3,-1
 1175.59960938 -123.280273438 l 1,0,-1
1175.59960938 761.599609375 m 1,4,-1
 880.400390625 761.599609375 l 1,5,-1
 880.400390625 1351.28027344 l 1,6,-1
 1175.59960938 1351.28027344 l 1,7,-1
 1175.59960938 761.599609375 l 1,4,-1
EndSplineSet
EndChar

StartChar: logicalnot
Encoding: 172 172 98
Width: 2056
VWidth: 1589
GlyphClass: 2
Flags: W
LayerCount: 2
Fore
SplineSet
1617.6796875 114.66015625 m 1,0,-1
 1322.48046875 114.66015625 l 1,1,-1
 1322.48046875 409.139648438 l 1,2,-1
 438.3203125 409.139648438 l 1,3,-1
 438.3203125 704.33984375 l 1,4,-1
 1617.6796875 704.33984375 l 1,5,-1
 1617.6796875 114.66015625 l 1,0,-1
EndSplineSet
EndChar

StartChar: degree
Encoding: 176 176 99
Width: 2056
VWidth: 1761
GlyphClass: 2
Flags: W
LayerCount: 2
Fore
SplineSet
1175.59960938 1171.45996094 m 1,0,-1
 880.400390625 1171.45996094 l 1,1,-1
 880.400390625 1465.94042969 l 1,2,-1
 1175.59960938 1465.94042969 l 1,3,-1
 1175.59960938 1171.45996094 l 1,0,-1
1175.59960938 581.059570312 m 1,4,-1
 880.400390625 581.059570312 l 1,5,-1
 880.400390625 876.259765625 l 1,6,-1
 1175.59960938 876.259765625 l 1,7,-1
 1175.59960938 581.059570312 l 1,4,-1
880.400390625 876.259765625 m 1,8,-1
 585.919921875 876.259765625 l 1,9,-1
 585.919921875 1171.45996094 l 1,10,-1
 880.400390625 1171.45996094 l 1,11,-1
 880.400390625 876.259765625 l 1,8,-1
1470.08007812 876.259765625 m 1,12,-1
 1175.59960938 876.259765625 l 1,13,-1
 1175.59960938 1171.45996094 l 1,14,-1
 1470.08007812 1171.45996094 l 1,15,-1
 1470.08007812 876.259765625 l 1,12,-1
EndSplineSet
EndChar

StartChar: acute
Encoding: 180 180 100
Width: 2056
VWidth: 1818
GlyphClass: 2
Flags: W
LayerCount: 2
Fore
SplineSet
1027.63964844 1228.86035156 m 1,0,-1
 1027.63964844 1523.33984375 l 1,1,-1
 1322.83984375 1523.33984375 l 1,2,-1
 1322.83984375 1228.86035156 l 1,3,-1
 1027.63964844 1228.86035156 l 1,0,-1
733.16015625 933.66015625 m 1,4,-1
 733.16015625 1228.86035156 l 1,5,-1
 1027.63964844 1228.86035156 l 1,6,-1
 1027.63964844 933.66015625 l 1,7,-1
 733.16015625 933.66015625 l 1,4,-1
EndSplineSet
EndChar

StartChar: paragraph
Encoding: 182 182 101
Width: 2056
VWidth: 1646
GlyphClass: 2
Flags: W
LayerCount: 2
Fore
SplineSet
1765.28027344 -123.280273438 m 1,0,-1
 1470.08007812 -123.280273438 l 1,1,-1
 1470.08007812 1056.79980469 l 1,2,-1
 1175.59960938 1056.79980469 l 1,3,-1
 1175.59960938 -123.280273438 l 1,4,-1
 880.400390625 -123.280273438 l 1,5,-1
 880.400390625 466.400390625 l 1,6,-1
 585.919921875 466.400390625 l 1,7,-1
 585.919921875 761.599609375 l 1,8,-1
 290.719726562 761.599609375 l 1,9,-1
 290.719726562 1056.79980469 l 1,10,-1
 585.919921875 1056.79980469 l 1,11,-1
 585.919921875 1351.28027344 l 1,12,-1
 1765.28027344 1351.28027344 l 1,13,-1
 1765.28027344 -123.280273438 l 1,0,-1
EndSplineSet
EndChar

StartChar: periodcentered
Encoding: 183 183 102
AltUni2: 002219.ffffffff.0 002219.ffffffff.0
Width: 2056
VWidth: 1646
GlyphClass: 2
Flags: W
LayerCount: 2
Fore
SplineSet
1175.59960938 466.400390625 m 1,0,-1
 880.400390625 466.400390625 l 1,1,-1
 880.400390625 761.599609375 l 1,2,-1
 1175.59960938 761.599609375 l 1,3,-1
 1175.59960938 466.400390625 l 1,0,-1
EndSplineSet
EndChar

StartChar: questiondown
Encoding: 191 191 103
Width: 2056
VWidth: 1646
GlyphClass: 2
Flags: W
LayerCount: 2
Fore
SplineSet
880.400390625 761.599609375 m 1,0,-1
 1175.59960938 761.599609375 l 1,1,-1
 1175.59960938 467.120117188 l 1,2,-1
 880.400390625 467.120117188 l 1,3,-1
 880.400390625 761.599609375 l 1,0,-1
585.919921875 467.120117188 m 1,4,-1
 880.400390625 467.120117188 l 1,5,-1
 880.400390625 171.200195312 l 1,6,-1
 1175.59960938 171.200195312 l 1,7,-1
 1175.59960938 171.919921875 l 1,8,-1
 1470.08007812 171.919921875 l 1,9,-1
 1470.08007812 -123.280273438 l 1,10,-1
 585.919921875 -123.280273438 l 1,11,-1
 585.919921875 467.120117188 l 1,4,-1
1175.59960938 1056.79980469 m 1,12,-1
 880.400390625 1056.79980469 l 1,13,-1
 880.400390625 1351.28027344 l 1,14,-1
 1175.59960938 1351.28027344 l 1,15,-1
 1175.59960938 1056.79980469 l 1,12,-1
EndSplineSet
EndChar

StartChar: AE
Encoding: 198 198 104
Width: 2056
VWidth: 1646
GlyphClass: 2
Flags: W
LayerCount: 2
Fore
SplineSet
585.919921875 171.919921875 m 1,0,-1
 585.919921875 -123.280273438 l 1,1,-1
 290.719726562 -123.280273438 l 1,2,-1
 290.719726562 1056.79980469 l 1,3,-1
 585.919921875 1056.79980469 l 1,4,-1
 585.919921875 1351.28027344 l 1,5,-1
 1765.28027344 1351.28027344 l 1,6,-1
 1765.28027344 1056.79980469 l 1,7,-1
 1175.59960938 1056.79980469 l 1,8,-1
 1175.59960938 761.599609375 l 1,9,-1
 1765.28027344 761.599609375 l 1,10,-1
 1765.28027344 466.400390625 l 1,11,-1
 1175.59960938 466.400390625 l 1,12,-1
 1175.59960938 171.919921875 l 1,13,-1
 1765.28027344 171.919921875 l 1,14,-1
 1765.28027344 -123.280273438 l 1,15,-1
 880.400390625 -123.280273438 l 1,16,-1
 880.400390625 171.919921875 l 1,17,-1
 585.919921875 171.919921875 l 1,0,-1
585.919921875 1056.79980469 m 1,18,-1
 585.919921875 466.400390625 l 1,19,-1
 880.400390625 466.400390625 l 1,20,-1
 880.400390625 1056.79980469 l 1,21,-1
 585.919921875 1056.79980469 l 1,18,-1
EndSplineSet
EndChar

StartChar: multiply
Encoding: 215 215 105
Width: 2056
VWidth: 1646
GlyphClass: 2
Flags: W
LayerCount: 2
Fore
SplineSet
1470.08007812 172.059570312 m 1,0,-1
 1175.59960938 172.059570312 l 1,1,-1
 1175.59960938 466.540039062 l 1,2,-1
 1470.08007812 466.540039062 l 1,3,-1
 1470.08007812 172.059570312 l 1,0,-1
1175.59960938 466.540039062 m 1,4,-1
 880.400390625 466.540039062 l 1,5,-1
 880.400390625 761.740234375 l 1,6,-1
 1175.59960938 761.740234375 l 1,7,-1
 1175.59960938 466.540039062 l 1,4,-1
880.400390625 761.740234375 m 1,8,-1
 585.919921875 761.740234375 l 1,9,-1
 585.919921875 1056.94042969 l 1,10,-1
 880.400390625 1056.94042969 l 1,11,-1
 880.400390625 761.740234375 l 1,8,-1
1470.08007812 761.740234375 m 1,12,-1
 1175.59960938 761.740234375 l 1,13,-1
 1175.59960938 1056.94042969 l 1,14,-1
 1470.08007812 1056.94042969 l 1,15,-1
 1470.08007812 761.740234375 l 1,12,-1
880.400390625 172.059570312 m 1,16,-1
 585.919921875 172.059570312 l 1,17,-1
 585.919921875 466.540039062 l 1,18,-1
 880.400390625 466.540039062 l 1,19,-1
 880.400390625 172.059570312 l 1,16,-1
EndSplineSet
EndChar

StartChar: Thorn
Encoding: 222 222 106
Width: 2056
VWidth: 1646
GlyphClass: 2
Flags: W
LayerCount: 2
Fore
SplineSet
1765.28027344 466.400390625 m 1,0,-1
 1470.08007812 466.400390625 l 1,1,-1
 1470.08007812 761.599609375 l 1,2,-1
 1765.28027344 761.599609375 l 1,3,-1
 1765.28027344 466.400390625 l 1,0,-1
585.919921875 171.919921875 m 1,4,-1
 585.919921875 -123.280273438 l 1,5,-1
 290.719726562 -123.280273438 l 1,6,-1
 290.719726562 1351.28027344 l 1,7,-1
 585.919921875 1351.28027344 l 1,8,-1
 585.919921875 1056.79980469 l 1,9,-1
 1470.08007812 1056.79980469 l 1,10,-1
 1470.08007812 761.599609375 l 1,11,-1
 585.919921875 761.599609375 l 1,12,-1
 585.919921875 466.400390625 l 1,13,-1
 1470.08007812 466.400390625 l 1,14,-1
 1470.08007812 171.919921875 l 1,15,-1
 585.919921875 171.919921875 l 1,4,-1
EndSplineSet
EndChar

StartChar: germandbls
Encoding: 223 223 107
Width: 2056
VWidth: 1646
GlyphClass: 2
Flags: W
LayerCount: 2
Fore
SplineSet
585.919921875 -123.280273438 m 1,0,-1
 290.719726562 -123.280273438 l 1,1,-1
 290.719726562 1056.79980469 l 1,2,-1
 585.919921875 1056.79980469 l 1,3,-1
 585.919921875 -123.280273438 l 1,0,-1
585.919921875 1056.79980469 m 1,4,-1
 585.919921875 1351.28027344 l 1,5,-1
 1470.08007812 1351.28027344 l 1,6,-1
 1470.08007812 1056.79980469 l 1,7,-1
 585.919921875 1056.79980469 l 1,4,-1
1470.08007812 171.919921875 m 1,8,-1
 1470.08007812 -123.280273438 l 1,9,-1
 880.400390625 -123.280273438 l 1,10,-1
 880.400390625 171.919921875 l 1,11,-1
 1470.08007812 171.919921875 l 1,8,-1
1765.28027344 171.919921875 m 1,12,-1
 1470.08007812 171.919921875 l 1,13,-1
 1470.08007812 466.400390625 l 1,14,-1
 1765.28027344 466.400390625 l 1,15,-1
 1765.28027344 171.919921875 l 1,12,-1
1470.08007812 466.400390625 m 1,16,-1
 1175.59960938 466.400390625 l 1,17,-1
 1175.59960938 761.599609375 l 1,18,-1
 1470.08007812 761.599609375 l 1,19,-1
 1470.08007812 466.400390625 l 1,16,-1
1765.28027344 761.599609375 m 1,20,-1
 1470.08007812 761.599609375 l 1,21,-1
 1470.08007812 1056.79980469 l 1,22,-1
 1765.28027344 1056.79980469 l 1,23,-1
 1765.28027344 761.599609375 l 1,20,-1
EndSplineSet
EndChar

StartChar: ae
Encoding: 230 230 108
Width: 2056
VWidth: 1646
GlyphClass: 2
Flags: W
LayerCount: 2
Fore
SplineSet
585.919921875 171.919921875 m 1,0,-1
 585.919921875 -123.280273438 l 1,1,-1
 290.719726562 -123.280273438 l 1,2,-1
 290.719726562 1056.79980469 l 1,3,-1
 585.919921875 1056.79980469 l 1,4,-1
 585.919921875 1351.28027344 l 1,5,-1
 1765.28027344 1351.28027344 l 1,6,-1
 1765.28027344 1056.79980469 l 1,7,-1
 1175.59960938 1056.79980469 l 1,8,-1
 1175.59960938 761.599609375 l 1,9,-1
 1765.28027344 761.599609375 l 1,10,-1
 1765.28027344 466.400390625 l 1,11,-1
 1175.59960938 466.400390625 l 1,12,-1
 1175.59960938 171.919921875 l 1,13,-1
 1765.28027344 171.919921875 l 1,14,-1
 1765.28027344 -123.280273438 l 1,15,-1
 880.400390625 -123.280273438 l 1,16,-1
 880.400390625 171.919921875 l 1,17,-1
 585.919921875 171.919921875 l 1,0,-1
585.919921875 1056.79980469 m 1,18,-1
 585.919921875 466.400390625 l 1,19,-1
 880.400390625 466.400390625 l 1,20,-1
 880.400390625 1056.79980469 l 1,21,-1
 585.919921875 1056.79980469 l 1,18,-1
EndSplineSet
EndChar

StartChar: divide
Encoding: 247 247 109
Width: 2056
VWidth: 1646
GlyphClass: 2
Flags: W
LayerCount: 2
Fore
SplineSet
1175.59960938 -123.280273438 m 1,0,-1
 880.400390625 -123.280273438 l 1,1,-1
 880.400390625 171.919921875 l 1,2,-1
 1175.59960938 171.919921875 l 1,3,-1
 1175.59960938 -123.280273438 l 1,0,-1
290.719726562 466.400390625 m 1,4,-1
 290.719726562 761.599609375 l 1,5,-1
 1765.28027344 761.599609375 l 1,6,-1
 1765.28027344 466.400390625 l 1,7,-1
 290.719726562 466.400390625 l 1,4,-1
1175.59960938 1056.79980469 m 1,8,-1
 880.400390625 1056.79980469 l 1,9,-1
 880.400390625 1351.28027344 l 1,10,-1
 1175.59960938 1351.28027344 l 1,11,-1
 1175.59960938 1056.79980469 l 1,8,-1
EndSplineSet
EndChar

StartChar: thorn
Encoding: 254 254 110
Width: 2056
VWidth: 1646
GlyphClass: 2
Flags: W
LayerCount: 2
Fore
SplineSet
1765.28027344 466.400390625 m 1,0,-1
 1470.08007812 466.400390625 l 1,1,-1
 1470.08007812 761.599609375 l 1,2,-1
 1765.28027344 761.599609375 l 1,3,-1
 1765.28027344 466.400390625 l 1,0,-1
585.919921875 171.919921875 m 1,4,-1
 585.919921875 -123.280273438 l 1,5,-1
 290.719726562 -123.280273438 l 1,6,-1
 290.719726562 1351.28027344 l 1,7,-1
 585.919921875 1351.28027344 l 1,8,-1
 585.919921875 1056.79980469 l 1,9,-1
 1470.08007812 1056.79980469 l 1,10,-1
 1470.08007812 761.599609375 l 1,11,-1
 585.919921875 761.599609375 l 1,12,-1
 585.919921875 466.400390625 l 1,13,-1
 1470.08007812 466.400390625 l 1,14,-1
 1470.08007812 171.919921875 l 1,15,-1
 585.919921875 171.919921875 l 1,4,-1
EndSplineSet
EndChar

StartChar: endash
Encoding: 8211 8211 111
Width: 2056
VWidth: 1646
GlyphClass: 2
Flags: W
LayerCount: 2
Fore
SplineSet
290.719726562 467.259765625 m 1,0,-1
 290.719726562 761.740234375 l 1,1,-1
 1765.28027344 761.740234375 l 1,2,-1
 1765.28027344 467.259765625 l 1,3,-1
 290.719726562 467.259765625 l 1,0,-1
EndSplineSet
EndChar

StartChar: emdash
Encoding: 8212 8212 112
Width: 2056
VWidth: 1646
GlyphClass: 2
Flags: W
LayerCount: 2
Fore
SplineSet
290.719726562 467.259765625 m 1,0,-1
 290.719726562 761.740234375 l 1,1,-1
 1765.28027344 761.740234375 l 1,2,-1
 1765.28027344 467.259765625 l 1,3,-1
 290.719726562 467.259765625 l 1,0,-1
EndSplineSet
EndChar

StartChar: bullet
Encoding: 8226 8226 113
Width: 2056
VWidth: 1646
GlyphClass: 2
Flags: W
LayerCount: 2
Fore
SplineSet
1470.08007812 172.059570312 m 1,0,-1
 585.919921875 172.059570312 l 1,1,-1
 585.919921875 1056.94042969 l 1,2,-1
 1470.08007812 1056.94042969 l 1,3,-1
 1470.08007812 172.059570312 l 1,0,-1
EndSplineSet
EndChar

StartChar: guilsinglleft
Encoding: 8249 8249 114
Width: 2056
VWidth: 1646
GlyphClass: 2
Flags: W
LayerCount: 2
Fore
SplineSet
585.919921875 761.599609375 m 1,0,-1
 880.400390625 761.599609375 l 1,1,-1
 880.400390625 466.400390625 l 1,2,-1
 585.919921875 466.400390625 l 1,3,-1
 585.919921875 761.599609375 l 1,0,-1
1175.59960938 171.200195312 m 1,4,-1
 1470.08007812 171.200195312 l 1,5,-1
 1470.08007812 -123.280273438 l 1,6,-1
 1175.59960938 -123.280273438 l 1,7,-1
 1175.59960938 171.200195312 l 1,4,-1
880.400390625 1056.08007812 m 1,8,-1
 1175.59960938 1056.08007812 l 1,9,-1
 1175.59960938 761.599609375 l 1,10,-1
 880.400390625 761.599609375 l 1,11,-1
 880.400390625 1056.08007812 l 1,8,-1
880.400390625 466.400390625 m 1,12,-1
 1175.59960938 466.400390625 l 1,13,-1
 1175.59960938 171.200195312 l 1,14,-1
 880.400390625 171.200195312 l 1,15,-1
 880.400390625 466.400390625 l 1,12,-1
1175.59960938 1351.28027344 m 1,16,-1
 1470.08007812 1351.28027344 l 1,17,-1
 1470.08007812 1056.08007812 l 1,18,-1
 1175.59960938 1056.08007812 l 1,19,-1
 1175.59960938 1351.28027344 l 1,16,-1
EndSplineSet
EndChar

StartChar: guilsinglright
Encoding: 8250 8250 115
Width: 2056
VWidth: 1646
GlyphClass: 2
Flags: W
LayerCount: 2
Fore
SplineSet
1470.08007812 466.400390625 m 1,0,-1
 1175.59960938 466.400390625 l 1,1,-1
 1175.59960938 761.599609375 l 1,2,-1
 1470.08007812 761.599609375 l 1,3,-1
 1470.08007812 466.400390625 l 1,0,-1
880.400390625 1056.79980469 m 1,4,-1
 585.919921875 1056.79980469 l 1,5,-1
 585.919921875 1351.28027344 l 1,6,-1
 880.400390625 1351.28027344 l 1,7,-1
 880.400390625 1056.79980469 l 1,4,-1
1175.59960938 171.919921875 m 1,8,-1
 880.400390625 171.919921875 l 1,9,-1
 880.400390625 466.400390625 l 1,10,-1
 1175.59960938 466.400390625 l 1,11,-1
 1175.59960938 171.919921875 l 1,8,-1
1175.59960938 761.599609375 m 1,12,-1
 880.400390625 761.599609375 l 1,13,-1
 880.400390625 1056.79980469 l 1,14,-1
 1175.59960938 1056.79980469 l 1,15,-1
 1175.59960938 761.599609375 l 1,12,-1
880.400390625 -123.280273438 m 1,16,-1
 585.919921875 -123.280273438 l 1,17,-1
 585.919921875 171.919921875 l 1,18,-1
 880.400390625 171.919921875 l 1,19,-1
 880.400390625 -123.280273438 l 1,16,-1
EndSplineSet
EndChar

StartChar: Delta
Encoding: 8710 8710 116
Width: 2056
VWidth: 1646
GlyphClass: 2
Flags: W
LayerCount: 2
Fore
SplineSet
1175.59960938 1056.79980469 m 1,0,-1
 880.400390625 1056.79980469 l 1,1,-1
 880.400390625 1351.28027344 l 1,2,-1
 1175.59960938 1351.28027344 l 1,3,-1
 1175.59960938 1056.79980469 l 1,0,-1
880.400390625 466.400390625 m 1,4,-1
 585.919921875 466.400390625 l 1,5,-1
 585.919921875 1056.79980469 l 1,6,-1
 880.400390625 1056.79980469 l 1,7,-1
 880.400390625 466.400390625 l 1,4,-1
1470.08007812 466.400390625 m 1,8,-1
 1175.59960938 466.400390625 l 1,9,-1
 1175.59960938 1056.79980469 l 1,10,-1
 1470.08007812 1056.79980469 l 1,11,-1
 1470.08007812 466.400390625 l 1,8,-1
290.719726562 466.400390625 m 1,12,-1
 585.919921875 466.400390625 l 1,13,-1
 585.919921875 171.919921875 l 1,14,-1
 1470.08007812 171.919921875 l 1,15,-1
 1470.08007812 466.400390625 l 1,16,-1
 1765.28027344 466.400390625 l 1,17,-1
 1765.28027344 -123.280273438 l 1,18,-1
 290.719726562 -123.280273438 l 1,19,-1
 290.719726562 466.400390625 l 1,12,-1
EndSplineSet
EndChar

StartChar: minus
Encoding: 8722 8722 117
Width: 2056
VWidth: 1646
GlyphClass: 2
Flags: W
LayerCount: 2
Fore
SplineSet
290.719726562 467.259765625 m 1,0,-1
 290.719726562 761.740234375 l 1,1,-1
 1765.28027344 761.740234375 l 1,2,-1
 1765.28027344 467.259765625 l 1,3,-1
 290.719726562 467.259765625 l 1,0,-1
EndSplineSet
EndChar

StartChar: infinity
Encoding: 8734 8734 118
Width: 2056
VWidth: 1646
GlyphClass: 2
Flags: W
LayerCount: 2
Fore
SplineSet
585.919921875 466.540039062 m 1,0,-1
 290.719726562 466.540039062 l 1,1,-1
 290.719726562 761.740234375 l 1,2,-1
 585.919921875 761.740234375 l 1,3,-1
 585.919921875 466.540039062 l 1,0,-1
1175.59960938 466.540039062 m 1,4,-1
 880.400390625 466.540039062 l 1,5,-1
 880.400390625 761.740234375 l 1,6,-1
 1175.59960938 761.740234375 l 1,7,-1
 1175.59960938 466.540039062 l 1,4,-1
880.400390625 761.740234375 m 1,8,-1
 585.919921875 761.740234375 l 1,9,-1
 585.919921875 1056.94042969 l 1,10,-1
 880.400390625 1056.94042969 l 1,11,-1
 880.400390625 761.740234375 l 1,8,-1
1470.08007812 761.740234375 m 1,12,-1
 1175.59960938 761.740234375 l 1,13,-1
 1175.59960938 1056.94042969 l 1,14,-1
 1470.08007812 1056.94042969 l 1,15,-1
 1470.08007812 761.740234375 l 1,12,-1
880.400390625 172.059570312 m 1,16,-1
 585.919921875 172.059570312 l 1,17,-1
 585.919921875 466.540039062 l 1,18,-1
 880.400390625 466.540039062 l 1,19,-1
 880.400390625 172.059570312 l 1,16,-1
1470.08007812 172.059570312 m 1,20,-1
 1175.59960938 172.059570312 l 1,21,-1
 1175.59960938 466.540039062 l 1,22,-1
 1470.08007812 466.540039062 l 1,23,-1
 1470.08007812 172.059570312 l 1,20,-1
1765.28027344 466.540039062 m 1,24,-1
 1470.08007812 466.540039062 l 1,25,-1
 1470.08007812 761.740234375 l 1,26,-1
 1765.28027344 761.740234375 l 1,27,-1
 1765.28027344 466.540039062 l 1,24,-1
EndSplineSet
EndChar

StartChar: approxequal
Encoding: 8776 8776 119
Width: 2056
VWidth: 1646
GlyphClass: 2
Flags: W
LayerCount: 2
Fore
SplineSet
585.919921875 -123.280273438 m 1,0,-1
 290.719726562 -123.280273438 l 1,1,-1
 290.719726562 171.919921875 l 1,2,-1
 585.919921875 171.919921875 l 1,3,-1
 585.919921875 -123.280273438 l 1,0,-1
1765.28027344 1056.79980469 m 1,4,-1
 1470.08007812 1056.79980469 l 1,5,-1
 1470.08007812 1351.28027344 l 1,6,-1
 1765.28027344 1351.28027344 l 1,7,-1
 1765.28027344 1056.79980469 l 1,4,-1
880.400390625 761.599609375 m 1,8,-1
 880.400390625 1056.79980469 l 1,9,-1
 1470.08007812 1056.79980469 l 1,10,-1
 1470.08007812 761.599609375 l 1,11,-1
 880.400390625 761.599609375 l 1,8,-1
880.400390625 171.919921875 m 1,12,-1
 585.919921875 171.919921875 l 1,13,-1
 585.919921875 466.400390625 l 1,14,-1
 880.400390625 466.400390625 l 1,15,-1
 880.400390625 171.919921875 l 1,12,-1
880.400390625 1056.79980469 m 1,16,-1
 585.919921875 1056.79980469 l 1,17,-1
 585.919921875 1351.28027344 l 1,18,-1
 880.400390625 1351.28027344 l 1,19,-1
 880.400390625 1056.79980469 l 1,16,-1
1470.08007812 171.919921875 m 1,20,-1
 1470.08007812 -123.280273438 l 1,21,-1
 880.400390625 -123.280273438 l 1,22,-1
 880.400390625 171.919921875 l 1,23,-1
 1470.08007812 171.919921875 l 1,20,-1
1765.28027344 171.919921875 m 1,24,-1
 1470.08007812 171.919921875 l 1,25,-1
 1470.08007812 466.400390625 l 1,26,-1
 1765.28027344 466.400390625 l 1,27,-1
 1765.28027344 171.919921875 l 1,24,-1
585.919921875 761.599609375 m 1,28,-1
 290.719726562 761.599609375 l 1,29,-1
 290.719726562 1056.79980469 l 1,30,-1
 585.919921875 1056.79980469 l 1,31,-1
 585.919921875 761.599609375 l 1,28,-1
EndSplineSet
EndChar

StartChar: uniFB01
Encoding: 64257 64257 120
Width: 2056
VWidth: 1646
GlyphClass: 2
Flags: W
LayerCount: 2
Fore
SplineSet
1470.08007812 761.599609375 m 1,0,-1
 1765.28027344 761.599609375 l 1,1,-1
 1765.28027344 -123.280273438 l 1,2,-1
 1470.08007812 -123.280273438 l 1,3,-1
 1470.08007812 761.599609375 l 1,0,-1
585.919921875 466.400390625 m 1,4,-1
 290.719726562 466.400390625 l 1,5,-1
 290.719726562 761.599609375 l 1,6,-1
 585.919921875 761.599609375 l 1,7,-1
 585.919921875 1351.28027344 l 1,8,-1
 1175.59960938 1351.28027344 l 1,9,-1
 1175.59960938 1056.79980469 l 1,10,-1
 880.400390625 1056.79980469 l 1,11,-1
 880.400390625 761.599609375 l 1,12,-1
 1175.59960938 761.599609375 l 1,13,-1
 1175.59960938 466.400390625 l 1,14,-1
 880.400390625 466.400390625 l 1,15,-1
 880.400390625 -123.280273438 l 1,16,-1
 585.919921875 -123.280273438 l 1,17,-1
 585.919921875 466.400390625 l 1,4,-1
1765.28027344 1056.79980469 m 1,18,-1
 1470.08007812 1056.79980469 l 1,19,-1
 1470.08007812 1351.28027344 l 1,20,-1
 1765.28027344 1351.28027344 l 1,21,-1
 1765.28027344 1056.79980469 l 1,18,-1
EndSplineSet
EndChar

StartChar: uniFB02
Encoding: 64258 64258 121
Width: 2056
VWidth: 1646
GlyphClass: 2
Flags: W
LayerCount: 2
Fore
SplineSet
1765.28027344 -123.280273438 m 1,0,-1
 1470.08007812 -123.280273438 l 1,1,-1
 1470.08007812 1351.28027344 l 1,2,-1
 1765.28027344 1351.28027344 l 1,3,-1
 1765.28027344 -123.280273438 l 1,0,-1
585.919921875 466.400390625 m 1,4,-1
 290.719726562 466.400390625 l 1,5,-1
 290.719726562 761.599609375 l 1,6,-1
 585.919921875 761.599609375 l 1,7,-1
 585.919921875 1351.28027344 l 1,8,-1
 1175.59960938 1351.28027344 l 1,9,-1
 1175.59960938 1056.79980469 l 1,10,-1
 880.400390625 1056.79980469 l 1,11,-1
 880.400390625 761.599609375 l 1,12,-1
 1175.59960938 761.599609375 l 1,13,-1
 1175.59960938 466.400390625 l 1,14,-1
 880.400390625 466.400390625 l 1,15,-1
 880.400390625 -123.280273438 l 1,16,-1
 585.919921875 -123.280273438 l 1,17,-1
 585.919921875 466.400390625 l 1,4,-1
EndSplineSet
EndChar

StartChar: macron
Encoding: 175 175 122
Width: 2056
VWidth: 1875
GlyphClass: 2
Flags: W
LayerCount: 2
Fore
SplineSet
585.919921875 1286.25976562 m 1,0,-1
 585.919921875 1580.74023438 l 1,1,-1
 1470.08007812 1580.74023438 l 1,2,-1
 1470.08007812 1286.25976562 l 1,3,-1
 585.919921875 1286.25976562 l 1,0,-1
EndSplineSet
EndChar

StartChar: uni0410
Encoding: 1040 1040 123
Width: 2056
VWidth: 1646
GlyphClass: 2
Flags: W
LayerCount: 2
Fore
SplineSet
1470.08007812 1351.28027344 m 1,0,-1
 1470.08007812 1056.79980469 l 1,1,-1
 585.919921875 1056.79980469 l 1,2,-1
 585.919921875 1351.28027344 l 1,3,-1
 1470.08007812 1351.28027344 l 1,0,-1
1470.08007812 1056.79980469 m 1,4,-1
 1765.28027344 1056.79980469 l 1,5,-1
 1765.28027344 -123.280273438 l 1,6,-1
 1470.08007812 -123.280273438 l 1,7,-1
 1470.08007812 171.919921875 l 1,8,-1
 585.919921875 171.919921875 l 1,9,-1
 585.919921875 -123.280273438 l 1,10,-1
 290.719726562 -123.280273438 l 1,11,-1
 290.719726562 1056.79980469 l 1,12,-1
 585.919921875 1056.79980469 l 1,13,-1
 585.919921875 467.120117188 l 1,14,-1
 1470.08007812 467.120117188 l 1,15,-1
 1470.08007812 1056.79980469 l 1,4,-1
EndSplineSet
EndChar

StartChar: uni0411
Encoding: 1041 1041 124
Width: 2056
VWidth: 1646
GlyphClass: 2
Flags: W
LayerCount: 2
Fore
SplineSet
1765.28027344 171.919921875 m 1,0,-1
 1470.08007812 171.919921875 l 1,1,-1
 1470.08007812 466.400390625 l 1,2,-1
 1765.28027344 466.400390625 l 1,3,-1
 1765.28027344 171.919921875 l 1,0,-1
1470.08007812 171.919921875 m 1,4,-1
 1470.08007812 -123.280273438 l 1,5,-1
 290.719726562 -123.280273438 l 1,6,-1
 290.719726562 1351.28027344 l 1,7,-1
 1470.08007812 1351.28027344 l 1,8,-1
 1470.08007812 1056.79980469 l 1,9,-1
 585.919921875 1056.79980469 l 1,10,-1
 585.919921875 761.599609375 l 1,11,-1
 1470.08007812 761.599609375 l 1,12,-1
 1470.08007812 466.400390625 l 1,13,-1
 585.919921875 466.400390625 l 1,14,-1
 585.919921875 171.919921875 l 1,15,-1
 1470.08007812 171.919921875 l 1,4,-1
EndSplineSet
EndChar

StartChar: uni0412
Encoding: 1042 1042 125
Width: 2056
VWidth: 1646
GlyphClass: 2
Flags: W
LayerCount: 2
Fore
SplineSet
1765.28027344 171.919921875 m 1,0,-1
 1470.08007812 171.919921875 l 1,1,-1
 1470.08007812 467.120117188 l 1,2,-1
 1765.28027344 467.120117188 l 1,3,-1
 1765.28027344 171.919921875 l 1,0,-1
585.919921875 761.599609375 m 1,4,-1
 1470.08007812 761.599609375 l 1,5,-1
 1470.08007812 467.120117188 l 1,6,-1
 585.919921875 467.120117188 l 1,7,-1
 585.919921875 171.919921875 l 1,8,-1
 1470.08007812 171.919921875 l 1,9,-1
 1470.08007812 -123.280273438 l 1,10,-1
 290.719726562 -123.280273438 l 1,11,-1
 290.719726562 1351.28027344 l 1,12,-1
 1470.08007812 1351.28027344 l 1,13,-1
 1470.08007812 1056.79980469 l 1,14,-1
 585.919921875 1056.79980469 l 1,15,-1
 585.919921875 761.599609375 l 1,4,-1
1765.28027344 761.599609375 m 1,16,-1
 1470.08007812 761.599609375 l 1,17,-1
 1470.08007812 1056.79980469 l 1,18,-1
 1765.28027344 1056.79980469 l 1,19,-1
 1765.28027344 761.599609375 l 1,16,-1
EndSplineSet
EndChar

StartChar: uni0413
Encoding: 1043 1043 126
Width: 2056
VWidth: 1646
GlyphClass: 2
Flags: W
LayerCount: 2
Fore
SplineSet
585.919921875 -123.280273438 m 1,0,-1
 290.719726562 -123.280273438 l 1,1,-1
 290.719726562 1351.28027344 l 1,2,-1
 1765.28027344 1351.28027344 l 1,3,-1
 1765.28027344 1056.79980469 l 1,4,-1
 585.919921875 1056.79980469 l 1,5,-1
 585.919921875 -123.280273438 l 1,0,-1
EndSplineSet
EndChar

StartChar: uni0414
Encoding: 1044 1044 127
Width: 2056
VWidth: 1646
GlyphClass: 2
Flags: W
LayerCount: 2
Fore
SplineSet
585.919921875 171.919921875 m 1,0,-1
 585.919921875 -123.280273438 l 1,1,-1
 290.719726562 -123.280273438 l 1,2,-1
 290.719726562 466.400390625 l 1,3,-1
 585.919921875 466.400390625 l 1,4,-1
 585.919921875 1351.28027344 l 1,5,-1
 1470.08007812 1351.28027344 l 1,6,-1
 1470.08007812 466.400390625 l 1,7,-1
 1765.28027344 466.400390625 l 1,8,-1
 1765.28027344 -123.280273438 l 1,9,-1
 1470.08007812 -123.280273438 l 1,10,-1
 1470.08007812 171.919921875 l 1,11,-1
 585.919921875 171.919921875 l 1,0,-1
1175.59960938 466.400390625 m 1,12,-1
 1175.59960938 1056.79980469 l 1,13,-1
 880.400390625 1056.79980469 l 1,14,-1
 880.400390625 466.400390625 l 1,15,-1
 1175.59960938 466.400390625 l 1,12,-1
EndSplineSet
EndChar

StartChar: uni0415
Encoding: 1045 1045 128
Width: 2056
VWidth: 1646
GlyphClass: 2
Flags: W
LayerCount: 2
Fore
SplineSet
1765.28027344 1056.79980469 m 1,0,-1
 585.919921875 1056.79980469 l 1,1,-1
 585.919921875 761.599609375 l 1,2,-1
 1470.08007812 761.599609375 l 1,3,-1
 1470.08007812 467.120117188 l 1,4,-1
 585.919921875 467.120117188 l 1,5,-1
 585.919921875 171.919921875 l 1,6,-1
 1765.28027344 171.919921875 l 1,7,-1
 1765.28027344 -123.280273438 l 1,8,-1
 290.719726562 -123.280273438 l 1,9,-1
 290.719726562 1351.28027344 l 1,10,-1
 1765.28027344 1351.28027344 l 1,11,-1
 1765.28027344 1056.79980469 l 1,0,-1
EndSplineSet
EndChar

StartChar: uni0416
Encoding: 1046 1046 129
Width: 2056
VWidth: 1646
GlyphClass: 2
Flags: W
LayerCount: 2
Fore
SplineSet
585.919921875 -123.280273438 m 1,0,-1
 290.719726562 -123.280273438 l 1,1,-1
 290.719726562 466.400390625 l 1,2,-1
 585.919921875 466.400390625 l 1,3,-1
 585.919921875 -123.280273438 l 1,0,-1
1175.59960938 761.599609375 m 1,4,-1
 1470.08007812 761.599609375 l 1,5,-1
 1470.08007812 466.400390625 l 1,6,-1
 1175.59960938 466.400390625 l 1,7,-1
 1175.59960938 -123.280273438 l 1,8,-1
 880.400390625 -123.280273438 l 1,9,-1
 880.400390625 466.400390625 l 1,10,-1
 585.919921875 466.400390625 l 1,11,-1
 585.919921875 761.599609375 l 1,12,-1
 880.400390625 761.599609375 l 1,13,-1
 880.400390625 1351.28027344 l 1,14,-1
 1175.59960938 1351.28027344 l 1,15,-1
 1175.59960938 761.599609375 l 1,4,-1
1765.28027344 761.599609375 m 1,16,-1
 1470.08007812 761.599609375 l 1,17,-1
 1470.08007812 1351.28027344 l 1,18,-1
 1765.28027344 1351.28027344 l 1,19,-1
 1765.28027344 761.599609375 l 1,16,-1
1470.08007812 466.400390625 m 1,20,-1
 1765.28027344 466.400390625 l 1,21,-1
 1765.28027344 -123.280273438 l 1,22,-1
 1470.08007812 -123.280273438 l 1,23,-1
 1470.08007812 466.400390625 l 1,20,-1
290.719726562 1351.28027344 m 1,24,-1
 585.919921875 1351.28027344 l 1,25,-1
 585.919921875 761.599609375 l 1,26,-1
 290.719726562 761.599609375 l 1,27,-1
 290.719726562 1351.28027344 l 1,24,-1
EndSplineSet
EndChar

StartChar: uni0417
Encoding: 1047 1047 130
Width: 2056
VWidth: 1646
GlyphClass: 2
Flags: W
LayerCount: 2
Fore
SplineSet
585.919921875 171.919921875 m 1,0,-1
 290.719726562 171.919921875 l 1,1,-1
 290.719726562 466.400390625 l 1,2,-1
 585.919921875 466.400390625 l 1,3,-1
 585.919921875 171.919921875 l 1,0,-1
1470.08007812 761.599609375 m 1,4,-1
 1470.08007812 466.400390625 l 1,5,-1
 880.400390625 466.400390625 l 1,6,-1
 880.400390625 761.599609375 l 1,7,-1
 1470.08007812 761.599609375 l 1,4,-1
585.919921875 1056.79980469 m 1,8,-1
 585.919921875 1351.28027344 l 1,9,-1
 1470.08007812 1351.28027344 l 1,10,-1
 1470.08007812 1056.79980469 l 1,11,-1
 585.919921875 1056.79980469 l 1,8,-1
1470.08007812 171.919921875 m 1,12,-1
 1470.08007812 -123.280273438 l 1,13,-1
 585.919921875 -123.280273438 l 1,14,-1
 585.919921875 171.919921875 l 1,15,-1
 1470.08007812 171.919921875 l 1,12,-1
1765.28027344 171.919921875 m 1,16,-1
 1470.08007812 171.919921875 l 1,17,-1
 1470.08007812 466.400390625 l 1,18,-1
 1765.28027344 466.400390625 l 1,19,-1
 1765.28027344 171.919921875 l 1,16,-1
1765.28027344 761.599609375 m 1,20,-1
 1470.08007812 761.599609375 l 1,21,-1
 1470.08007812 1056.79980469 l 1,22,-1
 1765.28027344 1056.79980469 l 1,23,-1
 1765.28027344 761.599609375 l 1,20,-1
585.919921875 761.599609375 m 1,24,-1
 290.719726562 761.599609375 l 1,25,-1
 290.719726562 1056.79980469 l 1,26,-1
 585.919921875 1056.79980469 l 1,27,-1
 585.919921875 761.599609375 l 1,24,-1
EndSplineSet
EndChar

StartChar: uni0418
Encoding: 1048 1048 131
Width: 2056
VWidth: 1646
GlyphClass: 2
Flags: W
LayerCount: 2
Fore
SplineSet
585.919921875 171.919921875 m 1,0,-1
 585.919921875 -123.280273438 l 1,1,-1
 290.719726562 -123.280273438 l 1,2,-1
 290.719726562 1351.28027344 l 1,3,-1
 585.919921875 1351.28027344 l 1,4,-1
 585.919921875 466.400390625 l 1,5,-1
 880.400390625 466.400390625 l 1,6,-1
 880.400390625 171.919921875 l 1,7,-1
 585.919921875 171.919921875 l 1,0,-1
1175.59960938 466.400390625 m 1,8,-1
 880.400390625 466.400390625 l 1,9,-1
 880.400390625 761.599609375 l 1,10,-1
 1175.59960938 761.599609375 l 1,11,-1
 1175.59960938 466.400390625 l 1,8,-1
1765.28027344 -123.280273438 m 1,12,-1
 1470.08007812 -123.280273438 l 1,13,-1
 1470.08007812 761.599609375 l 1,14,-1
 1175.59960938 761.599609375 l 1,15,-1
 1175.59960938 1056.79980469 l 1,16,-1
 1470.08007812 1056.79980469 l 1,17,-1
 1470.08007812 1351.28027344 l 1,18,-1
 1765.28027344 1351.28027344 l 1,19,-1
 1765.28027344 -123.280273438 l 1,12,-1
EndSplineSet
EndChar

StartChar: uni0419
Encoding: 1049 1049 132
Width: 2056
VWidth: 1646
GlyphClass: 2
Flags: W
LayerCount: 2
Fore
SplineSet
585.919921875 171.919921875 m 1,0,-1
 585.919921875 -123.280273438 l 1,1,-1
 290.719726562 -123.280273438 l 1,2,-1
 290.719726562 1351.28027344 l 1,3,-1
 585.919921875 1351.28027344 l 1,4,-1
 585.919921875 466.400390625 l 1,5,-1
 880.400390625 466.400390625 l 1,6,-1
 880.400390625 171.919921875 l 1,7,-1
 585.919921875 171.919921875 l 1,0,-1
1175.59960938 466.400390625 m 1,8,-1
 880.400390625 466.400390625 l 1,9,-1
 880.400390625 761.599609375 l 1,10,-1
 1175.59960938 761.599609375 l 1,11,-1
 1175.59960938 466.400390625 l 1,8,-1
1765.28027344 -123.280273438 m 1,12,-1
 1470.08007812 -123.280273438 l 1,13,-1
 1470.08007812 761.599609375 l 1,14,-1
 1175.59960938 761.599609375 l 1,15,-1
 1175.59960938 1056.79980469 l 1,16,-1
 1470.08007812 1056.79980469 l 1,17,-1
 1470.08007812 1351.28027344 l 1,18,-1
 1765.28027344 1351.28027344 l 1,19,-1
 1765.28027344 -123.280273438 l 1,12,-1
EndSplineSet
EndChar

StartChar: uni041A
Encoding: 1050 1050 133
Width: 2056
VWidth: 1646
GlyphClass: 2
Flags: W
LayerCount: 2
Fore
SplineSet
585.919921875 761.599609375 m 1,0,-1
 1175.59960938 761.599609375 l 1,1,-1
 1175.59960938 467.120117188 l 1,2,-1
 585.919921875 467.120117188 l 1,3,-1
 585.919921875 -123.280273438 l 1,4,-1
 290.719726562 -123.280273438 l 1,5,-1
 290.719726562 1351.28027344 l 1,6,-1
 585.919921875 1351.28027344 l 1,7,-1
 585.919921875 761.599609375 l 1,0,-1
1470.08007812 171.919921875 m 1,8,-1
 1175.59960938 171.919921875 l 1,9,-1
 1175.59960938 467.120117188 l 1,10,-1
 1470.08007812 467.120117188 l 1,11,-1
 1470.08007812 171.919921875 l 1,8,-1
1765.28027344 -123.280273438 m 1,12,-1
 1470.08007812 -123.280273438 l 1,13,-1
 1470.08007812 171.919921875 l 1,14,-1
 1765.28027344 171.919921875 l 1,15,-1
 1765.28027344 -123.280273438 l 1,12,-1
1765.28027344 1351.28027344 m 1,16,-1
 1765.28027344 1056.79980469 l 1,17,-1
 1470.08007812 1056.79980469 l 1,18,-1
 1470.08007812 1351.28027344 l 1,19,-1
 1765.28027344 1351.28027344 l 1,16,-1
1470.08007812 1056.79980469 m 1,20,-1
 1470.08007812 761.599609375 l 1,21,-1
 1175.59960938 761.599609375 l 1,22,-1
 1175.59960938 1056.79980469 l 1,23,-1
 1470.08007812 1056.79980469 l 1,20,-1
EndSplineSet
EndChar

StartChar: uni041B
Encoding: 1051 1051 134
Width: 2056
VWidth: 1646
GlyphClass: 2
Flags: W
LayerCount: 2
Fore
SplineSet
585.919921875 -123.280273438 m 1,0,-1
 290.719726562 -123.280273438 l 1,1,-1
 290.719726562 171.919921875 l 1,2,-1
 585.919921875 171.919921875 l 1,3,-1
 585.919921875 -123.280273438 l 1,0,-1
1765.28027344 -123.280273438 m 1,4,-1
 1470.08007812 -123.280273438 l 1,5,-1
 1470.08007812 1056.79980469 l 1,6,-1
 880.400390625 1056.79980469 l 1,7,-1
 880.400390625 171.919921875 l 1,8,-1
 585.919921875 171.919921875 l 1,9,-1
 585.919921875 1351.28027344 l 1,10,-1
 1765.28027344 1351.28027344 l 1,11,-1
 1765.28027344 -123.280273438 l 1,4,-1
EndSplineSet
EndChar

StartChar: uni041C
Encoding: 1052 1052 135
Width: 2056
VWidth: 1646
GlyphClass: 2
Flags: W
LayerCount: 2
Fore
SplineSet
878.959960938 174.799804688 m 1,0,-1
 878.959960938 763.040039062 l 1,1,-1
 1172.71972656 763.040039062 l 1,2,-1
 1172.71972656 174.799804688 l 1,3,-1
 878.959960938 174.799804688 l 1,0,-1
1471.51953125 1351.28027344 m 1,4,-1
 1765.28027344 1351.28027344 l 1,5,-1
 1765.28027344 -123.280273438 l 1,6,-1
 1471.51953125 -123.280273438 l 1,7,-1
 1471.51953125 763.040039062 l 1,8,-1
 1172.71972656 763.040039062 l 1,9,-1
 1172.71972656 1058.24023438 l 1,10,-1
 1471.51953125 1058.24023438 l 1,11,-1
 1471.51953125 1351.28027344 l 1,4,-1
584.48046875 1058.24023438 m 1,12,-1
 878.959960938 1058.24023438 l 1,13,-1
 878.959960938 763.040039062 l 1,14,-1
 584.48046875 763.040039062 l 1,15,-1
 584.48046875 -123.280273438 l 1,16,-1
 290.719726562 -123.280273438 l 1,17,-1
 290.719726562 1351.28027344 l 1,18,-1
 584.48046875 1351.28027344 l 1,19,-1
 584.48046875 1058.24023438 l 1,12,-1
EndSplineSet
EndChar

StartChar: uni041D
Encoding: 1053 1053 136
Width: 2056
VWidth: 1646
GlyphClass: 2
Flags: W
LayerCount: 2
Fore
SplineSet
1470.08007812 1351.28027344 m 1,0,-1
 1765.28027344 1351.28027344 l 1,1,-1
 1765.28027344 -123.280273438 l 1,2,-1
 1470.08007812 -123.280273438 l 1,3,-1
 1470.08007812 467.120117188 l 1,4,-1
 585.919921875 467.120117188 l 1,5,-1
 585.919921875 -123.280273438 l 1,6,-1
 290.719726562 -123.280273438 l 1,7,-1
 290.719726562 1351.28027344 l 1,8,-1
 585.919921875 1351.28027344 l 1,9,-1
 585.919921875 761.599609375 l 1,10,-1
 1470.08007812 761.599609375 l 1,11,-1
 1470.08007812 1351.28027344 l 1,0,-1
EndSplineSet
EndChar

StartChar: uni041E
Encoding: 1054 1054 137
Width: 2056
VWidth: 1646
GlyphClass: 2
Flags: W
LayerCount: 2
Fore
SplineSet
290.719726562 1056.79980469 m 1,0,-1
 585.919921875 1056.79980469 l 1,1,-1
 585.919921875 171.919921875 l 1,2,-1
 290.719726562 171.919921875 l 1,3,-1
 290.719726562 1056.79980469 l 1,0,-1
1470.08007812 1351.28027344 m 1,4,-1
 1470.08007812 1056.79980469 l 1,5,-1
 585.919921875 1056.79980469 l 1,6,-1
 585.919921875 1351.28027344 l 1,7,-1
 1470.08007812 1351.28027344 l 1,4,-1
585.919921875 -123.280273438 m 1,8,-1
 585.919921875 171.919921875 l 1,9,-1
 1470.08007812 171.919921875 l 1,10,-1
 1470.08007812 -123.280273438 l 1,11,-1
 585.919921875 -123.280273438 l 1,8,-1
1470.08007812 1056.79980469 m 1,12,-1
 1765.28027344 1056.79980469 l 1,13,-1
 1765.28027344 171.919921875 l 1,14,-1
 1470.08007812 171.919921875 l 1,15,-1
 1470.08007812 1056.79980469 l 1,12,-1
EndSplineSet
EndChar

StartChar: uni041F
Encoding: 1055 1055 138
Width: 2056
VWidth: 1646
GlyphClass: 2
Flags: W
LayerCount: 2
Fore
SplineSet
585.919921875 -123.280273438 m 1,0,-1
 290.719726562 -123.280273438 l 1,1,-1
 290.719726562 1351.28027344 l 1,2,-1
 1765.28027344 1351.28027344 l 1,3,-1
 1765.28027344 -123.280273438 l 1,4,-1
 1470.08007812 -123.280273438 l 1,5,-1
 1470.08007812 1056.79980469 l 1,6,-1
 585.919921875 1056.79980469 l 1,7,-1
 585.919921875 -123.280273438 l 1,0,-1
EndSplineSet
EndChar

StartChar: uni0420
Encoding: 1056 1056 139
Width: 2056
VWidth: 1646
GlyphClass: 2
Flags: W
LayerCount: 2
Fore
SplineSet
585.919921875 1056.79980469 m 1,0,-1
 585.919921875 761.599609375 l 1,1,-1
 1470.08007812 761.599609375 l 1,2,-1
 1470.08007812 467.120117188 l 1,3,-1
 585.919921875 467.120117188 l 1,4,-1
 585.919921875 -123.280273438 l 1,5,-1
 290.719726562 -123.280273438 l 1,6,-1
 290.719726562 1351.28027344 l 1,7,-1
 1470.08007812 1351.28027344 l 1,8,-1
 1470.08007812 1056.79980469 l 1,9,-1
 585.919921875 1056.79980469 l 1,0,-1
1470.08007812 1056.79980469 m 1,10,-1
 1765.28027344 1056.79980469 l 1,11,-1
 1765.28027344 761.599609375 l 1,12,-1
 1470.08007812 761.599609375 l 1,13,-1
 1470.08007812 1056.79980469 l 1,10,-1
EndSplineSet
EndChar

StartChar: uni0421
Encoding: 1057 1057 140
Width: 2056
VWidth: 1646
GlyphClass: 2
Flags: W
LayerCount: 2
Fore
SplineSet
1765.28027344 -123.280273438 m 1,0,-1
 585.919921875 -123.280273438 l 1,1,-1
 585.919921875 171.919921875 l 1,2,-1
 1765.28027344 171.919921875 l 1,3,-1
 1765.28027344 -123.280273438 l 1,0,-1
290.719726562 1056.79980469 m 1,4,-1
 585.919921875 1056.79980469 l 1,5,-1
 585.919921875 171.919921875 l 1,6,-1
 290.719726562 171.919921875 l 1,7,-1
 290.719726562 1056.79980469 l 1,4,-1
1765.28027344 1351.28027344 m 1,8,-1
 1765.28027344 1056.79980469 l 1,9,-1
 585.919921875 1056.79980469 l 1,10,-1
 585.919921875 1351.28027344 l 1,11,-1
 1765.28027344 1351.28027344 l 1,8,-1
EndSplineSet
EndChar

StartChar: uni0422
Encoding: 1058 1058 141
Width: 2056
VWidth: 1646
GlyphClass: 2
Flags: W
LayerCount: 2
Fore
SplineSet
290.719726562 1351.28027344 m 1,0,-1
 1765.28027344 1351.28027344 l 1,1,-1
 1765.28027344 1056.79980469 l 1,2,-1
 1175.59960938 1056.79980469 l 1,3,-1
 1175.59960938 -123.280273438 l 1,4,-1
 880.400390625 -123.280273438 l 1,5,-1
 880.400390625 1056.79980469 l 1,6,-1
 290.719726562 1056.79980469 l 1,7,-1
 290.719726562 1351.28027344 l 1,0,-1
EndSplineSet
EndChar

StartChar: uni0423
Encoding: 1059 1059 142
Width: 2056
VWidth: 1646
GlyphClass: 2
Flags: W
LayerCount: 2
Fore
SplineSet
290.719726562 1351.28027344 m 1,0,-1
 585.919921875 1351.28027344 l 1,1,-1
 585.919921875 761.599609375 l 1,2,-1
 290.719726562 761.599609375 l 1,3,-1
 290.719726562 1351.28027344 l 1,0,-1
1765.28027344 761.599609375 m 1,4,-1
 1470.08007812 761.599609375 l 1,5,-1
 1470.08007812 1351.28027344 l 1,6,-1
 1765.28027344 1351.28027344 l 1,7,-1
 1765.28027344 761.599609375 l 1,4,-1
1175.59960938 171.919921875 m 1,8,-1
 880.400390625 171.919921875 l 1,9,-1
 880.400390625 466.400390625 l 1,10,-1
 1175.59960938 466.400390625 l 1,11,-1
 1175.59960938 171.919921875 l 1,8,-1
880.400390625 466.400390625 m 1,12,-1
 585.919921875 466.400390625 l 1,13,-1
 585.919921875 761.599609375 l 1,14,-1
 880.400390625 761.599609375 l 1,15,-1
 880.400390625 466.400390625 l 1,12,-1
290.719726562 -123.280273438 m 1,16,-1
 290.719726562 171.919921875 l 1,17,-1
 880.400390625 171.919921875 l 1,18,-1
 880.400390625 -123.280273438 l 1,19,-1
 290.719726562 -123.280273438 l 1,16,-1
1470.08007812 466.400390625 m 1,20,-1
 1175.59960938 466.400390625 l 1,21,-1
 1175.59960938 761.599609375 l 1,22,-1
 1470.08007812 761.599609375 l 1,23,-1
 1470.08007812 466.400390625 l 1,20,-1
EndSplineSet
EndChar

StartChar: uni0424
Encoding: 1060 1060 143
Width: 2056
VWidth: 1646
GlyphClass: 2
Flags: W
LayerCount: 2
Fore
SplineSet
1470.08007812 761.599609375 m 1,0,-1
 1175.59960938 761.599609375 l 1,1,-1
 1175.59960938 466.400390625 l 1,2,-1
 1470.08007812 466.400390625 l 1,3,-1
 1470.08007812 761.599609375 l 1,0,-1
290.719726562 171.919921875 m 1,4,-1
 290.719726562 1056.79980469 l 1,5,-1
 880.400390625 1056.79980469 l 1,6,-1
 880.400390625 1351.28027344 l 1,7,-1
 1175.59960938 1351.28027344 l 1,8,-1
 1175.59960938 1056.79980469 l 1,9,-1
 1765.28027344 1056.79980469 l 1,10,-1
 1765.28027344 171.919921875 l 1,11,-1
 1175.59960938 171.919921875 l 1,12,-1
 1175.59960938 -123.280273438 l 1,13,-1
 880.400390625 -123.280273438 l 1,14,-1
 880.400390625 171.919921875 l 1,15,-1
 290.719726562 171.919921875 l 1,4,-1
585.919921875 466.400390625 m 1,16,-1
 880.400390625 466.400390625 l 1,17,-1
 880.400390625 761.599609375 l 1,18,-1
 585.919921875 761.599609375 l 1,19,-1
 585.919921875 466.400390625 l 1,16,-1
EndSplineSet
EndChar

StartChar: uni0425
Encoding: 1061 1061 144
Width: 2056
VWidth: 1646
GlyphClass: 2
Flags: W
LayerCount: 2
Fore
SplineSet
290.719726562 -123.280273438 m 1,0,-1
 290.719726562 171.919921875 l 1,1,-1
 585.919921875 171.919921875 l 1,2,-1
 585.919921875 -123.280273438 l 1,3,-1
 290.719726562 -123.280273438 l 1,0,-1
290.719726562 1351.28027344 m 1,4,-1
 585.919921875 1351.28027344 l 1,5,-1
 585.919921875 1056.79980469 l 1,6,-1
 290.719726562 1056.79980469 l 1,7,-1
 290.719726562 1351.28027344 l 1,4,-1
1470.08007812 171.919921875 m 1,8,-1
 1175.59960938 171.919921875 l 1,9,-1
 1175.59960938 467.120117188 l 1,10,-1
 1470.08007812 467.120117188 l 1,11,-1
 1470.08007812 171.919921875 l 1,8,-1
1765.28027344 -123.280273438 m 1,12,-1
 1470.08007812 -123.280273438 l 1,13,-1
 1470.08007812 171.919921875 l 1,14,-1
 1765.28027344 171.919921875 l 1,15,-1
 1765.28027344 -123.280273438 l 1,12,-1
585.919921875 171.919921875 m 1,16,-1
 585.919921875 467.120117188 l 1,17,-1
 880.400390625 467.120117188 l 1,18,-1
 880.400390625 171.919921875 l 1,19,-1
 585.919921875 171.919921875 l 1,16,-1
1470.08007812 1056.79980469 m 1,20,-1
 1470.08007812 761.599609375 l 1,21,-1
 1175.59960938 761.599609375 l 1,22,-1
 1175.59960938 1056.79980469 l 1,23,-1
 1470.08007812 1056.79980469 l 1,20,-1
585.919921875 1056.79980469 m 1,24,-1
 880.400390625 1056.79980469 l 1,25,-1
 880.400390625 761.599609375 l 1,26,-1
 585.919921875 761.599609375 l 1,27,-1
 585.919921875 1056.79980469 l 1,24,-1
1765.28027344 1351.28027344 m 1,28,-1
 1765.28027344 1056.79980469 l 1,29,-1
 1470.08007812 1056.79980469 l 1,30,-1
 1470.08007812 1351.28027344 l 1,31,-1
 1765.28027344 1351.28027344 l 1,28,-1
880.400390625 761.599609375 m 1,32,-1
 1175.59960938 761.599609375 l 1,33,-1
 1175.59960938 467.120117188 l 1,34,-1
 880.400390625 467.120117188 l 1,35,-1
 880.400390625 761.599609375 l 1,32,-1
EndSplineSet
EndChar

StartChar: uni0426
Encoding: 1062 1062 145
Width: 2056
VWidth: 1646
GlyphClass: 2
Flags: W
LayerCount: 2
Fore
SplineSet
290.719726562 1351.28027344 m 1,0,-1
 585.919921875 1351.28027344 l 1,1,-1
 585.919921875 466.400390625 l 1,2,-1
 1470.08007812 466.400390625 l 1,3,-1
 1470.08007812 1351.28027344 l 1,4,-1
 1765.28027344 1351.28027344 l 1,5,-1
 1765.28027344 -123.280273438 l 1,6,-1
 1470.08007812 -123.280273438 l 1,7,-1
 1470.08007812 171.919921875 l 1,8,-1
 290.719726562 171.919921875 l 1,9,-1
 290.719726562 1351.28027344 l 1,0,-1
EndSplineSet
EndChar

StartChar: uni0427
Encoding: 1063 1063 146
Width: 2056
VWidth: 1646
GlyphClass: 2
Flags: W
LayerCount: 2
Fore
SplineSet
290.719726562 1351.28027344 m 1,0,-1
 585.919921875 1351.28027344 l 1,1,-1
 585.919921875 761.599609375 l 1,2,-1
 290.719726562 761.599609375 l 1,3,-1
 290.719726562 1351.28027344 l 1,0,-1
1470.08007812 1351.28027344 m 1,4,-1
 1765.28027344 1351.28027344 l 1,5,-1
 1765.28027344 -123.280273438 l 1,6,-1
 1470.08007812 -123.280273438 l 1,7,-1
 1470.08007812 466.400390625 l 1,8,-1
 585.919921875 466.400390625 l 1,9,-1
 585.919921875 761.599609375 l 1,10,-1
 1470.08007812 761.599609375 l 1,11,-1
 1470.08007812 1351.28027344 l 1,4,-1
EndSplineSet
EndChar

StartChar: uni0428
Encoding: 1064 1064 147
Width: 2056
VWidth: 1646
GlyphClass: 2
Flags: W
LayerCount: 2
Fore
SplineSet
290.719726562 1351.28027344 m 1,0,-1
 585.919921875 1351.28027344 l 1,1,-1
 585.919921875 171.919921875 l 1,2,-1
 880.400390625 171.919921875 l 1,3,-1
 880.400390625 1351.28027344 l 1,4,-1
 1175.59960938 1351.28027344 l 1,5,-1
 1175.59960938 171.919921875 l 1,6,-1
 1470.08007812 171.919921875 l 1,7,-1
 1470.08007812 1351.28027344 l 1,8,-1
 1765.28027344 1351.28027344 l 1,9,-1
 1765.28027344 -123.280273438 l 1,10,-1
 290.719726562 -123.280273438 l 1,11,-1
 290.719726562 1351.28027344 l 1,0,-1
EndSplineSet
EndChar

StartChar: uni0429
Encoding: 1065 1065 148
Width: 2056
VWidth: 1646
GlyphClass: 2
Flags: W
LayerCount: 2
Fore
SplineSet
290.719726562 1351.28027344 m 1,0,-1
 585.919921875 1351.28027344 l 1,1,-1
 585.919921875 466.400390625 l 1,2,-1
 880.400390625 466.400390625 l 1,3,-1
 880.400390625 1351.28027344 l 1,4,-1
 1175.59960938 1351.28027344 l 1,5,-1
 1175.59960938 466.400390625 l 1,6,-1
 1470.08007812 466.400390625 l 1,7,-1
 1470.08007812 1351.28027344 l 1,8,-1
 1765.28027344 1351.28027344 l 1,9,-1
 1765.28027344 -123.280273438 l 1,10,-1
 1470.08007812 -123.280273438 l 1,11,-1
 1470.08007812 171.919921875 l 1,12,-1
 290.719726562 171.919921875 l 1,13,-1
 290.719726562 1351.28027344 l 1,0,-1
EndSplineSet
EndChar

StartChar: uni042A
Encoding: 1066 1066 149
Width: 2056
VWidth: 1646
GlyphClass: 2
Flags: W
LayerCount: 2
Fore
SplineSet
1765.28027344 171.919921875 m 1,0,-1
 1470.08007812 171.919921875 l 1,1,-1
 1470.08007812 466.400390625 l 1,2,-1
 1765.28027344 466.400390625 l 1,3,-1
 1765.28027344 171.919921875 l 1,0,-1
585.919921875 1056.79980469 m 1,4,-1
 290.719726562 1056.79980469 l 1,5,-1
 290.719726562 1351.28027344 l 1,6,-1
 880.400390625 1351.28027344 l 1,7,-1
 880.400390625 761.599609375 l 1,8,-1
 1470.08007812 761.599609375 l 1,9,-1
 1470.08007812 466.400390625 l 1,10,-1
 880.400390625 466.400390625 l 1,11,-1
 880.400390625 171.919921875 l 1,12,-1
 1470.08007812 171.919921875 l 1,13,-1
 1470.08007812 -123.280273438 l 1,14,-1
 585.919921875 -123.280273438 l 1,15,-1
 585.919921875 1056.79980469 l 1,4,-1
EndSplineSet
EndChar

StartChar: uni042B
Encoding: 1067 1067 150
Width: 2056
VWidth: 1646
GlyphClass: 2
Flags: W
LayerCount: 2
Fore
SplineSet
585.919921875 171.919921875 m 1,0,-1
 880.400390625 171.919921875 l 1,1,-1
 880.400390625 -123.280273438 l 1,2,-1
 290.719726562 -123.280273438 l 1,3,-1
 290.719726562 1351.28027344 l 1,4,-1
 585.919921875 1351.28027344 l 1,5,-1
 585.919921875 761.599609375 l 1,6,-1
 880.400390625 761.599609375 l 1,7,-1
 880.400390625 466.400390625 l 1,8,-1
 585.919921875 466.400390625 l 1,9,-1
 585.919921875 171.919921875 l 1,0,-1
1765.28027344 -123.280273438 m 1,10,-1
 1470.08007812 -123.280273438 l 1,11,-1
 1470.08007812 1351.28027344 l 1,12,-1
 1765.28027344 1351.28027344 l 1,13,-1
 1765.28027344 -123.280273438 l 1,10,-1
1175.59960938 171.919921875 m 1,14,-1
 880.400390625 171.919921875 l 1,15,-1
 880.400390625 466.400390625 l 1,16,-1
 1175.59960938 466.400390625 l 1,17,-1
 1175.59960938 171.919921875 l 1,14,-1
EndSplineSet
EndChar

StartChar: uni042C
Encoding: 1068 1068 151
Width: 2056
VWidth: 1646
GlyphClass: 2
Flags: W
LayerCount: 2
Fore
SplineSet
1765.28027344 171.919921875 m 1,0,-1
 1470.08007812 171.919921875 l 1,1,-1
 1470.08007812 466.400390625 l 1,2,-1
 1765.28027344 466.400390625 l 1,3,-1
 1765.28027344 171.919921875 l 1,0,-1
1470.08007812 171.919921875 m 1,4,-1
 1470.08007812 -123.280273438 l 1,5,-1
 290.719726562 -123.280273438 l 1,6,-1
 290.719726562 1351.28027344 l 1,7,-1
 585.919921875 1351.28027344 l 1,8,-1
 585.919921875 761.599609375 l 1,9,-1
 1470.08007812 761.599609375 l 1,10,-1
 1470.08007812 466.400390625 l 1,11,-1
 585.919921875 466.400390625 l 1,12,-1
 585.919921875 171.919921875 l 1,13,-1
 1470.08007812 171.919921875 l 1,4,-1
EndSplineSet
EndChar

StartChar: uni042D
Encoding: 1069 1069 152
Width: 2056
VWidth: 1646
GlyphClass: 2
Flags: W
LayerCount: 2
Fore
SplineSet
585.919921875 171.919921875 m 1,0,-1
 290.719726562 171.919921875 l 1,1,-1
 290.719726562 466.400390625 l 1,2,-1
 585.919921875 466.400390625 l 1,3,-1
 585.919921875 171.919921875 l 1,0,-1
1470.08007812 761.599609375 m 1,4,-1
 1470.08007812 1056.79980469 l 1,5,-1
 1765.28027344 1056.79980469 l 1,6,-1
 1765.28027344 171.919921875 l 1,7,-1
 1470.08007812 171.919921875 l 1,8,-1
 1470.08007812 466.400390625 l 1,9,-1
 880.400390625 466.400390625 l 1,10,-1
 880.400390625 761.599609375 l 1,11,-1
 1470.08007812 761.599609375 l 1,4,-1
585.919921875 1056.79980469 m 1,12,-1
 585.919921875 1351.28027344 l 1,13,-1
 1470.08007812 1351.28027344 l 1,14,-1
 1470.08007812 1056.79980469 l 1,15,-1
 585.919921875 1056.79980469 l 1,12,-1
1470.08007812 171.919921875 m 1,16,-1
 1470.08007812 -123.280273438 l 1,17,-1
 585.919921875 -123.280273438 l 1,18,-1
 585.919921875 171.919921875 l 1,19,-1
 1470.08007812 171.919921875 l 1,16,-1
585.919921875 761.599609375 m 1,20,-1
 290.719726562 761.599609375 l 1,21,-1
 290.719726562 1056.79980469 l 1,22,-1
 585.919921875 1056.79980469 l 1,23,-1
 585.919921875 761.599609375 l 1,20,-1
EndSplineSet
EndChar

StartChar: uni042E
Encoding: 1070 1070 153
Width: 2056
VWidth: 1646
GlyphClass: 2
Flags: W
LayerCount: 2
Fore
SplineSet
1470.08007812 1056.79980469 m 1,0,-1
 1765.28027344 1056.79980469 l 1,1,-1
 1765.28027344 171.919921875 l 1,2,-1
 1470.08007812 171.919921875 l 1,3,-1
 1470.08007812 1056.79980469 l 1,0,-1
585.919921875 -123.280273438 m 1,4,-1
 290.719726562 -123.280273438 l 1,5,-1
 290.719726562 1351.28027344 l 1,6,-1
 585.919921875 1351.28027344 l 1,7,-1
 585.919921875 761.599609375 l 1,8,-1
 880.400390625 761.599609375 l 1,9,-1
 880.400390625 1056.79980469 l 1,10,-1
 1175.59960938 1056.79980469 l 1,11,-1
 1175.59960938 171.919921875 l 1,12,-1
 880.400390625 171.919921875 l 1,13,-1
 880.400390625 466.400390625 l 1,14,-1
 585.919921875 466.400390625 l 1,15,-1
 585.919921875 -123.280273438 l 1,4,-1
1470.08007812 1056.79980469 m 1,16,-1
 1175.59960938 1056.79980469 l 1,17,-1
 1175.59960938 1351.28027344 l 1,18,-1
 1470.08007812 1351.28027344 l 1,19,-1
 1470.08007812 1056.79980469 l 1,16,-1
1470.08007812 -123.280273438 m 1,20,-1
 1175.59960938 -123.280273438 l 1,21,-1
 1175.59960938 171.919921875 l 1,22,-1
 1470.08007812 171.919921875 l 1,23,-1
 1470.08007812 -123.280273438 l 1,20,-1
EndSplineSet
EndChar

StartChar: uni042F
Encoding: 1071 1071 154
Width: 2056
VWidth: 1646
GlyphClass: 2
Flags: W
LayerCount: 2
Fore
SplineSet
585.919921875 1056.79980469 m 1,0,-1
 585.919921875 761.599609375 l 1,1,-1
 290.719726562 761.599609375 l 1,2,-1
 290.719726562 1056.79980469 l 1,3,-1
 585.919921875 1056.79980469 l 1,0,-1
290.719726562 -123.280273438 m 1,4,-1
 290.719726562 171.919921875 l 1,5,-1
 585.919921875 171.919921875 l 1,6,-1
 585.919921875 -123.280273438 l 1,7,-1
 290.719726562 -123.280273438 l 1,4,-1
880.400390625 467.120117188 m 1,8,-1
 880.400390625 171.919921875 l 1,9,-1
 585.919921875 171.919921875 l 1,10,-1
 585.919921875 761.599609375 l 1,11,-1
 1470.08007812 761.599609375 l 1,12,-1
 1470.08007812 1056.79980469 l 1,13,-1
 585.919921875 1056.79980469 l 1,14,-1
 585.919921875 1351.28027344 l 1,15,-1
 1765.28027344 1351.28027344 l 1,16,-1
 1765.28027344 -123.280273438 l 1,17,-1
 1470.08007812 -123.280273438 l 1,18,-1
 1470.08007812 467.120117188 l 1,19,-1
 880.400390625 467.120117188 l 1,8,-1
EndSplineSet
EndChar

StartChar: uni0430
Encoding: 1072 1072 155
Width: 2056
VWidth: 1646
GlyphClass: 2
Flags: W
LayerCount: 2
Fore
SplineSet
1470.08007812 1351.28027344 m 1,0,-1
 1470.08007812 1056.79980469 l 1,1,-1
 585.919921875 1056.79980469 l 1,2,-1
 585.919921875 1351.28027344 l 1,3,-1
 1470.08007812 1351.28027344 l 1,0,-1
1470.08007812 1056.79980469 m 1,4,-1
 1765.28027344 1056.79980469 l 1,5,-1
 1765.28027344 -123.280273438 l 1,6,-1
 1470.08007812 -123.280273438 l 1,7,-1
 1470.08007812 171.919921875 l 1,8,-1
 585.919921875 171.919921875 l 1,9,-1
 585.919921875 -123.280273438 l 1,10,-1
 290.719726562 -123.280273438 l 1,11,-1
 290.719726562 1056.79980469 l 1,12,-1
 585.919921875 1056.79980469 l 1,13,-1
 585.919921875 467.120117188 l 1,14,-1
 1470.08007812 467.120117188 l 1,15,-1
 1470.08007812 1056.79980469 l 1,4,-1
EndSplineSet
EndChar

StartChar: uni0431
Encoding: 1073 1073 156
Width: 2056
VWidth: 1646
GlyphClass: 2
Flags: W
LayerCount: 2
Fore
SplineSet
1765.28027344 171.919921875 m 1,0,-1
 1470.08007812 171.919921875 l 1,1,-1
 1470.08007812 466.400390625 l 1,2,-1
 1765.28027344 466.400390625 l 1,3,-1
 1765.28027344 171.919921875 l 1,0,-1
1470.08007812 171.919921875 m 1,4,-1
 1470.08007812 -123.280273438 l 1,5,-1
 290.719726562 -123.280273438 l 1,6,-1
 290.719726562 1351.28027344 l 1,7,-1
 1470.08007812 1351.28027344 l 1,8,-1
 1470.08007812 1056.79980469 l 1,9,-1
 585.919921875 1056.79980469 l 1,10,-1
 585.919921875 761.599609375 l 1,11,-1
 1470.08007812 761.599609375 l 1,12,-1
 1470.08007812 466.400390625 l 1,13,-1
 585.919921875 466.400390625 l 1,14,-1
 585.919921875 171.919921875 l 1,15,-1
 1470.08007812 171.919921875 l 1,4,-1
EndSplineSet
EndChar

StartChar: uni0432
Encoding: 1074 1074 157
Width: 2056
VWidth: 1646
GlyphClass: 2
Flags: W
LayerCount: 2
Fore
SplineSet
1765.28027344 171.919921875 m 1,0,-1
 1470.08007812 171.919921875 l 1,1,-1
 1470.08007812 467.120117188 l 1,2,-1
 1765.28027344 467.120117188 l 1,3,-1
 1765.28027344 171.919921875 l 1,0,-1
585.919921875 761.599609375 m 1,4,-1
 1470.08007812 761.599609375 l 1,5,-1
 1470.08007812 467.120117188 l 1,6,-1
 585.919921875 467.120117188 l 1,7,-1
 585.919921875 171.919921875 l 1,8,-1
 1470.08007812 171.919921875 l 1,9,-1
 1470.08007812 -123.280273438 l 1,10,-1
 290.719726562 -123.280273438 l 1,11,-1
 290.719726562 1351.28027344 l 1,12,-1
 1470.08007812 1351.28027344 l 1,13,-1
 1470.08007812 1056.79980469 l 1,14,-1
 585.919921875 1056.79980469 l 1,15,-1
 585.919921875 761.599609375 l 1,4,-1
1765.28027344 761.599609375 m 1,16,-1
 1470.08007812 761.599609375 l 1,17,-1
 1470.08007812 1056.79980469 l 1,18,-1
 1765.28027344 1056.79980469 l 1,19,-1
 1765.28027344 761.599609375 l 1,16,-1
EndSplineSet
EndChar

StartChar: uni0433
Encoding: 1075 1075 158
Width: 2056
VWidth: 1646
GlyphClass: 2
Flags: W
LayerCount: 2
Fore
SplineSet
585.919921875 -123.280273438 m 1,0,-1
 290.719726562 -123.280273438 l 1,1,-1
 290.719726562 1351.28027344 l 1,2,-1
 1765.28027344 1351.28027344 l 1,3,-1
 1765.28027344 1056.79980469 l 1,4,-1
 585.919921875 1056.79980469 l 1,5,-1
 585.919921875 -123.280273438 l 1,0,-1
EndSplineSet
EndChar

StartChar: uni0434
Encoding: 1076 1076 159
Width: 2056
VWidth: 1646
GlyphClass: 2
Flags: W
LayerCount: 2
Fore
SplineSet
585.919921875 171.919921875 m 1,0,-1
 585.919921875 -123.280273438 l 1,1,-1
 290.719726562 -123.280273438 l 1,2,-1
 290.719726562 466.400390625 l 1,3,-1
 585.919921875 466.400390625 l 1,4,-1
 585.919921875 1351.28027344 l 1,5,-1
 1470.08007812 1351.28027344 l 1,6,-1
 1470.08007812 466.400390625 l 1,7,-1
 1765.28027344 466.400390625 l 1,8,-1
 1765.28027344 -123.280273438 l 1,9,-1
 1470.08007812 -123.280273438 l 1,10,-1
 1470.08007812 171.919921875 l 1,11,-1
 585.919921875 171.919921875 l 1,0,-1
1175.59960938 466.400390625 m 1,12,-1
 1175.59960938 1056.79980469 l 1,13,-1
 880.400390625 1056.79980469 l 1,14,-1
 880.400390625 466.400390625 l 1,15,-1
 1175.59960938 466.400390625 l 1,12,-1
EndSplineSet
EndChar

StartChar: uni0435
Encoding: 1077 1077 160
Width: 2056
VWidth: 1646
GlyphClass: 2
Flags: W
LayerCount: 2
Fore
SplineSet
1765.28027344 1056.79980469 m 1,0,-1
 585.919921875 1056.79980469 l 1,1,-1
 585.919921875 761.599609375 l 1,2,-1
 1470.08007812 761.599609375 l 1,3,-1
 1470.08007812 467.120117188 l 1,4,-1
 585.919921875 467.120117188 l 1,5,-1
 585.919921875 171.919921875 l 1,6,-1
 1765.28027344 171.919921875 l 1,7,-1
 1765.28027344 -123.280273438 l 1,8,-1
 290.719726562 -123.280273438 l 1,9,-1
 290.719726562 1351.28027344 l 1,10,-1
 1765.28027344 1351.28027344 l 1,11,-1
 1765.28027344 1056.79980469 l 1,0,-1
EndSplineSet
EndChar

StartChar: uni0436
Encoding: 1078 1078 161
Width: 2056
VWidth: 1646
GlyphClass: 2
Flags: W
LayerCount: 2
Fore
SplineSet
585.919921875 -123.280273438 m 1,0,-1
 290.719726562 -123.280273438 l 1,1,-1
 290.719726562 466.400390625 l 1,2,-1
 585.919921875 466.400390625 l 1,3,-1
 585.919921875 -123.280273438 l 1,0,-1
1175.59960938 761.599609375 m 1,4,-1
 1470.08007812 761.599609375 l 1,5,-1
 1470.08007812 466.400390625 l 1,6,-1
 1175.59960938 466.400390625 l 1,7,-1
 1175.59960938 -123.280273438 l 1,8,-1
 880.400390625 -123.280273438 l 1,9,-1
 880.400390625 466.400390625 l 1,10,-1
 585.919921875 466.400390625 l 1,11,-1
 585.919921875 761.599609375 l 1,12,-1
 880.400390625 761.599609375 l 1,13,-1
 880.400390625 1351.28027344 l 1,14,-1
 1175.59960938 1351.28027344 l 1,15,-1
 1175.59960938 761.599609375 l 1,4,-1
1765.28027344 761.599609375 m 1,16,-1
 1470.08007812 761.599609375 l 1,17,-1
 1470.08007812 1351.28027344 l 1,18,-1
 1765.28027344 1351.28027344 l 1,19,-1
 1765.28027344 761.599609375 l 1,16,-1
1470.08007812 466.400390625 m 1,20,-1
 1765.28027344 466.400390625 l 1,21,-1
 1765.28027344 -123.280273438 l 1,22,-1
 1470.08007812 -123.280273438 l 1,23,-1
 1470.08007812 466.400390625 l 1,20,-1
290.719726562 1351.28027344 m 1,24,-1
 585.919921875 1351.28027344 l 1,25,-1
 585.919921875 761.599609375 l 1,26,-1
 290.719726562 761.599609375 l 1,27,-1
 290.719726562 1351.28027344 l 1,24,-1
EndSplineSet
EndChar

StartChar: uni0437
Encoding: 1079 1079 162
Width: 2056
VWidth: 1646
GlyphClass: 2
Flags: W
LayerCount: 2
Fore
SplineSet
585.919921875 171.919921875 m 1,0,-1
 290.719726562 171.919921875 l 1,1,-1
 290.719726562 466.400390625 l 1,2,-1
 585.919921875 466.400390625 l 1,3,-1
 585.919921875 171.919921875 l 1,0,-1
1470.08007812 761.599609375 m 1,4,-1
 1470.08007812 466.400390625 l 1,5,-1
 880.400390625 466.400390625 l 1,6,-1
 880.400390625 761.599609375 l 1,7,-1
 1470.08007812 761.599609375 l 1,4,-1
585.919921875 1056.79980469 m 1,8,-1
 585.919921875 1351.28027344 l 1,9,-1
 1470.08007812 1351.28027344 l 1,10,-1
 1470.08007812 1056.79980469 l 1,11,-1
 585.919921875 1056.79980469 l 1,8,-1
1470.08007812 171.919921875 m 1,12,-1
 1470.08007812 -123.280273438 l 1,13,-1
 585.919921875 -123.280273438 l 1,14,-1
 585.919921875 171.919921875 l 1,15,-1
 1470.08007812 171.919921875 l 1,12,-1
1765.28027344 171.919921875 m 1,16,-1
 1470.08007812 171.919921875 l 1,17,-1
 1470.08007812 466.400390625 l 1,18,-1
 1765.28027344 466.400390625 l 1,19,-1
 1765.28027344 171.919921875 l 1,16,-1
1765.28027344 761.599609375 m 1,20,-1
 1470.08007812 761.599609375 l 1,21,-1
 1470.08007812 1056.79980469 l 1,22,-1
 1765.28027344 1056.79980469 l 1,23,-1
 1765.28027344 761.599609375 l 1,20,-1
585.919921875 761.599609375 m 1,24,-1
 290.719726562 761.599609375 l 1,25,-1
 290.719726562 1056.79980469 l 1,26,-1
 585.919921875 1056.79980469 l 1,27,-1
 585.919921875 761.599609375 l 1,24,-1
EndSplineSet
EndChar

StartChar: uni0438
Encoding: 1080 1080 163
Width: 2056
VWidth: 1646
GlyphClass: 2
Flags: W
LayerCount: 2
Fore
SplineSet
585.919921875 171.919921875 m 1,0,-1
 585.919921875 -123.280273438 l 1,1,-1
 290.719726562 -123.280273438 l 1,2,-1
 290.719726562 1351.28027344 l 1,3,-1
 585.919921875 1351.28027344 l 1,4,-1
 585.919921875 466.400390625 l 1,5,-1
 880.400390625 466.400390625 l 1,6,-1
 880.400390625 171.919921875 l 1,7,-1
 585.919921875 171.919921875 l 1,0,-1
1175.59960938 466.400390625 m 1,8,-1
 880.400390625 466.400390625 l 1,9,-1
 880.400390625 761.599609375 l 1,10,-1
 1175.59960938 761.599609375 l 1,11,-1
 1175.59960938 466.400390625 l 1,8,-1
1765.28027344 -123.280273438 m 1,12,-1
 1470.08007812 -123.280273438 l 1,13,-1
 1470.08007812 761.599609375 l 1,14,-1
 1175.59960938 761.599609375 l 1,15,-1
 1175.59960938 1056.79980469 l 1,16,-1
 1470.08007812 1056.79980469 l 1,17,-1
 1470.08007812 1351.28027344 l 1,18,-1
 1765.28027344 1351.28027344 l 1,19,-1
 1765.28027344 -123.280273438 l 1,12,-1
EndSplineSet
EndChar

StartChar: uni0439
Encoding: 1081 1081 164
Width: 2056
VWidth: 1646
GlyphClass: 2
Flags: W
LayerCount: 2
Fore
SplineSet
585.919921875 171.919921875 m 1,0,-1
 585.919921875 -123.280273438 l 1,1,-1
 290.719726562 -123.280273438 l 1,2,-1
 290.719726562 1351.28027344 l 1,3,-1
 585.919921875 1351.28027344 l 1,4,-1
 585.919921875 466.400390625 l 1,5,-1
 880.400390625 466.400390625 l 1,6,-1
 880.400390625 171.919921875 l 1,7,-1
 585.919921875 171.919921875 l 1,0,-1
1175.59960938 466.400390625 m 1,8,-1
 880.400390625 466.400390625 l 1,9,-1
 880.400390625 761.599609375 l 1,10,-1
 1175.59960938 761.599609375 l 1,11,-1
 1175.59960938 466.400390625 l 1,8,-1
1765.28027344 -123.280273438 m 1,12,-1
 1470.08007812 -123.280273438 l 1,13,-1
 1470.08007812 761.599609375 l 1,14,-1
 1175.59960938 761.599609375 l 1,15,-1
 1175.59960938 1056.79980469 l 1,16,-1
 1470.08007812 1056.79980469 l 1,17,-1
 1470.08007812 1351.28027344 l 1,18,-1
 1765.28027344 1351.28027344 l 1,19,-1
 1765.28027344 -123.280273438 l 1,12,-1
EndSplineSet
EndChar

StartChar: uni043A
Encoding: 1082 1082 165
Width: 2056
VWidth: 1646
GlyphClass: 2
Flags: W
LayerCount: 2
Fore
SplineSet
585.919921875 761.599609375 m 1,0,-1
 1175.59960938 761.599609375 l 1,1,-1
 1175.59960938 467.120117188 l 1,2,-1
 585.919921875 467.120117188 l 1,3,-1
 585.919921875 -123.280273438 l 1,4,-1
 290.719726562 -123.280273438 l 1,5,-1
 290.719726562 1351.28027344 l 1,6,-1
 585.919921875 1351.28027344 l 1,7,-1
 585.919921875 761.599609375 l 1,0,-1
1470.08007812 171.919921875 m 1,8,-1
 1175.59960938 171.919921875 l 1,9,-1
 1175.59960938 467.120117188 l 1,10,-1
 1470.08007812 467.120117188 l 1,11,-1
 1470.08007812 171.919921875 l 1,8,-1
1765.28027344 -123.280273438 m 1,12,-1
 1470.08007812 -123.280273438 l 1,13,-1
 1470.08007812 171.919921875 l 1,14,-1
 1765.28027344 171.919921875 l 1,15,-1
 1765.28027344 -123.280273438 l 1,12,-1
1765.28027344 1351.28027344 m 1,16,-1
 1765.28027344 1056.79980469 l 1,17,-1
 1470.08007812 1056.79980469 l 1,18,-1
 1470.08007812 1351.28027344 l 1,19,-1
 1765.28027344 1351.28027344 l 1,16,-1
1470.08007812 1056.79980469 m 1,20,-1
 1470.08007812 761.599609375 l 1,21,-1
 1175.59960938 761.599609375 l 1,22,-1
 1175.59960938 1056.79980469 l 1,23,-1
 1470.08007812 1056.79980469 l 1,20,-1
EndSplineSet
EndChar

StartChar: uni043B
Encoding: 1083 1083 166
Width: 2056
VWidth: 1646
GlyphClass: 2
Flags: W
LayerCount: 2
Fore
SplineSet
585.919921875 -123.280273438 m 1,0,-1
 290.719726562 -123.280273438 l 1,1,-1
 290.719726562 171.919921875 l 1,2,-1
 585.919921875 171.919921875 l 1,3,-1
 585.919921875 -123.280273438 l 1,0,-1
1765.28027344 -123.280273438 m 1,4,-1
 1470.08007812 -123.280273438 l 1,5,-1
 1470.08007812 1056.79980469 l 1,6,-1
 880.400390625 1056.79980469 l 1,7,-1
 880.400390625 171.919921875 l 1,8,-1
 585.919921875 171.919921875 l 1,9,-1
 585.919921875 1351.28027344 l 1,10,-1
 1765.28027344 1351.28027344 l 1,11,-1
 1765.28027344 -123.280273438 l 1,4,-1
EndSplineSet
EndChar

StartChar: uni043C
Encoding: 1084 1084 167
Width: 2056
VWidth: 1646
GlyphClass: 2
Flags: W
LayerCount: 2
Fore
SplineSet
878.959960938 174.799804688 m 1,0,-1
 878.959960938 763.040039062 l 1,1,-1
 1172.71972656 763.040039062 l 1,2,-1
 1172.71972656 174.799804688 l 1,3,-1
 878.959960938 174.799804688 l 1,0,-1
1471.51953125 1351.28027344 m 1,4,-1
 1765.28027344 1351.28027344 l 1,5,-1
 1765.28027344 -123.280273438 l 1,6,-1
 1471.51953125 -123.280273438 l 1,7,-1
 1471.51953125 763.040039062 l 1,8,-1
 1172.71972656 763.040039062 l 1,9,-1
 1172.71972656 1058.24023438 l 1,10,-1
 1471.51953125 1058.24023438 l 1,11,-1
 1471.51953125 1351.28027344 l 1,4,-1
584.48046875 1058.24023438 m 1,12,-1
 878.959960938 1058.24023438 l 1,13,-1
 878.959960938 763.040039062 l 1,14,-1
 584.48046875 763.040039062 l 1,15,-1
 584.48046875 -123.280273438 l 1,16,-1
 290.719726562 -123.280273438 l 1,17,-1
 290.719726562 1351.28027344 l 1,18,-1
 584.48046875 1351.28027344 l 1,19,-1
 584.48046875 1058.24023438 l 1,12,-1
EndSplineSet
EndChar

StartChar: uni043D
Encoding: 1085 1085 168
Width: 2056
VWidth: 1646
GlyphClass: 2
Flags: W
LayerCount: 2
Fore
SplineSet
1470.08007812 1351.28027344 m 1,0,-1
 1765.28027344 1351.28027344 l 1,1,-1
 1765.28027344 -123.280273438 l 1,2,-1
 1470.08007812 -123.280273438 l 1,3,-1
 1470.08007812 467.120117188 l 1,4,-1
 585.919921875 467.120117188 l 1,5,-1
 585.919921875 -123.280273438 l 1,6,-1
 290.719726562 -123.280273438 l 1,7,-1
 290.719726562 1351.28027344 l 1,8,-1
 585.919921875 1351.28027344 l 1,9,-1
 585.919921875 761.599609375 l 1,10,-1
 1470.08007812 761.599609375 l 1,11,-1
 1470.08007812 1351.28027344 l 1,0,-1
EndSplineSet
EndChar

StartChar: uni043E
Encoding: 1086 1086 169
Width: 2056
VWidth: 1646
GlyphClass: 2
Flags: W
LayerCount: 2
Fore
SplineSet
290.719726562 1056.79980469 m 1,0,-1
 585.919921875 1056.79980469 l 1,1,-1
 585.919921875 171.919921875 l 1,2,-1
 290.719726562 171.919921875 l 1,3,-1
 290.719726562 1056.79980469 l 1,0,-1
1470.08007812 1351.28027344 m 1,4,-1
 1470.08007812 1056.79980469 l 1,5,-1
 585.919921875 1056.79980469 l 1,6,-1
 585.919921875 1351.28027344 l 1,7,-1
 1470.08007812 1351.28027344 l 1,4,-1
585.919921875 -123.280273438 m 1,8,-1
 585.919921875 171.919921875 l 1,9,-1
 1470.08007812 171.919921875 l 1,10,-1
 1470.08007812 -123.280273438 l 1,11,-1
 585.919921875 -123.280273438 l 1,8,-1
1470.08007812 1056.79980469 m 1,12,-1
 1765.28027344 1056.79980469 l 1,13,-1
 1765.28027344 171.919921875 l 1,14,-1
 1470.08007812 171.919921875 l 1,15,-1
 1470.08007812 1056.79980469 l 1,12,-1
EndSplineSet
EndChar

StartChar: uni043F
Encoding: 1087 1087 170
Width: 2056
VWidth: 1646
GlyphClass: 2
Flags: W
LayerCount: 2
Fore
SplineSet
585.919921875 -123.280273438 m 1,0,-1
 290.719726562 -123.280273438 l 1,1,-1
 290.719726562 1351.28027344 l 1,2,-1
 1765.28027344 1351.28027344 l 1,3,-1
 1765.28027344 -123.280273438 l 1,4,-1
 1470.08007812 -123.280273438 l 1,5,-1
 1470.08007812 1056.79980469 l 1,6,-1
 585.919921875 1056.79980469 l 1,7,-1
 585.919921875 -123.280273438 l 1,0,-1
EndSplineSet
EndChar

StartChar: uni0440
Encoding: 1088 1088 171
Width: 2056
VWidth: 1646
GlyphClass: 2
Flags: W
LayerCount: 2
Fore
SplineSet
585.919921875 1056.79980469 m 1,0,-1
 585.919921875 761.599609375 l 1,1,-1
 1470.08007812 761.599609375 l 1,2,-1
 1470.08007812 467.120117188 l 1,3,-1
 585.919921875 467.120117188 l 1,4,-1
 585.919921875 -123.280273438 l 1,5,-1
 290.719726562 -123.280273438 l 1,6,-1
 290.719726562 1351.28027344 l 1,7,-1
 1470.08007812 1351.28027344 l 1,8,-1
 1470.08007812 1056.79980469 l 1,9,-1
 585.919921875 1056.79980469 l 1,0,-1
1470.08007812 1056.79980469 m 1,10,-1
 1765.28027344 1056.79980469 l 1,11,-1
 1765.28027344 761.599609375 l 1,12,-1
 1470.08007812 761.599609375 l 1,13,-1
 1470.08007812 1056.79980469 l 1,10,-1
EndSplineSet
EndChar

StartChar: uni0441
Encoding: 1089 1089 172
Width: 2056
VWidth: 1646
GlyphClass: 2
Flags: W
LayerCount: 2
Fore
SplineSet
1765.28027344 -123.280273438 m 1,0,-1
 585.919921875 -123.280273438 l 1,1,-1
 585.919921875 171.919921875 l 1,2,-1
 1765.28027344 171.919921875 l 1,3,-1
 1765.28027344 -123.280273438 l 1,0,-1
290.719726562 1056.79980469 m 1,4,-1
 585.919921875 1056.79980469 l 1,5,-1
 585.919921875 171.919921875 l 1,6,-1
 290.719726562 171.919921875 l 1,7,-1
 290.719726562 1056.79980469 l 1,4,-1
1765.28027344 1351.28027344 m 1,8,-1
 1765.28027344 1056.79980469 l 1,9,-1
 585.919921875 1056.79980469 l 1,10,-1
 585.919921875 1351.28027344 l 1,11,-1
 1765.28027344 1351.28027344 l 1,8,-1
EndSplineSet
EndChar

StartChar: uni0442
Encoding: 1090 1090 173
Width: 2056
VWidth: 1646
GlyphClass: 2
Flags: W
LayerCount: 2
Fore
SplineSet
290.719726562 1351.28027344 m 1,0,-1
 1765.28027344 1351.28027344 l 1,1,-1
 1765.28027344 1056.79980469 l 1,2,-1
 1175.59960938 1056.79980469 l 1,3,-1
 1175.59960938 -123.280273438 l 1,4,-1
 880.400390625 -123.280273438 l 1,5,-1
 880.400390625 1056.79980469 l 1,6,-1
 290.719726562 1056.79980469 l 1,7,-1
 290.719726562 1351.28027344 l 1,0,-1
EndSplineSet
EndChar

StartChar: uni0443
Encoding: 1091 1091 174
Width: 2056
VWidth: 1646
GlyphClass: 2
Flags: W
LayerCount: 2
Fore
SplineSet
290.719726562 1351.28027344 m 1,0,-1
 585.919921875 1351.28027344 l 1,1,-1
 585.919921875 761.599609375 l 1,2,-1
 290.719726562 761.599609375 l 1,3,-1
 290.719726562 1351.28027344 l 1,0,-1
1765.28027344 761.599609375 m 1,4,-1
 1470.08007812 761.599609375 l 1,5,-1
 1470.08007812 1351.28027344 l 1,6,-1
 1765.28027344 1351.28027344 l 1,7,-1
 1765.28027344 761.599609375 l 1,4,-1
1175.59960938 171.919921875 m 1,8,-1
 880.400390625 171.919921875 l 1,9,-1
 880.400390625 466.400390625 l 1,10,-1
 1175.59960938 466.400390625 l 1,11,-1
 1175.59960938 171.919921875 l 1,8,-1
880.400390625 466.400390625 m 1,12,-1
 585.919921875 466.400390625 l 1,13,-1
 585.919921875 761.599609375 l 1,14,-1
 880.400390625 761.599609375 l 1,15,-1
 880.400390625 466.400390625 l 1,12,-1
290.719726562 -123.280273438 m 1,16,-1
 290.719726562 171.919921875 l 1,17,-1
 880.400390625 171.919921875 l 1,18,-1
 880.400390625 -123.280273438 l 1,19,-1
 290.719726562 -123.280273438 l 1,16,-1
1470.08007812 466.400390625 m 1,20,-1
 1175.59960938 466.400390625 l 1,21,-1
 1175.59960938 761.599609375 l 1,22,-1
 1470.08007812 761.599609375 l 1,23,-1
 1470.08007812 466.400390625 l 1,20,-1
EndSplineSet
EndChar

StartChar: uni0444
Encoding: 1092 1092 175
Width: 2056
VWidth: 1646
GlyphClass: 2
Flags: W
LayerCount: 2
Fore
SplineSet
1470.08007812 761.599609375 m 1,0,-1
 1175.59960938 761.599609375 l 1,1,-1
 1175.59960938 466.400390625 l 1,2,-1
 1470.08007812 466.400390625 l 1,3,-1
 1470.08007812 761.599609375 l 1,0,-1
290.719726562 171.919921875 m 1,4,-1
 290.719726562 1056.79980469 l 1,5,-1
 880.400390625 1056.79980469 l 1,6,-1
 880.400390625 1351.28027344 l 1,7,-1
 1175.59960938 1351.28027344 l 1,8,-1
 1175.59960938 1056.79980469 l 1,9,-1
 1765.28027344 1056.79980469 l 1,10,-1
 1765.28027344 171.919921875 l 1,11,-1
 1175.59960938 171.919921875 l 1,12,-1
 1175.59960938 -123.280273438 l 1,13,-1
 880.400390625 -123.280273438 l 1,14,-1
 880.400390625 171.919921875 l 1,15,-1
 290.719726562 171.919921875 l 1,4,-1
585.919921875 466.400390625 m 1,16,-1
 880.400390625 466.400390625 l 1,17,-1
 880.400390625 761.599609375 l 1,18,-1
 585.919921875 761.599609375 l 1,19,-1
 585.919921875 466.400390625 l 1,16,-1
EndSplineSet
EndChar

StartChar: uni0445
Encoding: 1093 1093 176
Width: 2056
VWidth: 1646
GlyphClass: 2
Flags: W
LayerCount: 2
Fore
SplineSet
290.719726562 -123.280273438 m 1,0,-1
 290.719726562 171.919921875 l 1,1,-1
 585.919921875 171.919921875 l 1,2,-1
 585.919921875 -123.280273438 l 1,3,-1
 290.719726562 -123.280273438 l 1,0,-1
290.719726562 1351.28027344 m 1,4,-1
 585.919921875 1351.28027344 l 1,5,-1
 585.919921875 1056.79980469 l 1,6,-1
 290.719726562 1056.79980469 l 1,7,-1
 290.719726562 1351.28027344 l 1,4,-1
1470.08007812 171.919921875 m 1,8,-1
 1175.59960938 171.919921875 l 1,9,-1
 1175.59960938 467.120117188 l 1,10,-1
 1470.08007812 467.120117188 l 1,11,-1
 1470.08007812 171.919921875 l 1,8,-1
1765.28027344 -123.280273438 m 1,12,-1
 1470.08007812 -123.280273438 l 1,13,-1
 1470.08007812 171.919921875 l 1,14,-1
 1765.28027344 171.919921875 l 1,15,-1
 1765.28027344 -123.280273438 l 1,12,-1
585.919921875 171.919921875 m 1,16,-1
 585.919921875 467.120117188 l 1,17,-1
 880.400390625 467.120117188 l 1,18,-1
 880.400390625 171.919921875 l 1,19,-1
 585.919921875 171.919921875 l 1,16,-1
1470.08007812 1056.79980469 m 1,20,-1
 1470.08007812 761.599609375 l 1,21,-1
 1175.59960938 761.599609375 l 1,22,-1
 1175.59960938 1056.79980469 l 1,23,-1
 1470.08007812 1056.79980469 l 1,20,-1
585.919921875 1056.79980469 m 1,24,-1
 880.400390625 1056.79980469 l 1,25,-1
 880.400390625 761.599609375 l 1,26,-1
 585.919921875 761.599609375 l 1,27,-1
 585.919921875 1056.79980469 l 1,24,-1
1765.28027344 1351.28027344 m 1,28,-1
 1765.28027344 1056.79980469 l 1,29,-1
 1470.08007812 1056.79980469 l 1,30,-1
 1470.08007812 1351.28027344 l 1,31,-1
 1765.28027344 1351.28027344 l 1,28,-1
880.400390625 761.599609375 m 1,32,-1
 1175.59960938 761.599609375 l 1,33,-1
 1175.59960938 467.120117188 l 1,34,-1
 880.400390625 467.120117188 l 1,35,-1
 880.400390625 761.599609375 l 1,32,-1
EndSplineSet
EndChar

StartChar: uni0446
Encoding: 1094 1094 177
Width: 2056
VWidth: 1646
GlyphClass: 2
Flags: W
LayerCount: 2
Fore
SplineSet
290.719726562 1351.28027344 m 1,0,-1
 585.919921875 1351.28027344 l 1,1,-1
 585.919921875 466.400390625 l 1,2,-1
 1470.08007812 466.400390625 l 1,3,-1
 1470.08007812 1351.28027344 l 1,4,-1
 1765.28027344 1351.28027344 l 1,5,-1
 1765.28027344 -123.280273438 l 1,6,-1
 1470.08007812 -123.280273438 l 1,7,-1
 1470.08007812 171.919921875 l 1,8,-1
 290.719726562 171.919921875 l 1,9,-1
 290.719726562 1351.28027344 l 1,0,-1
EndSplineSet
EndChar

StartChar: uni0447
Encoding: 1095 1095 178
Width: 2056
VWidth: 1646
GlyphClass: 2
Flags: W
LayerCount: 2
Fore
SplineSet
290.719726562 1351.28027344 m 1,0,-1
 585.919921875 1351.28027344 l 1,1,-1
 585.919921875 761.599609375 l 1,2,-1
 290.719726562 761.599609375 l 1,3,-1
 290.719726562 1351.28027344 l 1,0,-1
1470.08007812 1351.28027344 m 1,4,-1
 1765.28027344 1351.28027344 l 1,5,-1
 1765.28027344 -123.280273438 l 1,6,-1
 1470.08007812 -123.280273438 l 1,7,-1
 1470.08007812 466.400390625 l 1,8,-1
 585.919921875 466.400390625 l 1,9,-1
 585.919921875 761.599609375 l 1,10,-1
 1470.08007812 761.599609375 l 1,11,-1
 1470.08007812 1351.28027344 l 1,4,-1
EndSplineSet
EndChar

StartChar: uni0448
Encoding: 1096 1096 179
Width: 2056
VWidth: 1646
GlyphClass: 2
Flags: W
LayerCount: 2
Fore
SplineSet
290.719726562 1351.28027344 m 1,0,-1
 585.919921875 1351.28027344 l 1,1,-1
 585.919921875 171.919921875 l 1,2,-1
 880.400390625 171.919921875 l 1,3,-1
 880.400390625 1351.28027344 l 1,4,-1
 1175.59960938 1351.28027344 l 1,5,-1
 1175.59960938 171.919921875 l 1,6,-1
 1470.08007812 171.919921875 l 1,7,-1
 1470.08007812 1351.28027344 l 1,8,-1
 1765.28027344 1351.28027344 l 1,9,-1
 1765.28027344 -123.280273438 l 1,10,-1
 290.719726562 -123.280273438 l 1,11,-1
 290.719726562 1351.28027344 l 1,0,-1
EndSplineSet
EndChar

StartChar: uni0449
Encoding: 1097 1097 180
Width: 2056
VWidth: 1646
GlyphClass: 2
Flags: W
LayerCount: 2
Fore
SplineSet
290.719726562 1351.28027344 m 1,0,-1
 585.919921875 1351.28027344 l 1,1,-1
 585.919921875 466.400390625 l 1,2,-1
 880.400390625 466.400390625 l 1,3,-1
 880.400390625 1351.28027344 l 1,4,-1
 1175.59960938 1351.28027344 l 1,5,-1
 1175.59960938 466.400390625 l 1,6,-1
 1470.08007812 466.400390625 l 1,7,-1
 1470.08007812 1351.28027344 l 1,8,-1
 1765.28027344 1351.28027344 l 1,9,-1
 1765.28027344 -123.280273438 l 1,10,-1
 1470.08007812 -123.280273438 l 1,11,-1
 1470.08007812 171.919921875 l 1,12,-1
 290.719726562 171.919921875 l 1,13,-1
 290.719726562 1351.28027344 l 1,0,-1
EndSplineSet
EndChar

StartChar: uni044A
Encoding: 1098 1098 181
Width: 2056
VWidth: 1646
GlyphClass: 2
Flags: W
LayerCount: 2
Fore
SplineSet
1765.28027344 171.919921875 m 1,0,-1
 1470.08007812 171.919921875 l 1,1,-1
 1470.08007812 466.400390625 l 1,2,-1
 1765.28027344 466.400390625 l 1,3,-1
 1765.28027344 171.919921875 l 1,0,-1
585.919921875 1056.79980469 m 1,4,-1
 290.719726562 1056.79980469 l 1,5,-1
 290.719726562 1351.28027344 l 1,6,-1
 880.400390625 1351.28027344 l 1,7,-1
 880.400390625 761.599609375 l 1,8,-1
 1470.08007812 761.599609375 l 1,9,-1
 1470.08007812 466.400390625 l 1,10,-1
 880.400390625 466.400390625 l 1,11,-1
 880.400390625 171.919921875 l 1,12,-1
 1470.08007812 171.919921875 l 1,13,-1
 1470.08007812 -123.280273438 l 1,14,-1
 585.919921875 -123.280273438 l 1,15,-1
 585.919921875 1056.79980469 l 1,4,-1
EndSplineSet
EndChar

StartChar: uni044B
Encoding: 1099 1099 182
Width: 2056
VWidth: 1646
GlyphClass: 2
Flags: W
LayerCount: 2
Fore
SplineSet
585.919921875 171.919921875 m 1,0,-1
 880.400390625 171.919921875 l 1,1,-1
 880.400390625 -123.280273438 l 1,2,-1
 290.719726562 -123.280273438 l 1,3,-1
 290.719726562 1351.28027344 l 1,4,-1
 585.919921875 1351.28027344 l 1,5,-1
 585.919921875 761.599609375 l 1,6,-1
 880.400390625 761.599609375 l 1,7,-1
 880.400390625 466.400390625 l 1,8,-1
 585.919921875 466.400390625 l 1,9,-1
 585.919921875 171.919921875 l 1,0,-1
1765.28027344 -123.280273438 m 1,10,-1
 1470.08007812 -123.280273438 l 1,11,-1
 1470.08007812 1351.28027344 l 1,12,-1
 1765.28027344 1351.28027344 l 1,13,-1
 1765.28027344 -123.280273438 l 1,10,-1
1175.59960938 171.919921875 m 1,14,-1
 880.400390625 171.919921875 l 1,15,-1
 880.400390625 466.400390625 l 1,16,-1
 1175.59960938 466.400390625 l 1,17,-1
 1175.59960938 171.919921875 l 1,14,-1
EndSplineSet
EndChar

StartChar: uni044C
Encoding: 1100 1100 183
Width: 2056
VWidth: 1646
GlyphClass: 2
Flags: W
LayerCount: 2
Fore
SplineSet
1765.28027344 171.919921875 m 1,0,-1
 1470.08007812 171.919921875 l 1,1,-1
 1470.08007812 466.400390625 l 1,2,-1
 1765.28027344 466.400390625 l 1,3,-1
 1765.28027344 171.919921875 l 1,0,-1
1470.08007812 171.919921875 m 1,4,-1
 1470.08007812 -123.280273438 l 1,5,-1
 290.719726562 -123.280273438 l 1,6,-1
 290.719726562 1351.28027344 l 1,7,-1
 585.919921875 1351.28027344 l 1,8,-1
 585.919921875 761.599609375 l 1,9,-1
 1470.08007812 761.599609375 l 1,10,-1
 1470.08007812 466.400390625 l 1,11,-1
 585.919921875 466.400390625 l 1,12,-1
 585.919921875 171.919921875 l 1,13,-1
 1470.08007812 171.919921875 l 1,4,-1
EndSplineSet
EndChar

StartChar: uni044D
Encoding: 1101 1101 184
Width: 2056
VWidth: 1646
GlyphClass: 2
Flags: W
LayerCount: 2
Fore
SplineSet
585.919921875 171.919921875 m 1,0,-1
 290.719726562 171.919921875 l 1,1,-1
 290.719726562 466.400390625 l 1,2,-1
 585.919921875 466.400390625 l 1,3,-1
 585.919921875 171.919921875 l 1,0,-1
1470.08007812 761.599609375 m 1,4,-1
 1470.08007812 1056.79980469 l 1,5,-1
 1765.28027344 1056.79980469 l 1,6,-1
 1765.28027344 171.919921875 l 1,7,-1
 1470.08007812 171.919921875 l 1,8,-1
 1470.08007812 466.400390625 l 1,9,-1
 880.400390625 466.400390625 l 1,10,-1
 880.400390625 761.599609375 l 1,11,-1
 1470.08007812 761.599609375 l 1,4,-1
585.919921875 1056.79980469 m 1,12,-1
 585.919921875 1351.28027344 l 1,13,-1
 1470.08007812 1351.28027344 l 1,14,-1
 1470.08007812 1056.79980469 l 1,15,-1
 585.919921875 1056.79980469 l 1,12,-1
1470.08007812 171.919921875 m 1,16,-1
 1470.08007812 -123.280273438 l 1,17,-1
 585.919921875 -123.280273438 l 1,18,-1
 585.919921875 171.919921875 l 1,19,-1
 1470.08007812 171.919921875 l 1,16,-1
585.919921875 761.599609375 m 1,20,-1
 290.719726562 761.599609375 l 1,21,-1
 290.719726562 1056.79980469 l 1,22,-1
 585.919921875 1056.79980469 l 1,23,-1
 585.919921875 761.599609375 l 1,20,-1
EndSplineSet
EndChar

StartChar: uni044E
Encoding: 1102 1102 185
Width: 2056
VWidth: 1646
GlyphClass: 2
Flags: W
LayerCount: 2
Fore
SplineSet
1470.08007812 1056.79980469 m 1,0,-1
 1765.28027344 1056.79980469 l 1,1,-1
 1765.28027344 171.919921875 l 1,2,-1
 1470.08007812 171.919921875 l 1,3,-1
 1470.08007812 1056.79980469 l 1,0,-1
585.919921875 -123.280273438 m 1,4,-1
 290.719726562 -123.280273438 l 1,5,-1
 290.719726562 1351.28027344 l 1,6,-1
 585.919921875 1351.28027344 l 1,7,-1
 585.919921875 761.599609375 l 1,8,-1
 880.400390625 761.599609375 l 1,9,-1
 880.400390625 1056.79980469 l 1,10,-1
 1175.59960938 1056.79980469 l 1,11,-1
 1175.59960938 171.919921875 l 1,12,-1
 880.400390625 171.919921875 l 1,13,-1
 880.400390625 466.400390625 l 1,14,-1
 585.919921875 466.400390625 l 1,15,-1
 585.919921875 -123.280273438 l 1,4,-1
1470.08007812 1056.79980469 m 1,16,-1
 1175.59960938 1056.79980469 l 1,17,-1
 1175.59960938 1351.28027344 l 1,18,-1
 1470.08007812 1351.28027344 l 1,19,-1
 1470.08007812 1056.79980469 l 1,16,-1
1470.08007812 -123.280273438 m 1,20,-1
 1175.59960938 -123.280273438 l 1,21,-1
 1175.59960938 171.919921875 l 1,22,-1
 1470.08007812 171.919921875 l 1,23,-1
 1470.08007812 -123.280273438 l 1,20,-1
EndSplineSet
EndChar

StartChar: uni044F
Encoding: 1103 1103 186
Width: 2056
VWidth: 1646
GlyphClass: 2
Flags: W
LayerCount: 2
Fore
SplineSet
585.919921875 1056.79980469 m 1,0,-1
 585.919921875 761.599609375 l 1,1,-1
 290.719726562 761.599609375 l 1,2,-1
 290.719726562 1056.79980469 l 1,3,-1
 585.919921875 1056.79980469 l 1,0,-1
290.719726562 -123.280273438 m 1,4,-1
 290.719726562 171.919921875 l 1,5,-1
 585.919921875 171.919921875 l 1,6,-1
 585.919921875 -123.280273438 l 1,7,-1
 290.719726562 -123.280273438 l 1,4,-1
880.400390625 467.120117188 m 1,8,-1
 880.400390625 171.919921875 l 1,9,-1
 585.919921875 171.919921875 l 1,10,-1
 585.919921875 761.599609375 l 1,11,-1
 1470.08007812 761.599609375 l 1,12,-1
 1470.08007812 1056.79980469 l 1,13,-1
 585.919921875 1056.79980469 l 1,14,-1
 585.919921875 1351.28027344 l 1,15,-1
 1765.28027344 1351.28027344 l 1,16,-1
 1765.28027344 -123.280273438 l 1,17,-1
 1470.08007812 -123.280273438 l 1,18,-1
 1470.08007812 467.120117188 l 1,19,-1
 880.400390625 467.120117188 l 1,8,-1
EndSplineSet
EndChar

StartChar: uni0401
Encoding: 1025 1025 187
Width: 2056
VWidth: 1646
GlyphClass: 2
Flags: W
LayerCount: 2
Fore
SplineSet
1765.28027344 1056.79980469 m 1,0,-1
 585.919921875 1056.79980469 l 1,1,-1
 585.919921875 761.599609375 l 1,2,-1
 1470.08007812 761.599609375 l 1,3,-1
 1470.08007812 467.120117188 l 1,4,-1
 585.919921875 467.120117188 l 1,5,-1
 585.919921875 171.919921875 l 1,6,-1
 1765.28027344 171.919921875 l 1,7,-1
 1765.28027344 -123.280273438 l 1,8,-1
 290.719726562 -123.280273438 l 1,9,-1
 290.719726562 1351.28027344 l 1,10,-1
 1765.28027344 1351.28027344 l 1,11,-1
 1765.28027344 1056.79980469 l 1,0,-1
EndSplineSet
EndChar

StartChar: uni0451
Encoding: 1105 1105 188
Width: 2056
VWidth: 1646
GlyphClass: 2
Flags: W
LayerCount: 2
Fore
SplineSet
1765.28027344 1056.79980469 m 1,0,-1
 585.919921875 1056.79980469 l 1,1,-1
 585.919921875 761.599609375 l 1,2,-1
 1470.08007812 761.599609375 l 1,3,-1
 1470.08007812 467.120117188 l 1,4,-1
 585.919921875 467.120117188 l 1,5,-1
 585.919921875 171.919921875 l 1,6,-1
 1765.28027344 171.919921875 l 1,7,-1
 1765.28027344 -123.280273438 l 1,8,-1
 290.719726562 -123.280273438 l 1,9,-1
 290.719726562 1351.28027344 l 1,10,-1
 1765.28027344 1351.28027344 l 1,11,-1
 1765.28027344 1056.79980469 l 1,0,-1
EndSplineSet
EndChar

StartChar: uni0402
Encoding: 1026 1026 189
Width: 2056
VWidth: 1646
GlyphClass: 2
Flags: W
LayerCount: 2
Fore
SplineSet
1765.28027344 171.919921875 m 1,0,-1
 1470.08007812 171.919921875 l 1,1,-1
 1470.08007812 466.400390625 l 1,2,-1
 1765.28027344 466.400390625 l 1,3,-1
 1765.28027344 171.919921875 l 1,0,-1
585.919921875 1056.79980469 m 1,4,-1
 290.719726562 1056.79980469 l 1,5,-1
 290.719726562 1351.28027344 l 1,6,-1
 1175.59960938 1351.28027344 l 1,7,-1
 1175.59960938 1056.79980469 l 1,8,-1
 880.400390625 1056.79980469 l 1,9,-1
 880.400390625 761.599609375 l 1,10,-1
 1470.08007812 761.599609375 l 1,11,-1
 1470.08007812 466.400390625 l 1,12,-1
 880.400390625 466.400390625 l 1,13,-1
 880.400390625 -123.280273438 l 1,14,-1
 585.919921875 -123.280273438 l 1,15,-1
 585.919921875 1056.79980469 l 1,4,-1
1470.08007812 -123.280273438 m 1,16,-1
 1175.59960938 -123.280273438 l 1,17,-1
 1175.59960938 171.919921875 l 1,18,-1
 1470.08007812 171.919921875 l 1,19,-1
 1470.08007812 -123.280273438 l 1,16,-1
EndSplineSet
EndChar

StartChar: uni0452
Encoding: 1106 1106 190
Width: 2056
VWidth: 1646
GlyphClass: 2
Flags: W
LayerCount: 2
Fore
SplineSet
1765.28027344 171.919921875 m 1,0,-1
 1470.08007812 171.919921875 l 1,1,-1
 1470.08007812 466.400390625 l 1,2,-1
 1765.28027344 466.400390625 l 1,3,-1
 1765.28027344 171.919921875 l 1,0,-1
585.919921875 1056.79980469 m 1,4,-1
 290.719726562 1056.79980469 l 1,5,-1
 290.719726562 1351.28027344 l 1,6,-1
 1175.59960938 1351.28027344 l 1,7,-1
 1175.59960938 1056.79980469 l 1,8,-1
 880.400390625 1056.79980469 l 1,9,-1
 880.400390625 761.599609375 l 1,10,-1
 1470.08007812 761.599609375 l 1,11,-1
 1470.08007812 466.400390625 l 1,12,-1
 880.400390625 466.400390625 l 1,13,-1
 880.400390625 -123.280273438 l 1,14,-1
 585.919921875 -123.280273438 l 1,15,-1
 585.919921875 1056.79980469 l 1,4,-1
1470.08007812 -123.280273438 m 1,16,-1
 1175.59960938 -123.280273438 l 1,17,-1
 1175.59960938 171.919921875 l 1,18,-1
 1470.08007812 171.919921875 l 1,19,-1
 1470.08007812 -123.280273438 l 1,16,-1
EndSplineSet
EndChar

StartChar: uni0408
Encoding: 1032 1032 191
Width: 2056
VWidth: 1646
GlyphClass: 2
Flags: W
LayerCount: 2
Fore
SplineSet
585.919921875 171.919921875 m 1,0,-1
 290.719726562 171.919921875 l 1,1,-1
 290.719726562 466.400390625 l 1,2,-1
 585.919921875 466.400390625 l 1,3,-1
 585.919921875 171.919921875 l 1,0,-1
1765.28027344 171.919921875 m 1,4,-1
 1470.08007812 171.919921875 l 1,5,-1
 1470.08007812 1351.28027344 l 1,6,-1
 1765.28027344 1351.28027344 l 1,7,-1
 1765.28027344 171.919921875 l 1,4,-1
1470.08007812 171.919921875 m 1,8,-1
 1470.08007812 -123.280273438 l 1,9,-1
 585.919921875 -123.280273438 l 1,10,-1
 585.919921875 171.919921875 l 1,11,-1
 1470.08007812 171.919921875 l 1,8,-1
EndSplineSet
EndChar

StartChar: uni0458
Encoding: 1112 1112 192
Width: 2056
VWidth: 1646
GlyphClass: 2
Flags: W
LayerCount: 2
Fore
SplineSet
585.919921875 171.919921875 m 1,0,-1
 290.719726562 171.919921875 l 1,1,-1
 290.719726562 466.400390625 l 1,2,-1
 585.919921875 466.400390625 l 1,3,-1
 585.919921875 171.919921875 l 1,0,-1
1765.28027344 171.919921875 m 1,4,-1
 1470.08007812 171.919921875 l 1,5,-1
 1470.08007812 1351.28027344 l 1,6,-1
 1765.28027344 1351.28027344 l 1,7,-1
 1765.28027344 171.919921875 l 1,4,-1
1470.08007812 171.919921875 m 1,8,-1
 1470.08007812 -123.280273438 l 1,9,-1
 585.919921875 -123.280273438 l 1,10,-1
 585.919921875 171.919921875 l 1,11,-1
 1470.08007812 171.919921875 l 1,8,-1
EndSplineSet
EndChar

StartChar: uni0409
Encoding: 1033 1033 193
Width: 2056
VWidth: 1646
GlyphClass: 2
Flags: W
LayerCount: 2
Fore
SplineSet
1765.28027344 171.919921875 m 1,0,-1
 1470.08007812 171.919921875 l 1,1,-1
 1470.08007812 466.400390625 l 1,2,-1
 1765.28027344 466.400390625 l 1,3,-1
 1765.28027344 171.919921875 l 1,0,-1
585.919921875 -123.280273438 m 1,4,-1
 290.719726562 -123.280273438 l 1,5,-1
 290.719726562 1351.28027344 l 1,6,-1
 1175.59960938 1351.28027344 l 1,7,-1
 1175.59960938 761.599609375 l 1,8,-1
 1470.08007812 761.599609375 l 1,9,-1
 1470.08007812 466.400390625 l 1,10,-1
 1175.59960938 466.400390625 l 1,11,-1
 1175.59960938 171.919921875 l 1,12,-1
 1470.08007812 171.919921875 l 1,13,-1
 1470.08007812 -123.280273438 l 1,14,-1
 880.400390625 -123.280273438 l 1,15,-1
 880.400390625 1056.79980469 l 1,16,-1
 585.919921875 1056.79980469 l 1,17,-1
 585.919921875 -123.280273438 l 1,4,-1
EndSplineSet
EndChar

StartChar: uni0459
Encoding: 1113 1113 194
Width: 2056
VWidth: 1646
GlyphClass: 2
Flags: W
LayerCount: 2
Fore
SplineSet
1765.28027344 171.919921875 m 1,0,-1
 1470.08007812 171.919921875 l 1,1,-1
 1470.08007812 466.400390625 l 1,2,-1
 1765.28027344 466.400390625 l 1,3,-1
 1765.28027344 171.919921875 l 1,0,-1
585.919921875 -123.280273438 m 1,4,-1
 290.719726562 -123.280273438 l 1,5,-1
 290.719726562 1351.28027344 l 1,6,-1
 1175.59960938 1351.28027344 l 1,7,-1
 1175.59960938 761.599609375 l 1,8,-1
 1470.08007812 761.599609375 l 1,9,-1
 1470.08007812 466.400390625 l 1,10,-1
 1175.59960938 466.400390625 l 1,11,-1
 1175.59960938 171.919921875 l 1,12,-1
 1470.08007812 171.919921875 l 1,13,-1
 1470.08007812 -123.280273438 l 1,14,-1
 880.400390625 -123.280273438 l 1,15,-1
 880.400390625 1056.79980469 l 1,16,-1
 585.919921875 1056.79980469 l 1,17,-1
 585.919921875 -123.280273438 l 1,4,-1
EndSplineSet
EndChar

StartChar: uni040A
Encoding: 1034 1034 195
Width: 2056
VWidth: 1646
GlyphClass: 2
Flags: W
LayerCount: 2
Fore
SplineSet
1765.28027344 171.919921875 m 1,0,-1
 1470.08007812 171.919921875 l 1,1,-1
 1470.08007812 466.400390625 l 1,2,-1
 1765.28027344 466.400390625 l 1,3,-1
 1765.28027344 171.919921875 l 1,0,-1
585.919921875 -123.280273438 m 1,4,-1
 290.719726562 -123.280273438 l 1,5,-1
 290.719726562 1351.28027344 l 1,6,-1
 585.919921875 1351.28027344 l 1,7,-1
 585.919921875 761.599609375 l 1,8,-1
 880.400390625 761.599609375 l 1,9,-1
 880.400390625 1351.28027344 l 1,10,-1
 1175.59960938 1351.28027344 l 1,11,-1
 1175.59960938 761.599609375 l 1,12,-1
 1470.08007812 761.599609375 l 1,13,-1
 1470.08007812 466.400390625 l 1,14,-1
 1175.59960938 466.400390625 l 1,15,-1
 1175.59960938 171.919921875 l 1,16,-1
 1470.08007812 171.919921875 l 1,17,-1
 1470.08007812 -123.280273438 l 1,18,-1
 880.400390625 -123.280273438 l 1,19,-1
 880.400390625 466.400390625 l 1,20,-1
 585.919921875 466.400390625 l 1,21,-1
 585.919921875 -123.280273438 l 1,4,-1
EndSplineSet
EndChar

StartChar: uni045A
Encoding: 1114 1114 196
Width: 2056
VWidth: 1646
GlyphClass: 2
Flags: W
LayerCount: 2
Fore
SplineSet
1765.28027344 171.919921875 m 1,0,-1
 1470.08007812 171.919921875 l 1,1,-1
 1470.08007812 466.400390625 l 1,2,-1
 1765.28027344 466.400390625 l 1,3,-1
 1765.28027344 171.919921875 l 1,0,-1
585.919921875 -123.280273438 m 1,4,-1
 290.719726562 -123.280273438 l 1,5,-1
 290.719726562 1351.28027344 l 1,6,-1
 585.919921875 1351.28027344 l 1,7,-1
 585.919921875 761.599609375 l 1,8,-1
 880.400390625 761.599609375 l 1,9,-1
 880.400390625 1351.28027344 l 1,10,-1
 1175.59960938 1351.28027344 l 1,11,-1
 1175.59960938 761.599609375 l 1,12,-1
 1470.08007812 761.599609375 l 1,13,-1
 1470.08007812 466.400390625 l 1,14,-1
 1175.59960938 466.400390625 l 1,15,-1
 1175.59960938 171.919921875 l 1,16,-1
 1470.08007812 171.919921875 l 1,17,-1
 1470.08007812 -123.280273438 l 1,18,-1
 880.400390625 -123.280273438 l 1,19,-1
 880.400390625 466.400390625 l 1,20,-1
 585.919921875 466.400390625 l 1,21,-1
 585.919921875 -123.280273438 l 1,4,-1
EndSplineSet
EndChar

StartChar: uni040B
Encoding: 1035 1035 197
Width: 2056
VWidth: 1646
GlyphClass: 2
Flags: W
LayerCount: 2
Fore
SplineSet
1470.08007812 466.400390625 m 1,0,-1
 1765.28027344 466.400390625 l 1,1,-1
 1765.28027344 -123.280273438 l 1,2,-1
 1470.08007812 -123.280273438 l 1,3,-1
 1470.08007812 466.400390625 l 1,0,-1
585.919921875 1056.79980469 m 1,4,-1
 290.719726562 1056.79980469 l 1,5,-1
 290.719726562 1351.28027344 l 1,6,-1
 1175.59960938 1351.28027344 l 1,7,-1
 1175.59960938 1056.79980469 l 1,8,-1
 880.400390625 1056.79980469 l 1,9,-1
 880.400390625 761.599609375 l 1,10,-1
 1470.08007812 761.599609375 l 1,11,-1
 1470.08007812 466.400390625 l 1,12,-1
 880.400390625 466.400390625 l 1,13,-1
 880.400390625 -123.280273438 l 1,14,-1
 585.919921875 -123.280273438 l 1,15,-1
 585.919921875 1056.79980469 l 1,4,-1
EndSplineSet
EndChar

StartChar: uni045B
Encoding: 1115 1115 198
Width: 2056
VWidth: 1646
GlyphClass: 2
Flags: W
LayerCount: 2
Fore
SplineSet
1470.08007812 466.400390625 m 1,0,-1
 1765.28027344 466.400390625 l 1,1,-1
 1765.28027344 -123.280273438 l 1,2,-1
 1470.08007812 -123.280273438 l 1,3,-1
 1470.08007812 466.400390625 l 1,0,-1
585.919921875 1056.79980469 m 1,4,-1
 290.719726562 1056.79980469 l 1,5,-1
 290.719726562 1351.28027344 l 1,6,-1
 1175.59960938 1351.28027344 l 1,7,-1
 1175.59960938 1056.79980469 l 1,8,-1
 880.400390625 1056.79980469 l 1,9,-1
 880.400390625 761.599609375 l 1,10,-1
 1470.08007812 761.599609375 l 1,11,-1
 1470.08007812 466.400390625 l 1,12,-1
 880.400390625 466.400390625 l 1,13,-1
 880.400390625 -123.280273438 l 1,14,-1
 585.919921875 -123.280273438 l 1,15,-1
 585.919921875 1056.79980469 l 1,4,-1
EndSplineSet
EndChar

StartChar: uni040F
Encoding: 1039 1039 199
Width: 2056
VWidth: 1646
GlyphClass: 2
Flags: W
LayerCount: 2
Fore
SplineSet
290.719726562 1351.28027344 m 1,0,-1
 585.919921875 1351.28027344 l 1,1,-1
 585.919921875 466.400390625 l 1,2,-1
 1470.08007812 466.400390625 l 1,3,-1
 1470.08007812 1351.28027344 l 1,4,-1
 1765.28027344 1351.28027344 l 1,5,-1
 1765.28027344 171.919921875 l 1,6,-1
 1175.59960938 171.919921875 l 1,7,-1
 1175.59960938 -123.280273438 l 1,8,-1
 880.400390625 -123.280273438 l 1,9,-1
 880.400390625 171.919921875 l 1,10,-1
 290.719726562 171.919921875 l 1,11,-1
 290.719726562 1351.28027344 l 1,0,-1
EndSplineSet
EndChar

StartChar: uni045F
Encoding: 1119 1119 200
Width: 2056
VWidth: 1646
GlyphClass: 2
Flags: W
LayerCount: 2
Fore
SplineSet
290.719726562 1351.28027344 m 1,0,-1
 585.919921875 1351.28027344 l 1,1,-1
 585.919921875 466.400390625 l 1,2,-1
 1470.08007812 466.400390625 l 1,3,-1
 1470.08007812 1351.28027344 l 1,4,-1
 1765.28027344 1351.28027344 l 1,5,-1
 1765.28027344 171.919921875 l 1,6,-1
 1175.59960938 171.919921875 l 1,7,-1
 1175.59960938 -123.280273438 l 1,8,-1
 880.400390625 -123.280273438 l 1,9,-1
 880.400390625 171.919921875 l 1,10,-1
 290.719726562 171.919921875 l 1,11,-1
 290.719726562 1351.28027344 l 1,0,-1
EndSplineSet
EndChar

StartChar: arrowleft
Encoding: 8592 8592 201
Width: 2056
VWidth: 1646
GlyphClass: 2
Flags: W
LayerCount: 2
Fore
SplineSet
1175.59960938 1056.79980469 m 1,0,-1
 880.400390625 1056.79980469 l 1,1,-1
 880.400390625 1351.28027344 l 1,2,-1
 1175.59960938 1351.28027344 l 1,3,-1
 1175.59960938 1056.79980469 l 1,0,-1
1175.59960938 171.200195312 m 1,4,-1
 1175.59960938 -123.280273438 l 1,5,-1
 880.400390625 -123.280273438 l 1,6,-1
 880.400390625 171.200195312 l 1,7,-1
 1175.59960938 171.200195312 l 1,4,-1
585.919921875 760.879882812 m 1,8,-1
 585.919921875 1056.79980469 l 1,9,-1
 880.400390625 1056.79980469 l 1,10,-1
 880.400390625 761.599609375 l 1,11,-1
 1470.08007812 761.599609375 l 1,12,-1
 1470.08007812 760.879882812 l 1,13,-1
 1765.28027344 760.879882812 l 1,14,-1
 1765.28027344 466.400390625 l 1,15,-1
 1470.08007812 466.400390625 l 1,16,-1
 1470.08007812 467.120117188 l 1,17,-1
 880.400390625 467.120117188 l 1,18,-1
 880.400390625 171.919921875 l 1,19,-1
 585.919921875 171.919921875 l 1,20,-1
 585.919921875 466.400390625 l 1,21,-1
 290.719726562 466.400390625 l 1,22,-1
 290.719726562 760.879882812 l 1,23,-1
 585.919921875 760.879882812 l 1,8,-1
EndSplineSet
EndChar

StartChar: arrowup
Encoding: 8593 8593 202
Width: 2056
VWidth: 1646
GlyphClass: 2
Flags: W
LayerCount: 2
Fore
SplineSet
1470.79980469 466.400390625 m 1,0,-1
 1470.79980469 761.599609375 l 1,1,-1
 1765.28027344 761.599609375 l 1,2,-1
 1765.28027344 466.400390625 l 1,3,-1
 1470.79980469 466.400390625 l 1,0,-1
585.200195312 466.400390625 m 1,4,-1
 290.719726562 466.400390625 l 1,5,-1
 290.719726562 761.599609375 l 1,6,-1
 585.200195312 761.599609375 l 1,7,-1
 585.200195312 466.400390625 l 1,4,-1
1174.87988281 1056.08007812 m 1,8,-1
 1470.79980469 1056.08007812 l 1,9,-1
 1470.79980469 761.599609375 l 1,10,-1
 1175.59960938 761.599609375 l 1,11,-1
 1175.59960938 171.919921875 l 1,12,-1
 1174.87988281 171.919921875 l 1,13,-1
 1174.87988281 -123.280273438 l 1,14,-1
 880.400390625 -123.280273438 l 1,15,-1
 880.400390625 171.919921875 l 1,16,-1
 881.120117188 171.919921875 l 1,17,-1
 881.120117188 761.599609375 l 1,18,-1
 585.919921875 761.599609375 l 1,19,-1
 585.919921875 1056.08007812 l 1,20,-1
 880.400390625 1056.08007812 l 1,21,-1
 880.400390625 1351.28027344 l 1,22,-1
 1174.87988281 1351.28027344 l 1,23,-1
 1174.87988281 1056.08007812 l 1,8,-1
EndSplineSet
EndChar

StartChar: arrowright
Encoding: 8594 8594 203
Width: 2056
VWidth: 1646
GlyphClass: 2
Flags: W
LayerCount: 2
Fore
SplineSet
880.400390625 1056.79980469 m 1,0,-1
 880.400390625 1351.28027344 l 1,1,-1
 1175.59960938 1351.28027344 l 1,2,-1
 1175.59960938 1056.79980469 l 1,3,-1
 880.400390625 1056.79980469 l 1,0,-1
880.400390625 171.200195312 m 1,4,-1
 1175.59960938 171.200195312 l 1,5,-1
 1175.59960938 -123.280273438 l 1,6,-1
 880.400390625 -123.280273438 l 1,7,-1
 880.400390625 171.200195312 l 1,4,-1
1470.08007812 760.879882812 m 1,8,-1
 1765.28027344 760.879882812 l 1,9,-1
 1765.28027344 466.400390625 l 1,10,-1
 1470.08007812 466.400390625 l 1,11,-1
 1470.08007812 171.919921875 l 1,12,-1
 1175.59960938 171.919921875 l 1,13,-1
 1175.59960938 467.120117188 l 1,14,-1
 585.919921875 467.120117188 l 1,15,-1
 585.919921875 466.400390625 l 1,16,-1
 290.719726562 466.400390625 l 1,17,-1
 290.719726562 760.879882812 l 1,18,-1
 585.919921875 760.879882812 l 1,19,-1
 585.919921875 761.599609375 l 1,20,-1
 1175.59960938 761.599609375 l 1,21,-1
 1175.59960938 1056.79980469 l 1,22,-1
 1470.08007812 1056.79980469 l 1,23,-1
 1470.08007812 760.879882812 l 1,8,-1
EndSplineSet
EndChar

StartChar: arrowdown
Encoding: 8595 8595 204
Width: 2056
VWidth: 1646
GlyphClass: 2
Flags: W
LayerCount: 2
Fore
SplineSet
585.200195312 761.599609375 m 1,0,-1
 585.200195312 466.400390625 l 1,1,-1
 290.719726562 466.400390625 l 1,2,-1
 290.719726562 761.599609375 l 1,3,-1
 585.200195312 761.599609375 l 1,0,-1
1470.79980469 761.599609375 m 1,4,-1
 1765.28027344 761.599609375 l 1,5,-1
 1765.28027344 466.400390625 l 1,6,-1
 1470.79980469 466.400390625 l 1,7,-1
 1470.79980469 761.599609375 l 1,4,-1
881.120117188 171.919921875 m 1,8,-1
 585.200195312 171.919921875 l 1,9,-1
 585.200195312 466.400390625 l 1,10,-1
 880.400390625 466.400390625 l 1,11,-1
 880.400390625 1056.08007812 l 1,12,-1
 881.120117188 1056.08007812 l 1,13,-1
 881.120117188 1351.28027344 l 1,14,-1
 1175.59960938 1351.28027344 l 1,15,-1
 1175.59960938 1056.08007812 l 1,16,-1
 1174.87988281 1056.08007812 l 1,17,-1
 1174.87988281 466.400390625 l 1,18,-1
 1470.08007812 466.400390625 l 1,19,-1
 1470.08007812 171.919921875 l 1,20,-1
 1175.59960938 171.919921875 l 1,21,-1
 1175.59960938 -123.280273438 l 1,22,-1
 881.120117188 -123.280273438 l 1,23,-1
 881.120117188 171.919921875 l 1,8,-1
EndSplineSet
EndChar

StartChar: uni2215
Encoding: 8725 8725 205
Width: 2056
VWidth: 1646
GlyphClass: 2
Flags: W
LayerCount: 2
Fore
SplineSet
290.719726562 -123.280273438 m 1,0,-1
 290.719726562 171.919921875 l 1,1,-1
 585.919921875 171.919921875 l 1,2,-1
 585.919921875 -123.280273438 l 1,3,-1
 290.719726562 -123.280273438 l 1,0,-1
880.400390625 467.120117188 m 1,4,-1
 880.400390625 761.599609375 l 1,5,-1
 1175.59960938 761.599609375 l 1,6,-1
 1175.59960938 467.120117188 l 1,7,-1
 880.400390625 467.120117188 l 1,4,-1
585.919921875 171.919921875 m 1,8,-1
 585.919921875 467.120117188 l 1,9,-1
 880.400390625 467.120117188 l 1,10,-1
 880.400390625 171.919921875 l 1,11,-1
 585.919921875 171.919921875 l 1,8,-1
1470.08007812 1351.28027344 m 1,12,-1
 1765.28027344 1351.28027344 l 1,13,-1
 1765.28027344 1056.79980469 l 1,14,-1
 1470.08007812 1056.79980469 l 1,15,-1
 1470.08007812 1351.28027344 l 1,12,-1
1175.59960938 761.599609375 m 1,16,-1
 1175.59960938 1056.79980469 l 1,17,-1
 1470.08007812 1056.79980469 l 1,18,-1
 1470.08007812 761.599609375 l 1,19,-1
 1175.59960938 761.599609375 l 1,16,-1
EndSplineSet
EndChar

StartChar: equivalence
Encoding: 8801 8801 206
Width: 2056
VWidth: 1646
GlyphClass: 2
Flags: W
LayerCount: 2
Fore
SplineSet
290.719726562 1056.79980469 m 1,0,-1
 290.719726562 1351.28027344 l 1,1,-1
 1765.28027344 1351.28027344 l 1,2,-1
 1765.28027344 1056.79980469 l 1,3,-1
 290.719726562 1056.79980469 l 1,0,-1
290.719726562 467.120117188 m 1,4,-1
 290.719726562 761.599609375 l 1,5,-1
 1765.28027344 761.599609375 l 1,6,-1
 1765.28027344 467.120117188 l 1,7,-1
 290.719726562 467.120117188 l 1,4,-1
290.719726562 171.919921875 m 1,8,-1
 1765.28027344 171.919921875 l 1,9,-1
 1765.28027344 -123.280273438 l 1,10,-1
 290.719726562 -123.280273438 l 1,11,-1
 290.719726562 171.919921875 l 1,8,-1
EndSplineSet
EndChar

StartChar: summation
Encoding: 8721 8721 207
Width: 2056
VWidth: 1646
GlyphClass: 2
Flags: W
LayerCount: 2
Fore
SplineSet
1175.59960938 466.400390625 m 1,0,-1
 880.400390625 466.400390625 l 1,1,-1
 880.400390625 761.599609375 l 1,2,-1
 1175.59960938 761.599609375 l 1,3,-1
 1175.59960938 466.400390625 l 1,0,-1
880.400390625 171.200195312 m 1,4,-1
 1765.28027344 171.200195312 l 1,5,-1
 1765.28027344 -123.280273438 l 1,6,-1
 290.719726562 -123.280273438 l 1,7,-1
 290.719726562 171.200195312 l 1,8,-1
 585.919921875 171.200195312 l 1,9,-1
 585.919921875 466.400390625 l 1,10,-1
 880.400390625 466.400390625 l 1,11,-1
 880.400390625 171.200195312 l 1,4,-1
880.400390625 1056.79980469 m 1,12,-1
 880.400390625 761.599609375 l 1,13,-1
 585.919921875 761.599609375 l 1,14,-1
 585.919921875 1056.79980469 l 1,15,-1
 290.719726562 1056.79980469 l 1,16,-1
 290.719726562 1351.28027344 l 1,17,-1
 1765.28027344 1351.28027344 l 1,18,-1
 1765.28027344 1056.79980469 l 1,19,-1
 880.400390625 1056.79980469 l 1,12,-1
EndSplineSet
EndChar

StartChar: product
Encoding: 8719 8719 208
Width: 2056
VWidth: 1646
GlyphClass: 2
Flags: W
LayerCount: 2
Fore
SplineSet
585.919921875 -123.280273438 m 1,0,-1
 290.719726562 -123.280273438 l 1,1,-1
 290.719726562 1351.28027344 l 1,2,-1
 1765.28027344 1351.28027344 l 1,3,-1
 1765.28027344 -123.280273438 l 1,4,-1
 1470.08007812 -123.280273438 l 1,5,-1
 1470.08007812 1056.79980469 l 1,6,-1
 585.919921875 1056.79980469 l 1,7,-1
 585.919921875 -123.280273438 l 1,0,-1
EndSplineSet
EndChar

StartChar: estimated
Encoding: 8494 8494 209
Width: 2056
VWidth: 1646
GlyphClass: 2
Flags: W
LayerCount: 2
Fore
SplineSet
585.919921875 1056.79980469 m 1,0,-1
 585.919921875 1351.28027344 l 1,1,-1
 1470.08007812 1351.28027344 l 1,2,-1
 1470.08007812 1056.79980469 l 1,3,-1
 585.919921875 1056.79980469 l 1,0,-1
585.919921875 171.919921875 m 1,4,-1
 1765.28027344 171.919921875 l 1,5,-1
 1765.28027344 -123.280273438 l 1,6,-1
 585.919921875 -123.280273438 l 1,7,-1
 585.919921875 171.919921875 l 1,4,-1
290.719726562 171.919921875 m 1,8,-1
 290.719726562 1056.79980469 l 1,9,-1
 585.919921875 1056.79980469 l 1,10,-1
 585.919921875 761.599609375 l 1,11,-1
 1470.08007812 761.599609375 l 1,12,-1
 1470.08007812 1056.79980469 l 1,13,-1
 1765.28027344 1056.79980469 l 1,14,-1
 1765.28027344 467.120117188 l 1,15,-1
 585.919921875 467.120117188 l 1,16,-1
 585.919921875 171.919921875 l 1,17,-1
 290.719726562 171.919921875 l 1,8,-1
EndSplineSet
EndChar

StartChar: Omega
Encoding: 8486 8486 210
Width: 2056
VWidth: 1646
GlyphClass: 2
Flags: W
LayerCount: 2
Fore
SplineSet
1175.59960938 467.120117188 m 1,0,-1
 1470.08007812 467.120117188 l 1,1,-1
 1470.08007812 171.919921875 l 1,2,-1
 1765.28027344 171.919921875 l 1,3,-1
 1765.28027344 -123.280273438 l 1,4,-1
 1175.59960938 -123.280273438 l 1,5,-1
 1175.59960938 467.120117188 l 1,0,-1
290.719726562 467.120117188 m 1,6,-1
 290.719726562 1056.79980469 l 1,7,-1
 585.200195312 1056.79980469 l 1,8,-1
 585.200195312 467.120117188 l 1,9,-1
 290.719726562 467.120117188 l 1,6,-1
585.200195312 171.919921875 m 1,10,-1
 585.200195312 467.120117188 l 1,11,-1
 880.400390625 467.120117188 l 1,12,-1
 880.400390625 -123.280273438 l 1,13,-1
 290.719726562 -123.280273438 l 1,14,-1
 290.719726562 171.919921875 l 1,15,-1
 585.200195312 171.919921875 l 1,10,-1
585.200195312 1351.28027344 m 1,16,-1
 1470.08007812 1351.28027344 l 1,17,-1
 1470.08007812 1056.79980469 l 1,18,-1
 585.200195312 1056.79980469 l 1,19,-1
 585.200195312 1351.28027344 l 1,16,-1
1765.28027344 467.120117188 m 1,20,-1
 1470.08007812 467.120117188 l 1,21,-1
 1470.08007812 1056.79980469 l 1,22,-1
 1765.28027344 1056.79980469 l 1,23,-1
 1765.28027344 467.120117188 l 1,20,-1
EndSplineSet
EndChar

StartChar: uni03A9
Encoding: 937 937 211
Width: 2056
VWidth: 1646
GlyphClass: 2
Flags: W
LayerCount: 2
Fore
SplineSet
1175.59960938 467.120117188 m 1,0,-1
 1470.08007812 467.120117188 l 1,1,-1
 1470.08007812 171.919921875 l 1,2,-1
 1765.28027344 171.919921875 l 1,3,-1
 1765.28027344 -123.280273438 l 1,4,-1
 1175.59960938 -123.280273438 l 1,5,-1
 1175.59960938 467.120117188 l 1,0,-1
290.719726562 467.120117188 m 1,6,-1
 290.719726562 1056.79980469 l 1,7,-1
 585.200195312 1056.79980469 l 1,8,-1
 585.200195312 467.120117188 l 1,9,-1
 290.719726562 467.120117188 l 1,6,-1
585.200195312 171.919921875 m 1,10,-1
 585.200195312 467.120117188 l 1,11,-1
 880.400390625 467.120117188 l 1,12,-1
 880.400390625 -123.280273438 l 1,13,-1
 290.719726562 -123.280273438 l 1,14,-1
 290.719726562 171.919921875 l 1,15,-1
 585.200195312 171.919921875 l 1,10,-1
585.200195312 1351.28027344 m 1,16,-1
 1470.08007812 1351.28027344 l 1,17,-1
 1470.08007812 1056.79980469 l 1,18,-1
 585.200195312 1056.79980469 l 1,19,-1
 585.200195312 1351.28027344 l 1,16,-1
1765.28027344 467.120117188 m 1,20,-1
 1470.08007812 467.120117188 l 1,21,-1
 1470.08007812 1056.79980469 l 1,22,-1
 1765.28027344 1056.79980469 l 1,23,-1
 1765.28027344 467.120117188 l 1,20,-1
EndSplineSet
EndChar

StartChar: omega
Encoding: 969 969 212
Width: 2056
VWidth: 1646
GlyphClass: 2
Flags: W
LayerCount: 2
Fore
SplineSet
1175.59960938 467.120117188 m 1,0,-1
 1470.08007812 467.120117188 l 1,1,-1
 1470.08007812 171.919921875 l 1,2,-1
 1765.28027344 171.919921875 l 1,3,-1
 1765.28027344 -123.280273438 l 1,4,-1
 1175.59960938 -123.280273438 l 1,5,-1
 1175.59960938 467.120117188 l 1,0,-1
290.719726562 467.120117188 m 1,6,-1
 290.719726562 1056.79980469 l 1,7,-1
 585.200195312 1056.79980469 l 1,8,-1
 585.200195312 467.120117188 l 1,9,-1
 290.719726562 467.120117188 l 1,6,-1
585.200195312 171.919921875 m 1,10,-1
 585.200195312 467.120117188 l 1,11,-1
 880.400390625 467.120117188 l 1,12,-1
 880.400390625 -123.280273438 l 1,13,-1
 290.719726562 -123.280273438 l 1,14,-1
 290.719726562 171.919921875 l 1,15,-1
 585.200195312 171.919921875 l 1,10,-1
585.200195312 1351.28027344 m 1,16,-1
 1470.08007812 1351.28027344 l 1,17,-1
 1470.08007812 1056.79980469 l 1,18,-1
 585.200195312 1056.79980469 l 1,19,-1
 585.200195312 1351.28027344 l 1,16,-1
1765.28027344 467.120117188 m 1,20,-1
 1470.08007812 467.120117188 l 1,21,-1
 1470.08007812 1056.79980469 l 1,22,-1
 1765.28027344 1056.79980469 l 1,23,-1
 1765.28027344 467.120117188 l 1,20,-1
EndSplineSet
EndChar

StartChar: Alpha
Encoding: 913 913 213
Width: 2056
VWidth: 1646
GlyphClass: 2
Flags: W
LayerCount: 2
Fore
SplineSet
1470.08007812 1351.28027344 m 1,0,-1
 1470.08007812 1056.79980469 l 1,1,-1
 585.919921875 1056.79980469 l 1,2,-1
 585.919921875 1351.28027344 l 1,3,-1
 1470.08007812 1351.28027344 l 1,0,-1
1470.08007812 1056.79980469 m 1,4,-1
 1765.28027344 1056.79980469 l 1,5,-1
 1765.28027344 -123.280273438 l 1,6,-1
 1470.08007812 -123.280273438 l 1,7,-1
 1470.08007812 171.919921875 l 1,8,-1
 585.919921875 171.919921875 l 1,9,-1
 585.919921875 -123.280273438 l 1,10,-1
 290.719726562 -123.280273438 l 1,11,-1
 290.719726562 1056.79980469 l 1,12,-1
 585.919921875 1056.79980469 l 1,13,-1
 585.919921875 467.120117188 l 1,14,-1
 1470.08007812 467.120117188 l 1,15,-1
 1470.08007812 1056.79980469 l 1,4,-1
EndSplineSet
EndChar

StartChar: alpha
Encoding: 945 945 214
Width: 2056
VWidth: 1646
GlyphClass: 2
Flags: W
LayerCount: 2
Fore
SplineSet
1470.08007812 1351.28027344 m 1,0,-1
 1470.08007812 1056.79980469 l 1,1,-1
 585.919921875 1056.79980469 l 1,2,-1
 585.919921875 1351.28027344 l 1,3,-1
 1470.08007812 1351.28027344 l 1,0,-1
1470.08007812 1056.79980469 m 1,4,-1
 1765.28027344 1056.79980469 l 1,5,-1
 1765.28027344 -123.280273438 l 1,6,-1
 1470.08007812 -123.280273438 l 1,7,-1
 1470.08007812 171.919921875 l 1,8,-1
 585.919921875 171.919921875 l 1,9,-1
 585.919921875 -123.280273438 l 1,10,-1
 290.719726562 -123.280273438 l 1,11,-1
 290.719726562 1056.79980469 l 1,12,-1
 585.919921875 1056.79980469 l 1,13,-1
 585.919921875 467.120117188 l 1,14,-1
 1470.08007812 467.120117188 l 1,15,-1
 1470.08007812 1056.79980469 l 1,4,-1
EndSplineSet
EndChar

StartChar: Beta
Encoding: 914 914 215
Width: 2056
VWidth: 1646
GlyphClass: 2
Flags: W
LayerCount: 2
Fore
SplineSet
1765.28027344 171.919921875 m 1,0,-1
 1470.08007812 171.919921875 l 1,1,-1
 1470.08007812 467.120117188 l 1,2,-1
 1765.28027344 467.120117188 l 1,3,-1
 1765.28027344 171.919921875 l 1,0,-1
585.919921875 761.599609375 m 1,4,-1
 1470.08007812 761.599609375 l 1,5,-1
 1470.08007812 467.120117188 l 1,6,-1
 585.919921875 467.120117188 l 1,7,-1
 585.919921875 171.919921875 l 1,8,-1
 1470.08007812 171.919921875 l 1,9,-1
 1470.08007812 -123.280273438 l 1,10,-1
 290.719726562 -123.280273438 l 1,11,-1
 290.719726562 1351.28027344 l 1,12,-1
 1470.08007812 1351.28027344 l 1,13,-1
 1470.08007812 1056.79980469 l 1,14,-1
 585.919921875 1056.79980469 l 1,15,-1
 585.919921875 761.599609375 l 1,4,-1
1765.28027344 761.599609375 m 1,16,-1
 1470.08007812 761.599609375 l 1,17,-1
 1470.08007812 1056.79980469 l 1,18,-1
 1765.28027344 1056.79980469 l 1,19,-1
 1765.28027344 761.599609375 l 1,16,-1
EndSplineSet
EndChar

StartChar: beta
Encoding: 946 946 216
Width: 2056
VWidth: 1646
GlyphClass: 2
Flags: W
LayerCount: 2
Fore
SplineSet
1765.28027344 171.919921875 m 1,0,-1
 1470.08007812 171.919921875 l 1,1,-1
 1470.08007812 467.120117188 l 1,2,-1
 1765.28027344 467.120117188 l 1,3,-1
 1765.28027344 171.919921875 l 1,0,-1
585.919921875 761.599609375 m 1,4,-1
 1470.08007812 761.599609375 l 1,5,-1
 1470.08007812 467.120117188 l 1,6,-1
 585.919921875 467.120117188 l 1,7,-1
 585.919921875 171.919921875 l 1,8,-1
 1470.08007812 171.919921875 l 1,9,-1
 1470.08007812 -123.280273438 l 1,10,-1
 290.719726562 -123.280273438 l 1,11,-1
 290.719726562 1351.28027344 l 1,12,-1
 1470.08007812 1351.28027344 l 1,13,-1
 1470.08007812 1056.79980469 l 1,14,-1
 585.919921875 1056.79980469 l 1,15,-1
 585.919921875 761.599609375 l 1,4,-1
1765.28027344 761.599609375 m 1,16,-1
 1470.08007812 761.599609375 l 1,17,-1
 1470.08007812 1056.79980469 l 1,18,-1
 1765.28027344 1056.79980469 l 1,19,-1
 1765.28027344 761.599609375 l 1,16,-1
EndSplineSet
EndChar

StartChar: Gamma
Encoding: 915 915 217
Width: 2056
VWidth: 1646
GlyphClass: 2
Flags: W
LayerCount: 2
Fore
SplineSet
585.919921875 -123.280273438 m 1,0,-1
 290.719726562 -123.280273438 l 1,1,-1
 290.719726562 1351.28027344 l 1,2,-1
 1765.28027344 1351.28027344 l 1,3,-1
 1765.28027344 1056.79980469 l 1,4,-1
 585.919921875 1056.79980469 l 1,5,-1
 585.919921875 -123.280273438 l 1,0,-1
EndSplineSet
EndChar

StartChar: gamma
Encoding: 947 947 218
Width: 2056
VWidth: 1646
GlyphClass: 2
Flags: W
LayerCount: 2
Fore
SplineSet
585.919921875 -123.280273438 m 1,0,-1
 290.719726562 -123.280273438 l 1,1,-1
 290.719726562 1351.28027344 l 1,2,-1
 1765.28027344 1351.28027344 l 1,3,-1
 1765.28027344 1056.79980469 l 1,4,-1
 585.919921875 1056.79980469 l 1,5,-1
 585.919921875 -123.280273438 l 1,0,-1
EndSplineSet
EndChar

StartChar: uni0394
Encoding: 916 916 219
Width: 2056
VWidth: 1646
GlyphClass: 2
Flags: W
LayerCount: 2
Fore
SplineSet
1175.59960938 1056.79980469 m 1,0,-1
 880.400390625 1056.79980469 l 1,1,-1
 880.400390625 1351.28027344 l 1,2,-1
 1175.59960938 1351.28027344 l 1,3,-1
 1175.59960938 1056.79980469 l 1,0,-1
880.400390625 466.400390625 m 1,4,-1
 585.919921875 466.400390625 l 1,5,-1
 585.919921875 1056.79980469 l 1,6,-1
 880.400390625 1056.79980469 l 1,7,-1
 880.400390625 466.400390625 l 1,4,-1
1470.08007812 466.400390625 m 1,8,-1
 1175.59960938 466.400390625 l 1,9,-1
 1175.59960938 1056.79980469 l 1,10,-1
 1470.08007812 1056.79980469 l 1,11,-1
 1470.08007812 466.400390625 l 1,8,-1
290.719726562 466.400390625 m 1,12,-1
 585.919921875 466.400390625 l 1,13,-1
 585.919921875 171.919921875 l 1,14,-1
 1470.08007812 171.919921875 l 1,15,-1
 1470.08007812 466.400390625 l 1,16,-1
 1765.28027344 466.400390625 l 1,17,-1
 1765.28027344 -123.280273438 l 1,18,-1
 290.719726562 -123.280273438 l 1,19,-1
 290.719726562 466.400390625 l 1,12,-1
EndSplineSet
EndChar

StartChar: delta
Encoding: 948 948 220
Width: 2056
VWidth: 1646
GlyphClass: 2
Flags: W
LayerCount: 2
Fore
SplineSet
1175.59960938 1056.79980469 m 1,0,-1
 880.400390625 1056.79980469 l 1,1,-1
 880.400390625 1351.28027344 l 1,2,-1
 1175.59960938 1351.28027344 l 1,3,-1
 1175.59960938 1056.79980469 l 1,0,-1
880.400390625 466.400390625 m 1,4,-1
 585.919921875 466.400390625 l 1,5,-1
 585.919921875 1056.79980469 l 1,6,-1
 880.400390625 1056.79980469 l 1,7,-1
 880.400390625 466.400390625 l 1,4,-1
1470.08007812 466.400390625 m 1,8,-1
 1175.59960938 466.400390625 l 1,9,-1
 1175.59960938 1056.79980469 l 1,10,-1
 1470.08007812 1056.79980469 l 1,11,-1
 1470.08007812 466.400390625 l 1,8,-1
290.719726562 466.400390625 m 1,12,-1
 585.919921875 466.400390625 l 1,13,-1
 585.919921875 171.919921875 l 1,14,-1
 1470.08007812 171.919921875 l 1,15,-1
 1470.08007812 466.400390625 l 1,16,-1
 1765.28027344 466.400390625 l 1,17,-1
 1765.28027344 -123.280273438 l 1,18,-1
 290.719726562 -123.280273438 l 1,19,-1
 290.719726562 466.400390625 l 1,12,-1
EndSplineSet
EndChar

StartChar: Epsilon
Encoding: 917 917 221
Width: 2056
VWidth: 1646
GlyphClass: 2
Flags: W
LayerCount: 2
Fore
SplineSet
1765.28027344 1056.79980469 m 1,0,-1
 585.919921875 1056.79980469 l 1,1,-1
 585.919921875 761.599609375 l 1,2,-1
 1470.08007812 761.599609375 l 1,3,-1
 1470.08007812 467.120117188 l 1,4,-1
 585.919921875 467.120117188 l 1,5,-1
 585.919921875 171.919921875 l 1,6,-1
 1765.28027344 171.919921875 l 1,7,-1
 1765.28027344 -123.280273438 l 1,8,-1
 290.719726562 -123.280273438 l 1,9,-1
 290.719726562 1351.28027344 l 1,10,-1
 1765.28027344 1351.28027344 l 1,11,-1
 1765.28027344 1056.79980469 l 1,0,-1
EndSplineSet
EndChar

StartChar: epsilon
Encoding: 949 949 222
Width: 2056
VWidth: 1646
GlyphClass: 2
Flags: W
LayerCount: 2
Fore
SplineSet
1765.28027344 1056.79980469 m 1,0,-1
 585.919921875 1056.79980469 l 1,1,-1
 585.919921875 761.599609375 l 1,2,-1
 1470.08007812 761.599609375 l 1,3,-1
 1470.08007812 467.120117188 l 1,4,-1
 585.919921875 467.120117188 l 1,5,-1
 585.919921875 171.919921875 l 1,6,-1
 1765.28027344 171.919921875 l 1,7,-1
 1765.28027344 -123.280273438 l 1,8,-1
 290.719726562 -123.280273438 l 1,9,-1
 290.719726562 1351.28027344 l 1,10,-1
 1765.28027344 1351.28027344 l 1,11,-1
 1765.28027344 1056.79980469 l 1,0,-1
EndSplineSet
EndChar

StartChar: Zeta
Encoding: 918 918 223
Width: 2056
VWidth: 1646
GlyphClass: 2
Flags: W
LayerCount: 2
Fore
SplineSet
1470.08007812 1056.79980469 m 1,0,-1
 1470.08007812 761.599609375 l 1,1,-1
 1175.59960938 761.599609375 l 1,2,-1
 1175.59960938 1056.79980469 l 1,3,-1
 290.719726562 1056.79980469 l 1,4,-1
 290.719726562 1351.28027344 l 1,5,-1
 1765.28027344 1351.28027344 l 1,6,-1
 1765.28027344 1056.79980469 l 1,7,-1
 1470.08007812 1056.79980469 l 1,0,-1
585.919921875 467.120117188 m 1,8,-1
 880.400390625 467.120117188 l 1,9,-1
 880.400390625 171.919921875 l 1,10,-1
 1765.28027344 171.919921875 l 1,11,-1
 1765.28027344 -123.280273438 l 1,12,-1
 290.719726562 -123.280273438 l 1,13,-1
 290.719726562 171.919921875 l 1,14,-1
 585.919921875 171.919921875 l 1,15,-1
 585.919921875 467.120117188 l 1,8,-1
1175.59960938 761.599609375 m 1,16,-1
 1175.59960938 467.120117188 l 1,17,-1
 880.400390625 467.120117188 l 1,18,-1
 880.400390625 761.599609375 l 1,19,-1
 1175.59960938 761.599609375 l 1,16,-1
EndSplineSet
EndChar

StartChar: zeta
Encoding: 950 950 224
Width: 2056
VWidth: 1646
GlyphClass: 2
Flags: W
LayerCount: 2
Fore
SplineSet
1470.08007812 1056.79980469 m 1,0,-1
 1470.08007812 761.599609375 l 1,1,-1
 1175.59960938 761.599609375 l 1,2,-1
 1175.59960938 1056.79980469 l 1,3,-1
 290.719726562 1056.79980469 l 1,4,-1
 290.719726562 1351.28027344 l 1,5,-1
 1765.28027344 1351.28027344 l 1,6,-1
 1765.28027344 1056.79980469 l 1,7,-1
 1470.08007812 1056.79980469 l 1,0,-1
585.919921875 467.120117188 m 1,8,-1
 880.400390625 467.120117188 l 1,9,-1
 880.400390625 171.919921875 l 1,10,-1
 1765.28027344 171.919921875 l 1,11,-1
 1765.28027344 -123.280273438 l 1,12,-1
 290.719726562 -123.280273438 l 1,13,-1
 290.719726562 171.919921875 l 1,14,-1
 585.919921875 171.919921875 l 1,15,-1
 585.919921875 467.120117188 l 1,8,-1
1175.59960938 761.599609375 m 1,16,-1
 1175.59960938 467.120117188 l 1,17,-1
 880.400390625 467.120117188 l 1,18,-1
 880.400390625 761.599609375 l 1,19,-1
 1175.59960938 761.599609375 l 1,16,-1
EndSplineSet
EndChar

StartChar: Eta
Encoding: 919 919 225
Width: 2056
VWidth: 1646
GlyphClass: 2
Flags: W
LayerCount: 2
Fore
SplineSet
1470.08007812 1351.28027344 m 1,0,-1
 1765.28027344 1351.28027344 l 1,1,-1
 1765.28027344 -123.280273438 l 1,2,-1
 1470.08007812 -123.280273438 l 1,3,-1
 1470.08007812 467.120117188 l 1,4,-1
 585.919921875 467.120117188 l 1,5,-1
 585.919921875 -123.280273438 l 1,6,-1
 290.719726562 -123.280273438 l 1,7,-1
 290.719726562 1351.28027344 l 1,8,-1
 585.919921875 1351.28027344 l 1,9,-1
 585.919921875 761.599609375 l 1,10,-1
 1470.08007812 761.599609375 l 1,11,-1
 1470.08007812 1351.28027344 l 1,0,-1
EndSplineSet
EndChar

StartChar: eta
Encoding: 951 951 226
Width: 2056
VWidth: 1646
GlyphClass: 2
Flags: W
LayerCount: 2
Fore
SplineSet
1470.08007812 1351.28027344 m 1,0,-1
 1765.28027344 1351.28027344 l 1,1,-1
 1765.28027344 -123.280273438 l 1,2,-1
 1470.08007812 -123.280273438 l 1,3,-1
 1470.08007812 467.120117188 l 1,4,-1
 585.919921875 467.120117188 l 1,5,-1
 585.919921875 -123.280273438 l 1,6,-1
 290.719726562 -123.280273438 l 1,7,-1
 290.719726562 1351.28027344 l 1,8,-1
 585.919921875 1351.28027344 l 1,9,-1
 585.919921875 761.599609375 l 1,10,-1
 1470.08007812 761.599609375 l 1,11,-1
 1470.08007812 1351.28027344 l 1,0,-1
EndSplineSet
EndChar

StartChar: Theta
Encoding: 920 920 227
Width: 2056
VWidth: 1646
GlyphClass: 2
Flags: W
LayerCount: 2
Fore
SplineSet
290.719726562 1056.79980469 m 1,0,-1
 585.919921875 1056.79980469 l 1,1,-1
 585.919921875 171.919921875 l 1,2,-1
 290.719726562 171.919921875 l 1,3,-1
 290.719726562 1056.79980469 l 1,0,-1
1470.08007812 1351.28027344 m 1,4,-1
 1470.08007812 1056.79980469 l 1,5,-1
 585.919921875 1056.79980469 l 1,6,-1
 585.919921875 1351.28027344 l 1,7,-1
 1470.08007812 1351.28027344 l 1,4,-1
585.919921875 -123.280273438 m 1,8,-1
 585.919921875 171.919921875 l 1,9,-1
 1470.08007812 171.919921875 l 1,10,-1
 1470.08007812 -123.280273438 l 1,11,-1
 585.919921875 -123.280273438 l 1,8,-1
1470.08007812 1056.79980469 m 1,12,-1
 1765.28027344 1056.79980469 l 1,13,-1
 1765.28027344 171.919921875 l 1,14,-1
 1470.08007812 171.919921875 l 1,15,-1
 1470.08007812 1056.79980469 l 1,12,-1
1175.59960938 466.400390625 m 1,16,-1
 880.400390625 466.400390625 l 1,17,-1
 880.400390625 761.599609375 l 1,18,-1
 1175.59960938 761.599609375 l 1,19,-1
 1175.59960938 466.400390625 l 1,16,-1
EndSplineSet
EndChar

StartChar: theta
Encoding: 952 952 228
Width: 2056
VWidth: 1646
GlyphClass: 2
Flags: W
LayerCount: 2
Fore
SplineSet
290.719726562 1056.79980469 m 1,0,-1
 585.919921875 1056.79980469 l 1,1,-1
 585.919921875 171.919921875 l 1,2,-1
 290.719726562 171.919921875 l 1,3,-1
 290.719726562 1056.79980469 l 1,0,-1
1470.08007812 1351.28027344 m 1,4,-1
 1470.08007812 1056.79980469 l 1,5,-1
 585.919921875 1056.79980469 l 1,6,-1
 585.919921875 1351.28027344 l 1,7,-1
 1470.08007812 1351.28027344 l 1,4,-1
585.919921875 -123.280273438 m 1,8,-1
 585.919921875 171.919921875 l 1,9,-1
 1470.08007812 171.919921875 l 1,10,-1
 1470.08007812 -123.280273438 l 1,11,-1
 585.919921875 -123.280273438 l 1,8,-1
1470.08007812 1056.79980469 m 1,12,-1
 1765.28027344 1056.79980469 l 1,13,-1
 1765.28027344 171.919921875 l 1,14,-1
 1470.08007812 171.919921875 l 1,15,-1
 1470.08007812 1056.79980469 l 1,12,-1
1175.59960938 466.400390625 m 1,16,-1
 880.400390625 466.400390625 l 1,17,-1
 880.400390625 761.599609375 l 1,18,-1
 1175.59960938 761.599609375 l 1,19,-1
 1175.59960938 466.400390625 l 1,16,-1
EndSplineSet
EndChar

StartChar: Iota
Encoding: 921 921 229
Width: 2056
VWidth: 1646
GlyphClass: 2
Flags: W
LayerCount: 2
Fore
SplineSet
1175.59960938 1056.79980469 m 1,0,-1
 1175.59960938 171.919921875 l 1,1,-1
 1765.28027344 171.919921875 l 1,2,-1
 1765.28027344 -123.280273438 l 1,3,-1
 290.719726562 -123.280273438 l 1,4,-1
 290.719726562 171.919921875 l 1,5,-1
 880.400390625 171.919921875 l 1,6,-1
 880.400390625 1056.79980469 l 1,7,-1
 290.719726562 1056.79980469 l 1,8,-1
 290.719726562 1351.28027344 l 1,9,-1
 1765.28027344 1351.28027344 l 1,10,-1
 1765.28027344 1056.79980469 l 1,11,-1
 1175.59960938 1056.79980469 l 1,0,-1
EndSplineSet
EndChar

StartChar: iota
Encoding: 953 953 230
Width: 2056
VWidth: 1646
GlyphClass: 2
Flags: W
LayerCount: 2
Fore
SplineSet
1175.59960938 1056.79980469 m 1,0,-1
 1175.59960938 171.919921875 l 1,1,-1
 1765.28027344 171.919921875 l 1,2,-1
 1765.28027344 -123.280273438 l 1,3,-1
 290.719726562 -123.280273438 l 1,4,-1
 290.719726562 171.919921875 l 1,5,-1
 880.400390625 171.919921875 l 1,6,-1
 880.400390625 1056.79980469 l 1,7,-1
 290.719726562 1056.79980469 l 1,8,-1
 290.719726562 1351.28027344 l 1,9,-1
 1765.28027344 1351.28027344 l 1,10,-1
 1765.28027344 1056.79980469 l 1,11,-1
 1175.59960938 1056.79980469 l 1,0,-1
EndSplineSet
EndChar

